<svg width="32" height="32" viewBox="0 0 32 32" fill="none" xmlns="http://www.w3.org/2000/svg">
<mask id="mask0_5_6657" style="mask-type:alpha" maskUnits="userSpaceOnUse" x="1" y="1" width="31" height="30">
<rect x="1.2002" y="1" width="30" height="30" fill="#D9D9D9"/>
</mask>
<g mask="url(#mask0_5_6657)">
<path d="M12.2627 29C11.0335 29 9.86686 28.776 8.7627 28.3281C7.65853 27.8802 6.67936 27.2188 5.8252 26.3438C4.97103 25.5104 4.31999 24.5469 3.87207 23.4531C3.42415 22.3594 3.2002 21.1875 3.2002 19.9375C3.2002 18.1667 3.6429 16.5625 4.52832 15.125C5.41374 13.6875 6.58561 12.6354 8.04395 11.9688C8.43978 11.1146 9.00228 10.3229 9.73145 9.59375C10.4606 8.86458 11.2835 8.27083 12.2002 7.8125C12.8877 6.35417 13.9606 5.1875 15.4189 4.3125C16.8773 3.4375 18.4606 3 20.1689 3C21.3981 3 22.5596 3.22396 23.6533 3.67187C24.7471 4.11979 25.7106 4.78125 26.5439 5.65625C27.3773 6.51042 28.0283 7.48438 28.4971 8.57812C28.9658 9.67188 29.2002 10.8333 29.2002 12.0625C29.2002 13.7292 28.8252 15.2448 28.0752 16.6094C27.3252 17.974 26.096 19.1042 24.3877 20C24.0335 20.7708 23.4658 21.5729 22.6846 22.4062C21.9033 23.2396 21.0856 23.8229 20.2314 24.1562C19.5439 25.6354 18.5023 26.8125 17.1064 27.6875C15.7106 28.5625 14.096 29 12.2627 29ZM12.3252 26.4062C13.096 26.4271 13.8564 26.2656 14.6064 25.9219C15.3564 25.5781 15.9294 25.1146 16.3252 24.5312C15.096 24.6146 13.9242 24.4635 12.8096 24.0781C11.695 23.6927 10.7106 23.0938 9.85644 22.2812C9.00228 21.4479 8.3877 20.4844 8.0127 19.3906C7.6377 18.2969 7.49186 17.1354 7.5752 15.9062C7.0127 16.3646 6.5752 16.9583 6.2627 17.6875C5.9502 18.4167 5.79395 19.1667 5.79395 19.9375C5.79395 20.8333 5.9502 21.6719 6.2627 22.4531C6.5752 23.2344 7.04395 23.9271 7.66895 24.5312C8.27311 25.1146 8.97103 25.5677 9.7627 25.8906C10.5544 26.2135 11.4085 26.3854 12.3252 26.4062ZM16.2627 22.4375C17.0127 22.4375 17.7419 22.2812 18.4502 21.9688C19.1585 21.6562 19.7523 21.2188 20.2314 20.6562C19.0231 20.7396 17.8617 20.5781 16.7471 20.1719C15.6325 19.7656 14.6585 19.1354 13.8252 18.2812C12.971 17.4062 12.346 16.4167 11.9502 15.3125C11.5544 14.2083 11.4189 13.0417 11.5439 11.8125C10.8564 12.5208 10.3877 13.1719 10.1377 13.7656C9.8877 14.3594 9.7627 15.1042 9.7627 16C9.7627 16.8958 9.92415 17.7344 10.2471 18.5156C10.57 19.2969 11.0335 19.9896 11.6377 20.5938C12.2419 21.1979 12.9398 21.6562 13.7314 21.9688C14.5231 22.2812 15.3669 22.4375 16.2627 22.4375ZM20.2939 18.4062C20.6481 18.4062 20.9814 18.375 21.2939 18.3125C21.6064 18.25 21.9814 18.1354 22.4189 17.9688C22.7731 16.8229 22.8096 15.6823 22.5283 14.5469C22.2471 13.4115 21.6481 12.3958 20.7314 11.5C19.9189 10.6667 18.8825 10.099 17.6221 9.79688C16.3617 9.49479 15.2002 9.48958 14.1377 9.78125C14.0335 10.1562 13.9606 10.5104 13.9189 10.8438C13.8773 11.1771 13.8564 11.5729 13.8564 12.0312C13.8564 12.8854 14.0127 13.7083 14.3252 14.5C14.6377 15.2917 15.1064 15.9896 15.7314 16.5938C16.3356 17.2396 17.0283 17.7031 17.8096 17.9844C18.5908 18.2656 19.4189 18.4062 20.2939 18.4062ZM25.0439 16.0625C25.5856 15.6042 25.9814 15.0521 26.2314 14.4062C26.4814 13.7604 26.6064 12.9688 26.6064 12.0312C26.6064 11.1562 26.4502 10.3333 26.1377 9.5625C25.8252 8.79167 25.3669 8.09375 24.7627 7.46875C24.1377 6.86458 23.4398 6.40104 22.6689 6.07813C21.8981 5.75521 21.0856 5.59375 20.2314 5.59375C19.3773 5.59375 18.596 5.72917 17.8877 6C17.1794 6.27083 16.5544 6.6875 16.0127 7.25C17.2002 7.1875 18.3617 7.36458 19.4971 7.78125C20.6325 8.19792 21.6481 8.84375 22.5439 9.71875C23.4398 10.5938 24.096 11.5729 24.5127 12.6562C24.9294 13.7396 25.1064 14.875 25.0439 16.0625Z" fill="white"/>
</g>
</svg>
