<svg width="32" height="32" viewBox="0 0 32 32" fill="none" xmlns="http://www.w3.org/2000/svg">
<mask id="mask0_5_6667" style="mask-type:alpha" maskUnits="userSpaceOnUse" x="1" y="1" width="31" height="30">
<rect x="1.2002" y="1" width="30" height="30" fill="#D9D9D9"/>
</mask>
<g mask="url(#mask0_5_6667)">
<path d="M12.3589 27.25C11.3364 27.25 10.3765 27.0605 9.47904 26.6815C8.5816 26.3025 7.79074 25.7708 7.10645 25.0865C6.42695 24.4071 5.8977 23.6198 5.5187 22.7248C5.1397 21.8297 4.9502 20.8686 4.9502 19.8413C4.9502 18.367 5.34242 17.0144 6.12688 15.7837C6.91132 14.5529 7.99025 13.6522 9.36366 13.0817C9.74827 12.1907 10.2723 11.4094 10.9358 10.738C11.5992 10.0665 12.3813 9.54166 13.2819 9.16347C13.8685 7.79647 14.7519 6.71914 15.9322 5.93147C17.1125 5.14382 18.4847 4.75 20.0488 4.75C21.0712 4.75 22.0299 4.9395 22.9249 5.3185C23.82 5.6975 24.6072 6.22916 25.2867 6.91347C25.9502 7.61378 26.4767 8.40625 26.8661 9.29087C27.2555 10.1755 27.4502 11.129 27.4502 12.1514C27.4502 13.6931 27.0772 15.0469 26.3312 16.2128C25.5852 17.3786 24.4871 18.2804 23.0367 18.9183C22.6521 19.8349 22.1333 20.6158 21.4803 21.2608C20.8272 21.9059 20.04 22.4311 19.1185 22.8365C18.548 24.2035 17.6686 25.2809 16.4803 26.0685C15.2919 26.8562 13.9181 27.25 12.3589 27.25ZM12.4069 26.2885C13.4566 26.2885 14.5019 26.0212 15.5427 25.4868C16.5836 24.9523 17.3669 24.1915 17.8925 23.2043C16.58 23.4784 15.3248 23.4283 14.1269 23.0541C12.929 22.6799 11.8877 22.0689 11.0031 21.2212C10.1345 20.3413 9.5143 19.3053 9.14251 18.113C8.7707 16.9207 8.72181 15.6683 8.99585 14.3558C8.01989 14.9135 7.26188 15.6967 6.72182 16.7055C6.18176 17.7143 5.91173 18.7596 5.91173 19.8413C5.91173 20.7468 6.07839 21.5898 6.41173 22.3702C6.74506 23.1506 7.20821 23.8349 7.80116 24.4231C8.41012 25.0112 9.10363 25.4691 9.8817 25.7969C10.6597 26.1246 11.5015 26.2885 12.4069 26.2885ZM16.2002 22.4399C17.5063 22.4399 18.6425 22.1258 19.6089 21.4976C20.5752 20.8694 21.2859 20.1554 21.7411 19.3558C20.4286 19.6298 19.1746 19.5773 17.979 19.1983C16.7835 18.8193 15.7539 18.1955 14.8901 17.3269C14.0055 16.4375 13.3749 15.3978 12.9983 14.2079C12.6217 13.018 12.5808 11.7668 12.8757 10.4543C11.9462 11.0537 11.2026 11.8113 10.6449 12.7272C10.0872 13.643 9.80835 14.734 9.80835 16C9.80835 16.8846 9.97102 17.7172 10.2964 18.4976C10.6217 19.2781 11.0808 19.9648 11.6738 20.5577C12.2619 21.1619 12.9422 21.6266 13.7146 21.9519C14.4871 22.2773 15.3156 22.4399 16.2002 22.4399ZM20.1497 18.5529C20.5199 18.5529 20.8833 18.5204 21.2399 18.4555C21.5964 18.3906 21.967 18.2829 22.3516 18.1322C22.7891 16.887 22.858 15.6815 22.5584 14.5156C22.2587 13.3497 21.6722 12.3301 20.7988 11.4567C19.9718 10.6298 18.941 10.0601 17.7062 9.74759C16.4714 9.43509 15.2595 9.48477 14.0704 9.89663C13.9502 10.2508 13.86 10.6074 13.7999 10.9663C13.7399 11.3253 13.7098 11.7204 13.7098 12.1514C13.7098 13.0264 13.8765 13.8542 14.2098 14.6346C14.5432 15.4151 15.0063 16.1042 15.5992 16.7019C16.1922 17.3205 16.8789 17.7837 17.6593 18.0913C18.4398 18.399 19.2699 18.5529 20.1497 18.5529ZM23.5127 17.6587C24.4454 17.1026 25.1745 16.3846 25.7002 15.5048C26.2258 14.625 26.4887 13.5072 26.4887 12.1514C26.4887 11.2716 26.326 10.4427 26.0007 9.66466C25.6754 8.88661 25.2082 8.20111 24.5992 7.60816C24.0015 6.99439 23.3136 6.52484 22.5355 6.19953C21.7575 5.8742 20.9286 5.71153 20.0488 5.71153C18.8516 5.71153 17.7843 5.97956 16.8468 6.51562C15.9093 7.05169 15.1153 7.79648 14.4646 8.75C15.7771 8.47596 17.044 8.52844 18.2651 8.90744C19.4862 9.28646 20.5439 9.91267 21.4382 10.7861C22.3324 11.6755 22.9742 12.7151 23.3637 13.905C23.7531 15.0949 23.8028 16.3462 23.5127 17.6587Z" fill="white"/>
</g>
</svg>
