<svg width="32" height="32" viewBox="0 0 32 32" fill="none" xmlns="http://www.w3.org/2000/svg">
<mask id="mask0_43_3186" style="mask-type:alpha" maskUnits="userSpaceOnUse" x="1" y="1" width="30" height="30">
<rect x="1" y="1" width="30" height="30" fill="#D9D9D9"/>
</mask>
<g mask="url(#mask0_43_3186)">
<path d="M16.0042 27.25C14.4485 27.25 12.9859 26.9561 11.6164 26.3683C10.2469 25.7806 9.05555 24.9829 8.04247 23.9753C7.02941 22.9676 6.2274 21.7828 5.63644 20.4206C5.04548 19.0585 4.75 17.601 4.75 16.0481C4.75 15.2934 4.8173 14.5627 4.95191 13.8559C5.08653 13.1491 5.28284 12.4559 5.54084 11.7764L6.27403 12.5096C6.09134 13.0769 5.95193 13.6519 5.85578 14.2347C5.75961 14.8174 5.71153 15.4058 5.71153 16C5.71153 18.8722 6.708 21.305 8.70094 23.2984C10.6939 25.2918 13.1261 26.2885 15.9977 26.2885C18.8692 26.2885 21.3022 25.292 23.2967 23.2991C25.2912 21.3061 26.2885 18.8739 26.2885 16.0023C26.2885 13.1308 25.2905 10.6978 23.2946 8.70328C21.2987 6.70878 18.8628 5.71153 15.987 5.71153C15.4075 5.71153 14.8287 5.75716 14.2506 5.84841C13.6724 5.93966 13.1081 6.08153 12.5577 6.27403L11.7933 5.53366C12.4407 5.30609 13.0973 5.11859 13.7632 4.97116C14.4291 4.82372 15.109 4.75 15.8029 4.75C17.3749 4.75 18.8522 5.04206 20.2348 5.62619C21.6174 6.21033 22.8304 7.01282 23.8738 8.03366C24.9173 9.05449 25.7409 10.2485 26.3445 11.6156C26.9482 12.9826 27.25 14.4434 27.25 15.9978C27.25 17.5521 26.9548 19.0141 26.3644 20.3836C25.774 21.7531 24.9727 22.9444 23.9606 23.9575C22.9485 24.9706 21.7583 25.7726 20.3901 26.3636C19.0218 26.9545 17.5599 27.25 16.0042 27.25ZM8.30019 9.22837C8.04238 9.22837 7.81851 9.13172 7.62859 8.93841C7.4387 8.74511 7.34375 8.51955 7.34375 8.26172C7.34375 8.00391 7.4404 7.78004 7.63369 7.59012C7.82698 7.40023 8.05254 7.30528 8.31038 7.30528C8.56821 7.30528 8.79207 7.40193 8.98197 7.59522C9.17186 7.78853 9.26681 8.01409 9.26681 8.27191C9.26681 8.52974 9.17017 8.7536 8.97687 8.9435C8.78358 9.13342 8.55802 9.22837 8.30019 9.22837Z" fill="white"/>
</g>
</svg>
