<svg width="32" height="32" viewBox="0 0 32 32" fill="#38D9A9" xmlns="http://www.w3.org/2000/svg">
<path fill-rule="evenodd" clip-rule="evenodd" d="M29.2 17.88L26.6667 20.4134V24C26.6667 25.4667 25.4667 26.6667 24 26.6667H20.4267L17.8934 29.2C16.8534 30.24 15.16 30.24 14.12 29.2L11.5867 26.6667H8.00002C6.53335 26.6667 5.33335 25.4667 5.33335 24V20.4267L2.80002 17.8934C1.76002 16.8534 1.76002 15.16 2.80002 14.12L5.33335 11.5867V8.00002C5.33335 6.53335 6.53335 5.33335 8.00002 5.33335H11.5867L14.1067 2.80002C15.1467 1.76002 16.84 1.76002 17.88 2.80002L20.4134 5.33335H24C25.4667 5.33335 26.6667 6.53335 26.6667 8.00002V11.5867L29.2 14.1067C30.24 15.1467 30.24 16.84 29.2 17.88Z" fill="white"/>
</svg>
