<svg width="32" height="32" viewBox="0 0 32 32" fill="none" xmlns="http://www.w3.org/2000/svg">
<path d="M25.8804 14.4732H28.6625C28.5776 13.047 28.2639 11.6438 27.7333 10.3175L25.2906 11.7297C25.6022 12.5973 25.8067 13.5164 25.8804 14.4732ZM21.0353 3.22468C19.6834 2.58002 18.2317 2.17031 16.7425 2.01306V4.82763C17.7429 4.95835 18.7193 5.23274 19.6415 5.64233L21.0353 3.22468ZM24.0136 9.25072L26.4354 7.8511C25.6095 6.6316 24.5887 5.55649 23.414 4.66887L22.0146 7.09488C22.7776 7.71717 23.4504 8.44275 24.0136 9.25072ZM15.35 25.8916C12.5462 25.8916 9.85711 24.7765 7.87446 22.7916C5.89181 20.8066 4.77797 18.1145 4.77797 15.3074C4.77797 10.3647 8.16481 6.22349 12.7401 5.06073C13.4294 4.88555 13.9604 4.29459 13.9604 3.58337C13.9604 2.74285 13.2296 2.08088 12.4095 2.26536C6.44836 3.60638 1.99585 8.93577 1.99585 15.3074C1.99567 17.0633 2.34099 18.8021 3.01211 20.4245C3.68323 22.0468 4.66699 23.5208 5.9072 24.7625C7.14742 26.0041 8.6198 26.989 10.2403 27.6609C11.8607 28.3328 13.5975 28.6785 15.3514 28.6783C21.4956 28.6783 26.659 24.5185 28.2118 18.8595C28.44 18.0277 27.7734 17.2585 26.9108 17.2585C26.2296 17.2585 25.655 17.7481 25.4565 18.3997C24.1354 22.7355 20.1132 25.8916 15.35 25.8916Z" fill="white"/>
<path d="M20 15.5C20 17.9853 17.9853 20 15.5 20C13.0147 20 11 17.9853 11 15.5C11 13.0147 13.0147 11 15.5 11C17.9853 11 20 13.0147 20 15.5Z" fill="white"/>
</svg>
