<svg width="32" height="32" viewBox="0 0 32 32" fill="none" xmlns="http://www.w3.org/2000/svg">
<mask id="mask0_43_3155" style="mask-type:alpha" maskUnits="userSpaceOnUse" x="1" y="1" width="30" height="30">
<rect x="1" y="1" width="30" height="30" fill="#D9D9D9"/>
</mask>
<g mask="url(#mask0_43_3155)">
<path d="M16.0017 29.2812C14.1672 29.2812 12.4439 28.9385 10.8316 28.253C9.21938 27.5675 7.81108 26.626 6.60675 25.4286C5.40244 24.2311 4.45335 22.8266 3.7595 21.215C3.06567 19.6034 2.71875 17.8857 2.71875 16.0618C2.71875 15.1939 2.79167 14.3364 2.9375 13.4893C3.08333 12.6423 3.32292 11.8125 3.65625 11L6 13.3438C5.88725 13.7869 5.80177 14.2352 5.74356 14.6887C5.68535 15.1422 5.65625 15.6001 5.65625 16.0625C5.65625 18.9327 6.66338 21.3638 8.67763 23.3558C10.6919 25.3478 13.1327 26.3438 16 26.3438C18.8828 26.3438 21.3275 25.3405 23.334 23.334C25.3405 21.3275 26.3438 18.888 26.3438 16.0156C26.3438 13.1432 25.3553 10.6986 23.3783 8.68163C21.4013 6.66471 18.9805 5.65625 16.116 5.65625C15.6637 5.65625 15.2029 5.68505 14.7338 5.74266C14.2646 5.80024 13.8013 5.8756 13.3438 5.96875L10.9688 3.59375C11.7396 3.34375 12.5417 3.13021 13.375 2.95312C14.2083 2.77604 15.0417 2.6875 15.875 2.6875C17.7135 2.6875 19.4492 3.03646 21.082 3.73438C22.7148 4.43229 24.1425 5.38476 25.3651 6.59178C26.5877 7.7988 27.5513 9.21113 28.2558 10.8288C28.9603 12.4464 29.3125 14.1724 29.3125 16.0069C29.3125 17.8414 28.9583 19.5645 28.25 21.1762C27.5417 22.7879 26.5885 24.1927 25.3906 25.3906C24.1927 26.5885 22.787 27.5365 21.1736 28.2344C19.5601 28.9323 17.8362 29.2812 16.0017 29.2812ZM7.61581 9.75C7 9.75 6.47779 9.53523 6.04919 9.10569C5.62056 8.67617 5.40625 8.1535 5.40625 7.53769C5.40625 6.92188 5.62071 6.40226 6.04962 5.97884C6.47854 5.55545 6.99937 5.34375 7.61212 5.34375C8.22487 5.34375 8.75 5.55625 9.1875 5.98125C9.625 6.40623 9.84375 6.92228 9.84375 7.52941C9.84375 8.15563 9.62421 8.68229 9.18513 9.10938C8.74604 9.53646 8.22294 9.75 7.61581 9.75Z" fill="white"/>
</g>
</svg>
