<svg width="32" height="32" viewBox="0 0 32 32" fill="none" xmlns="http://www.w3.org/2000/svg">
<mask id="mask0_5_6644" style="mask-type:alpha" maskUnits="userSpaceOnUse" x="1" y="1" width="30" height="30">
<rect x="1" y="1" width="30" height="30" fill="#D9D9D9"/>
</mask>
<g mask="url(#mask0_5_6644)">
<path d="M8.86046 25.3413L12.3412 23.9255C12.0383 23.0216 11.7839 22.1034 11.578 21.1707C11.3721 20.238 11.2202 19.2989 11.1225 18.3534L9.19699 19.6154C9.08482 19.6955 9.0007 19.7877 8.94461 19.8918C8.88851 19.996 8.86046 20.1122 8.86046 20.2404V25.3413ZM13.3028 23.7885H18.697C19.1073 22.6074 19.4334 21.4115 19.6754 20.2007C19.9174 18.99 20.0384 17.8061 20.0384 16.649C20.0384 14.6058 19.7507 12.7981 19.1754 11.226C18.6001 9.65385 17.5416 7.99118 15.9999 6.23797C14.4582 7.99118 13.3997 9.65385 12.8244 11.226C12.2491 12.7981 11.9614 14.6058 11.9614 16.649C11.9614 17.8061 12.0824 18.99 12.3244 20.2007C12.5664 21.4115 12.8925 22.6074 13.3028 23.7885ZM15.9999 16.4808C15.5079 16.4808 15.0965 16.3153 14.7655 15.9844C14.4346 15.6534 14.2691 15.242 14.2691 14.75C14.2691 14.258 14.4346 13.8466 14.7655 13.5156C15.0965 13.1847 15.5079 13.0192 15.9999 13.0192C16.4919 13.0192 16.9033 13.1847 17.2343 13.5156C17.5652 13.8466 17.7307 14.258 17.7307 14.75C17.7307 15.242 17.5652 15.6534 17.2343 15.9844C16.9033 16.3153 16.4919 16.4808 15.9999 16.4808ZM23.1393 25.3413V20.2644C23.1393 20.1362 23.1113 20.016 23.0552 19.9038C22.9991 19.7917 22.915 19.6955 22.8028 19.6154L20.8773 18.3534C20.7796 19.2989 20.6077 20.3221 20.3617 21.4231C20.1157 22.5241 19.8813 23.3662 19.6586 23.9495L23.1393 25.3413ZM15.9999 4.87741C17.7563 6.57612 19.0287 8.3778 19.8172 10.2824C20.6057 12.1871 20.9999 14.2853 20.9999 16.5769C20.9999 16.6827 21.0039 16.7929 21.0119 16.9075C21.0199 17.0221 21.0159 17.1402 20.9999 17.262L23.3052 18.8462C23.544 18.9968 23.7363 19.1995 23.8821 19.4543C24.0279 19.7091 24.1009 19.9768 24.1009 20.2572V26.7452L19.1249 24.75H12.8509L7.89893 26.7452V20.2332C7.89893 19.9527 7.96783 19.6851 8.10564 19.4303C8.24348 19.1755 8.43178 18.9728 8.67055 18.8221L10.9999 17.238V16.5769C10.9999 14.2853 11.3941 12.1871 12.1826 10.2824C12.971 8.3778 14.2435 6.57612 15.9999 4.87741Z" fill="white"/>
</g>
</svg>
