<svg width="32" height="32" viewBox="0 0 32 32" fill="none" xmlns="http://www.w3.org/2000/svg">
<mask id="mask0_5_6635" style="mask-type:alpha" maskUnits="userSpaceOnUse" x="1" y="1" width="31" height="30">
<rect x="1.3999" y="1" width="30" height="30" fill="#D9D9D9"/>
</mask>
<g mask="url(#mask0_5_6635)">
<path d="M7.93115 25.5938L10.6812 24.4688C10.4728 23.8438 10.2905 23.2188 10.1343 22.5938C9.97803 21.9688 9.84782 21.3229 9.74365 20.6562L7.93115 21.875V25.5938ZM13.5874 24H19.2124C19.6707 22.6042 20.0145 21.3542 20.2437 20.25C20.4728 19.1458 20.5874 18.1562 20.5874 17.2813C20.5874 14.9896 20.2853 12.9896 19.6812 11.2812C19.077 9.57292 17.9832 7.84375 16.3999 6.09375C14.8166 7.84375 13.7228 9.57292 13.1187 11.2812C12.5145 12.9896 12.2124 14.9896 12.2124 17.2813C12.2124 18.1562 12.327 19.1458 12.5562 20.25C12.7853 21.3542 13.1291 22.6042 13.5874 24ZM16.3999 16.8125C15.8374 16.8125 15.3634 16.6198 14.978 16.2344C14.5926 15.849 14.3999 15.3646 14.3999 14.7813C14.3999 14.2188 14.5926 13.7448 14.978 13.3594C15.3634 12.974 15.8374 12.7812 16.3999 12.7812C16.9624 12.7812 17.4364 12.974 17.8218 13.3594C18.2072 13.7448 18.3999 14.2188 18.3999 14.7813C18.3999 15.3646 18.2072 15.849 17.8218 16.2344C17.4364 16.6198 16.9624 16.8125 16.3999 16.8125ZM24.8687 25.5938V21.875L23.0562 20.6562C22.952 21.3229 22.8218 21.9688 22.6655 22.5938C22.5093 23.2188 22.327 23.8438 22.1187 24.4688L24.8687 25.5938ZM16.3999 1.78125C18.9416 4.13542 20.7697 6.53125 21.8843 8.96875C22.9989 11.4062 23.5562 14.0521 23.5562 16.9062V17.4062L26.5249 19.4062C26.9416 19.6771 27.2645 20.026 27.4937 20.4531C27.7228 20.8802 27.8374 21.3438 27.8374 21.8438V29.9375L20.3999 26.9688H12.3999L4.9624 29.9375V21.8438C4.9624 21.3438 5.07699 20.8802 5.30615 20.4531C5.53532 20.026 5.85824 19.6771 6.2749 19.4062L9.2749 17.4062V17C9.2749 14.1042 9.83219 11.4323 10.9468 8.98438C12.0614 6.53646 13.8791 4.13542 16.3999 1.78125Z" fill="white"/>
</g>
</svg>
