<svg width="66" height="66" viewBox="0 0 66 66" fill="none" xmlns="http://www.w3.org/2000/svg">
<path fill-rule="evenodd" clip-rule="evenodd" d="M65.9241 39.9653L65.6586 40.8284C65.6586 40.8948 65.6586 40.8948 65.5922 40.9611C64.9283 43.2183 64.0652 45.3427 63.003 47.3344C61.2769 50.5874 58.9533 53.5748 56.2977 56.0976C53.1775 59.0186 49.4597 61.3422 45.3436 62.8691C41.6258 64.2633 37.6425 65.0599 33.46 65.0599C32.8625 65.0599 32.265 65.0599 31.6675 64.9935C30.8044 64.9271 29.9414 64.8608 29.0783 64.728C23.4353 63.9977 18.2569 61.8733 13.8753 58.6867C13.4769 58.3547 13.0786 58.0892 12.6803 57.7573C13.4769 57.0934 15.0703 57.027 15.0703 57.027L12.813 55.2345L7.16999 52.1807C6.10777 50.7865 5.11194 49.326 4.24888 47.7991C4.04972 47.4008 3.85055 47.0688 3.65139 46.6705C3.65139 46.6705 3.65139 46.6705 3.65139 46.6041C3.45222 46.2058 3.25306 45.8074 3.05389 45.4091C2.45639 44.1478 1.99166 42.82 1.52694 41.4258C1.19499 40.43 0.929448 39.4342 0.730281 38.4384C0.597504 37.7081 0.464722 36.9779 0.331944 36.2476C0.132778 34.7207 0 33.1274 0 31.5341C0 31.1357 0 30.8038 0 30.4055C0 29.8744 0.0663929 29.2769 0.0663929 28.7458C0.132782 28.2147 0.199158 27.6836 0.199158 27.1525C0.199158 27.0861 0.199158 27.0861 0.199158 27.0197C0.331936 26.2894 0.398329 25.5592 0.597496 24.8289C0.796662 23.7667 1.06223 22.7709 1.39417 21.7751C1.7925 20.3809 2.32361 18.9868 2.92111 17.7254C3.51861 16.464 4.18249 15.2027 4.91277 14.0077C7.16999 12.8127 8.63055 12.1488 8.63055 12.1488C8.63055 12.1488 47.6008 4.44784 48.1983 3.78397C48.7958 3.12009 51.7169 3.51841 51.7169 3.51841C53.5758 4.71339 55.2355 6.10753 56.8289 7.63445C57.2272 7.96639 57.5591 8.36472 57.8911 8.69666C58.0902 8.96221 58.3558 9.22777 58.555 9.49332C58.9533 9.95804 59.2852 10.3564 59.6836 10.8211C61.0114 12.5472 62.2063 14.3396 63.2022 16.2649C63.6005 16.9951 63.9325 17.7918 64.2644 18.5221C67.2519 30.2727 63.5341 40.2973 63.5341 40.2973C64.53 40.0981 65.3266 40.0317 65.9241 39.9653Z" fill="url(#paint0_radial_47_6217)"/>
<path fill-rule="evenodd" clip-rule="evenodd" d="M65.9241 39.9653L65.6586 40.8284C65.6586 40.8948 65.6586 40.8948 65.5922 40.9611C64.9283 43.2183 64.0652 45.3427 63.003 47.3344C61.2769 50.5874 58.9533 53.5748 56.2977 56.0976C53.1775 59.0186 49.4597 61.3422 45.3436 62.8691C41.6258 64.2633 37.6425 65.0599 33.46 65.0599C32.8625 65.0599 32.265 65.0599 31.6675 64.9935C30.8044 64.9271 29.9414 64.8608 29.0783 64.728C23.4353 63.9977 18.2569 61.8733 13.8753 58.6867C13.4769 58.3547 13.0786 58.0892 12.6803 57.7573C13.4769 57.0934 15.0703 57.027 15.0703 57.027L12.813 55.2345L7.16999 52.1807C6.10777 50.7865 5.11194 49.326 4.24888 47.7991C4.04972 47.4008 3.85055 47.0688 3.65139 46.6705C3.65139 46.6705 3.65139 46.6705 3.65139 46.6041C3.45222 46.2058 3.25306 45.8074 3.05389 45.4091C2.45639 44.1478 1.99166 42.82 1.52694 41.4258C1.19499 40.43 0.929448 39.4342 0.730281 38.4384C0.597504 37.7081 0.464722 36.9779 0.331944 36.2476C0.132778 34.7207 0 33.1274 0 31.5341C0 31.1357 0 30.8038 0 30.4055C0 29.8744 0.0663929 29.2769 0.0663929 28.7458C0.132782 28.2147 0.199158 27.6836 0.199158 27.1525C0.199158 27.0861 0.199158 27.0861 0.199158 27.0197C0.331936 26.2894 0.398329 25.5592 0.597496 24.8289C0.796662 23.7667 1.06223 22.7709 1.39417 21.7751C1.7925 20.3809 2.32361 18.9868 2.92111 17.7254C3.51861 16.464 4.18249 15.2027 4.91277 14.0077C7.16999 12.8127 8.63055 12.1488 8.63055 12.1488C8.63055 12.1488 47.6008 4.44784 48.1983 3.78397C48.7958 3.12009 51.7169 3.51841 51.7169 3.51841C53.5758 4.71339 55.2355 6.10753 56.8289 7.63445C57.2272 7.96639 57.5591 8.36472 57.8911 8.69666C58.0902 8.96221 58.3558 9.22777 58.555 9.49332C58.9533 9.95804 59.2852 10.3564 59.6836 10.8211C61.0114 12.5472 62.2063 14.3396 63.2022 16.2649C63.6005 16.9951 63.9325 17.7918 64.2644 18.5221C67.2519 30.2727 63.5341 40.2973 63.5341 40.2973C64.53 40.0981 65.3266 40.0317 65.9241 39.9653Z" fill="url(#paint1_radial_47_6217)"/>
<path fill-rule="evenodd" clip-rule="evenodd" d="M64.9949 31.6006C64.9949 32.7956 64.9285 33.9906 64.7958 35.1192C64.5966 36.9116 64.2646 38.6377 63.7999 40.2974C63.7999 40.3638 63.7999 40.3638 63.7999 40.4302C63.2024 42.5546 62.3394 44.5462 61.3435 46.4051C59.6838 49.4589 57.5594 52.2472 55.0366 54.6372C52.1155 57.3591 48.5969 59.5499 44.7463 61.0104C41.2941 62.3382 37.5099 63.0684 33.593 63.0684C33.0619 63.0684 32.4644 63.0684 31.9333 63.002C31.1366 62.9357 30.2735 62.8693 29.4769 62.8029C24.1658 62.139 19.3194 60.081 15.2033 57.0935C14.6058 56.6288 14.0083 56.1641 13.4108 55.6994C13.278 55.5666 13.0788 55.4339 12.9461 55.3011C11.4855 53.9733 10.0913 52.5792 8.89633 50.9859C7.9005 49.7245 6.97105 48.3303 6.10799 46.8698C5.90882 46.5379 5.70967 46.2059 5.57689 45.8076C5.57689 45.8076 5.57689 45.8076 5.57689 45.7412C5.37772 45.3429 5.17856 45.011 5.04579 44.6126C4.51468 43.4177 4.04995 42.1563 3.65162 40.8949C3.38606 39.9655 3.1205 39.036 2.92133 38.1066C2.78856 37.4427 2.65578 36.7789 2.58939 36.0486C2.39022 34.5881 2.25745 33.1275 2.25745 31.6006C2.25745 31.2687 2.25745 30.8703 2.25745 30.5384C2.25745 30.0073 2.32384 29.4762 2.32384 29.0115C2.39023 28.4804 2.39022 28.0157 2.4566 27.4846C2.4566 27.4182 2.4566 27.4182 2.4566 27.3518C2.52299 26.6879 2.65577 25.9576 2.78855 25.2938C2.98772 24.298 3.25327 23.3685 3.51883 22.3727C3.91716 21.045 4.38189 19.7836 4.97939 18.5222C5.57689 17.1944 6.30716 15.8667 7.10382 14.6053C7.63494 13.7423 8.23244 12.8792 8.89633 12.0826C9.75939 10.954 10.7552 9.89178 11.751 8.89597C17.3941 3.38578 25.1616 0 33.6594 0C33.9913 0 34.3233 0 34.6552 0C34.9871 0 35.3855 4.051e-06 35.7174 0.0663919C36.7133 0.13278 37.6427 0.265555 38.6385 0.398331C38.6385 0.398331 38.6385 0.398331 38.7049 0.398331C39.5016 0.531107 40.2983 0.66388 41.0285 0.863044C42.0244 1.1286 43.0202 1.39415 43.9496 1.72609C44.6135 1.92525 45.211 2.19081 45.8749 2.45636C46.3397 2.65552 46.8044 2.85468 47.2691 3.05384C47.3355 3.12023 47.4019 3.12023 47.5347 3.18662C50.5885 4.64715 53.3769 6.63879 55.7669 9.02875C56.0988 9.36069 56.4308 9.69263 56.7627 10.0246C56.9619 10.2901 57.2274 10.4893 57.4266 10.7548C57.7585 11.1532 58.1569 11.6179 58.4888 12.0162C59.7502 13.6095 60.8124 15.3356 61.7419 17.1281C62.8041 19.2525 63.6671 21.5097 64.2646 23.8332C64.663 25.2938 64.8621 26.8207 65.0613 28.414C64.9285 29.5426 64.9949 30.5384 64.9949 31.6006Z" fill="url(#paint2_radial_47_6217)"/>
<path fill-rule="evenodd" clip-rule="evenodd" d="M18.1905 19.0533C18.1905 19.0533 17.3274 20.9121 18.0577 22.771C18.7216 24.6298 20.7132 23.4349 23.0368 22.771C25.3604 22.1071 27.7505 19.7171 29.2774 18.1902C30.8043 16.6633 32.2649 14.6053 32.1321 12.6136C31.9993 10.622 29.8749 9.29424 29.8749 9.29424C29.8749 9.29424 30.6716 8.29842 30.0077 12.2817C29.3438 16.1986 28.4807 17.6591 27.6177 18.2566C26.7546 18.8541 24.2318 20.381 22.8377 21.244C21.4435 22.1071 19.8502 22.9701 18.9207 22.771C17.9249 22.439 17.4602 20.381 18.1905 19.0533Z" fill="url(#paint3_radial_47_6217)"/>
<path fill-rule="evenodd" clip-rule="evenodd" d="M22.4394 17.6591C22.4394 17.6591 21.2444 18.7213 21.5763 19.5843C21.9083 20.4474 24.1655 19.9163 25.626 18.0574C27.0866 16.1986 25.958 14.738 25.958 14.738C25.958 14.738 25.4269 17.7919 24.0327 18.323C22.6385 18.8541 22.1738 18.6549 22.1738 18.6549C22.1738 18.6549 21.8419 18.3894 22.4394 17.6591Z" fill="url(#paint4_radial_47_6217)"/>
<path fill-rule="evenodd" clip-rule="evenodd" d="M18.8547 18.987C18.8547 18.987 19.9834 17.6592 21.3111 16.4643C22.6389 15.2029 24.8961 14.7382 24.8961 14.7382C24.8961 14.7382 23.5683 14.0079 21.8422 15.0037C20.1825 16.0659 18.8547 18.987 18.8547 18.987Z" fill="url(#paint5_radial_47_6217)"/>
<path fill-rule="evenodd" clip-rule="evenodd" d="M14.0746 19.0531C14.0746 19.0531 16.7965 16.0657 20.0496 14.8043C23.3026 13.5429 24.4313 13.1446 25.8918 11.9496C27.3524 10.7546 28.9457 9.8252 28.9457 9.8252C28.9457 9.8252 25.759 9.95797 20.9126 13.0782C16.0663 16.0656 14.0746 18.0573 14.0746 19.0531Z" fill="url(#paint6_radial_47_6217)"/>
<path fill-rule="evenodd" clip-rule="evenodd" d="M7.50244 18.4556C7.50244 18.4556 12.1497 13.8084 15.801 11.9496C19.4524 10.0907 21.9088 8.96214 25.1619 8.0991C28.4149 7.30245 33.4605 5.84192 33.4605 5.84192L34.3899 5.3772C34.3899 5.3772 23.9669 5.57636 17.1952 9.69241C10.4236 13.8085 7.50244 18.4556 7.50244 18.4556Z" fill="url(#paint7_radial_47_6217)"/>
<path fill-rule="evenodd" clip-rule="evenodd" d="M13.145 23.8332C13.145 23.8332 13.9417 30.2728 15.0703 30.5384C16.1989 30.8039 20.1823 30.8039 26.1573 27.7501C32.1323 24.6962 33.3272 25.4265 36.6467 22.0407C39.9661 18.6549 41.3603 14.8044 42.3561 12.2817C43.4184 9.75896 43.6839 6.8379 43.352 5.97485C43.352 5.97485 44.4806 6.63874 44.4806 9.16148C44.4806 11.6842 43.7503 15.933 42.6881 18.323C41.6259 20.7793 38.8375 24.6298 35.5181 26.4887C32.1986 28.3475 25.4934 31.9989 18.9873 31.9325C12.4148 31.8661 13.477 31.4014 12.8131 30.0736C12.0828 28.7459 13.145 23.8332 13.145 23.8332Z" fill="url(#paint8_radial_47_6217)"/>
<path opacity="0.5" fill-rule="evenodd" clip-rule="evenodd" d="M2.92126 29.2768C2.92126 29.2768 4.11627 31.866 4.71377 34.2559C5.37766 36.6459 5.24488 40.6292 7.96682 41.293C10.6888 41.8905 14.4729 43.683 15.8671 43.2183C17.3276 42.7536 22.6388 41.8241 25.6263 42.4216C28.6138 43.0191 33.9913 42.6872 35.8501 41.7577C37.709 40.8283 41.8251 38.372 43.7504 37.6417C45.6757 36.9114 48.3312 34.787 50.6549 32.4634C52.9785 30.1399 52.9121 27.4844 53.5096 26.1566C54.1071 24.8288 55.2357 19.5842 55.1029 17.1942C54.9701 14.8043 53.5096 10.3563 53.5096 10.3563L52.1818 8.96216C52.1818 8.96216 53.8415 15.0699 53.1112 19.4514C52.381 23.7667 53.0449 25.5591 50.0574 29.6752C47.0699 33.8576 42.821 37.1106 38.1074 38.6375C33.3938 40.2308 30.3399 40.0317 25.4935 40.4964C20.9126 40.8947 15.2032 40.6292 12.946 40.0317C10.8879 39.5006 8.16598 38.1728 6.10792 34.8534C3.91709 31.4012 2.92126 29.2768 2.92126 29.2768Z" fill="#7D72B3"/>
<path opacity="0.4" fill-rule="evenodd" clip-rule="evenodd" d="M13.3442 22.5054C13.3442 22.5054 13.8089 29.4761 14.672 30.0736C15.535 30.6711 17.4603 30.9366 19.1864 30.3391C20.9789 29.7417 26.9539 27.75 28.0161 27.1525C29.0783 26.555 35.3853 23.3684 36.6467 22.3726C37.9081 21.4432 39.5678 18.0574 40.1653 17.3935C40.7628 16.7296 42.2897 12.5472 42.6881 10.9539C43.1528 9.36058 43.4183 7.50174 43.4183 7.50174C43.4183 7.50174 43.5511 6.63868 42.8208 6.30674C42.0906 6.04119 41.9578 6.30674 41.9578 6.30674C41.9578 6.30674 41.825 7.36895 41.1611 10.3564C40.4972 13.3439 31.6011 23.5676 27.0867 26.2895C22.5722 28.945 18.3234 29.0778 16.7964 28.8786C15.2031 28.6794 13.2778 23.7004 13.3442 22.5054Z" fill="#7D72B3"/>
<path opacity="0.4" fill-rule="evenodd" clip-rule="evenodd" d="M13.1453 23.8333C13.1453 23.8333 13.3445 19.5181 14.4731 18.0575C15.6017 16.597 19.3859 13.6096 21.5767 12.481C23.8339 11.3524 27.0206 9.75906 28.1492 9.49351C29.2778 9.22796 30.0745 9.49351 30.0745 9.49351C30.0745 9.49351 28.7467 8.76322 25.6264 9.55988C22.5061 10.3565 18.9875 13.2112 17.2614 14.1407C15.5353 15.0037 12.9461 17.1945 12.2823 18.3231C11.6848 19.3189 13.1453 23.8333 13.1453 23.8333Z" fill="#7D72B3"/>
<path opacity="0.4" fill-rule="evenodd" clip-rule="evenodd" d="M5.44397 19.2525L15.0704 10.8212L21.0454 8.09934C21.0454 8.09934 26.954 6.10771 29.6759 5.44383C32.3978 4.77995 38.4392 4.64717 38.4392 4.64717L41.6259 4.97911C41.6259 4.97911 36.1156 1.99166 27.8834 4.18245C19.7176 6.37325 14.2737 9.16155 11.8837 11.4187C9.56009 13.6095 5.90869 18.1239 5.44397 19.2525Z" fill="#7D72B3"/>
<path fill-rule="evenodd" clip-rule="evenodd" d="M5.17856 19.5842C5.17856 19.5842 0.000231504 25.8246 2.52301 29.6751C5.04578 33.5256 6.1744 39.1022 6.90468 40.3636C7.63495 41.6249 15.9999 43.6166 17.726 43.2182C19.4522 42.8199 23.6347 41.7577 26.3566 42.7535C26.3566 42.7535 31.203 42.3552 32.5308 42.3552C33.9249 42.3552 36.4477 41.1602 37.0452 40.8947C37.6427 40.6291 40.8958 39.5669 42.5555 38.903C44.2152 38.2391 46.9371 36.1147 47.9994 35.3181C49.0616 34.455 51.9163 31.0693 52.5138 30.0071C53.0449 28.9449 54.7047 22.8372 55.103 19.9161C55.5013 16.995 54.3063 11.4185 53.3105 9.49323C52.3146 7.56798 49.3935 5.7755 49.3935 5.7755L49.5927 4.91245L51.9163 3.51831C51.9163 3.51831 55.966 8.76295 56.298 13.3437C56.4971 15.9992 57.161 21.7086 56.4308 24.1649C55.8997 26.1566 53.9744 31.8659 52.2483 33.9239C50.5885 35.982 45.543 41.2266 42.8874 42.2888C40.2319 43.2846 32.2652 44.6788 27.618 44.7451C24.1658 44.8115 16.5974 44.214 12.8797 44.0813C9.1619 43.9485 6.50635 41.6249 5.0458 40.4299C3.58524 39.235 4.04996 36.0483 2.5894 33.4592C1.06246 30.9365 0.265791 27.5507 0.597735 25.6919C0.929679 23.9658 5.17856 19.5842 5.17856 19.5842Z" fill="url(#paint9_radial_47_6217)"/>
<path fill-rule="evenodd" clip-rule="evenodd" d="M14.2739 43.4174C13.4772 43.2183 12.7469 42.82 11.9503 42.6208C11.4855 42.488 11.0872 42.4216 10.6225 42.2889C10.1578 42.1561 9.69304 42.0897 9.22832 42.0897C8.29888 42.0233 7.36942 41.8241 6.77192 41.0939C6.24081 40.43 5.90888 39.6997 5.70972 38.8367C5.37777 37.7081 5.1122 36.5795 4.78026 35.5173C4.44831 34.4551 4.04998 33.5921 3.45248 32.6626C3.25331 32.3307 3.05415 31.9324 2.78859 31.6004C2.58943 31.2685 2.2575 31.0029 2.05833 30.6046C1.59361 29.6752 1.46082 28.6794 1.46082 27.6171C1.46082 27.086 1.59361 26.5549 1.72639 26.0238C1.85916 25.36 2.05833 24.7625 2.39028 24.165C2.72222 23.6339 2.98777 23.0364 3.31972 22.5053C4.04999 21.2439 4.78027 19.9825 5.64333 18.8539C6.77194 17.4598 8.03333 16.0657 9.3611 14.8043C10.0914 14.074 10.9544 13.4102 11.8175 12.7463C12.5478 12.2152 13.2116 11.6177 13.8755 11.0866C15.0705 10.1572 16.4647 9.55965 17.8589 8.89577C19.5186 8.09912 21.1783 7.30247 22.9044 6.70498C24.9625 5.97472 27.0205 5.37722 29.145 4.9125C31.6014 4.44779 34.1241 4.31502 36.5805 4.31502C37.9083 4.31502 39.3689 4.18224 40.6966 4.64696C41.4269 4.91251 42.29 5.24445 42.8875 5.64277C43.0203 5.77555 43.0866 5.77555 43.2194 5.90832C43.2858 5.97471 43.2858 6.1075 43.3522 6.17389C43.485 6.43944 43.5514 6.77137 43.5514 7.03692C43.5514 7.30247 43.4186 7.56803 43.4186 7.83358C43.4186 8.23191 43.2858 8.63023 43.2858 9.02856C43.2858 9.49327 43.153 9.82521 43.0866 10.2899C42.9539 11.0866 42.8211 11.8832 42.4891 12.6799C42.0244 13.8085 41.6925 15.0035 41.2278 16.0657C41.095 16.3976 40.8294 16.6632 40.6302 16.9951C40.4975 17.327 40.3647 17.5262 40.1655 17.8581C39.8336 18.3892 39.568 18.9867 39.1697 19.4515C38.373 20.5137 37.6428 21.6422 36.5805 22.5053C35.3191 23.5011 33.9914 24.3642 32.5972 25.0944C31.6678 25.5591 30.7383 25.9575 29.8089 26.4222C29.0122 26.8205 28.1491 27.2852 27.2861 27.6835C25.1617 28.6794 22.838 29.4096 20.5808 30.1399C19.9169 30.339 19.3194 30.5382 18.6555 30.671C18.058 30.7374 17.3278 30.9365 16.7303 30.9365C16.0664 30.9365 15.4025 30.7374 14.7386 30.5382C13.6764 30.2063 13.5436 29.0113 13.4772 28.0155C13.4108 27.2852 13.3444 26.5549 13.2116 25.8911C13.0789 25.2936 13.0789 24.7625 12.9461 24.165C12.8133 23.5675 12.7469 22.97 12.7469 22.3725C12.7469 21.5759 13.0125 20.912 13.2116 20.1153C13.3444 19.6506 13.3444 19.1195 13.61 18.6548C13.8755 17.9909 14.4067 17.3934 15.0042 16.9287C15.5353 16.464 16.1328 15.9329 16.6639 15.4682C16.9958 15.1362 17.3941 14.9371 17.7261 14.6715C18.3236 14.2068 18.9875 13.8085 19.7177 13.4765C20.2489 13.211 20.6472 12.7463 21.1783 12.4143C21.7094 12.0824 22.3069 11.7505 22.838 11.4185C23.3028 11.153 23.8339 11.0202 24.365 10.821C24.7633 10.6883 25.1616 10.4227 25.56 10.2899C25.9583 10.1571 26.3566 10.0908 26.755 9.95798C27.1533 9.82521 27.4853 9.69243 27.8836 9.55965C28.3483 9.42688 28.813 9.2941 29.2114 9.2941C30.0744 9.2941 30.4727 9.69243 30.7383 10.5555C31.0702 11.6841 30.6719 12.6799 30.2736 13.7421C29.9416 14.6051 29.5433 15.4018 29.2778 16.2648C28.8794 17.3934 27.8172 17.9909 26.9542 18.7876C26.0247 19.5842 24.8961 20.3809 23.8339 20.8456C23.5019 20.9784 23.1036 21.1111 22.7716 21.2439C22.5061 21.3767 22.1741 21.5759 21.9086 21.7086C21.7094 21.8414 21.5766 21.9742 21.3775 22.107C21.2447 22.2397 21.0455 22.2397 20.8464 22.3725C20.448 22.6381 20.0497 22.9036 19.585 23.1028C19.1867 23.3019 18.3236 23.4347 18.058 22.9036C17.9253 22.6381 17.9253 22.3061 17.8589 22.0406C17.7925 21.7086 17.7925 21.3767 17.7925 21.0448C17.7925 20.7128 17.8589 20.4473 17.9253 20.1153C17.9917 19.7834 18.1244 19.5178 18.2572 19.1859C18.5892 18.2565 19.1866 17.5926 19.7177 16.8623C20.0497 16.3976 20.3816 15.9329 20.78 15.4682C21.3775 14.8043 22.2405 14.5387 23.0372 14.2732C23.7675 14.074 24.8961 13.8749 25.6264 14.2732C26.2239 14.6715 25.8255 15.4682 25.6264 15.9329C25.4936 16.1984 25.4272 16.464 25.2944 16.7295C25.228 16.9287 25.228 17.1943 25.0953 17.3934C24.8297 17.7918 24.365 18.0573 23.9667 18.3892C23.8339 18.522 23.5683 18.7212 23.3691 18.7876C23.1036 18.854 22.838 18.854 22.5725 18.9203C22.4397 18.9203 22.3733 19.1195 22.2405 19.0531C22.1078 18.9867 22.1078 18.854 22.1078 18.7212C22.1078 18.5884 22.1741 18.4556 22.2405 18.3229C22.2405 18.3229 22.2405 18.2565 22.2405 18.1901C22.3733 17.7917 22.838 17.327 23.0372 16.9951C23.3691 17.1279 23.17 17.327 23.1036 17.5262C23.0372 17.659 23.0372 17.7917 23.0372 17.9245C23.0372 18.0573 22.838 18.2565 22.9708 18.3892C23.0372 18.4556 23.3691 18.3229 23.4355 18.3229C24.2322 18.0573 24.6969 17.1943 24.9625 16.464C25.0953 15.9329 25.0953 15.1362 24.5641 14.8707C24.1658 14.7379 23.6347 14.8043 23.2364 14.8043C21.7094 14.8043 20.78 16.464 19.9169 17.5262C19.3858 18.2565 18.9211 19.0531 18.5892 19.9162C18.39 20.5136 18.2572 21.1111 18.1244 21.7086C17.9916 22.1733 17.8589 22.8372 18.5228 22.7708C18.9211 22.7045 19.3194 22.5053 19.7177 22.3725C20.0497 22.2397 20.3153 22.1733 20.6472 21.9742C21.1119 21.7086 21.7094 21.6422 22.1741 21.3767C22.5725 21.1775 22.9708 20.9784 23.3691 20.7792C24.365 20.2481 25.4272 19.2523 26.0911 18.3892C26.5558 17.7918 27.2861 17.327 27.8172 16.7959C28.4147 16.2648 28.6802 15.5346 29.0786 14.8707C29.4769 14.1404 29.6761 13.4765 29.8753 12.7463C30.008 12.0824 30.4728 11.2857 30.2072 10.5555C30.008 9.8252 29.0122 9.8252 28.4147 9.89159C27.8836 9.95798 27.3525 10.0908 26.8214 10.2235C25.8919 10.5555 25.0289 10.9538 24.1658 11.3521C22.7716 11.9496 21.5767 12.8791 20.3153 13.6757C19.6514 14.074 18.9211 14.406 18.3236 14.8707C17.8589 15.2026 17.4605 15.6673 16.9958 15.9993C16.6639 16.2648 16.4647 16.5968 16.0664 16.7959C15.6016 17.1279 15.2033 17.4598 14.8714 17.8581C14.6058 18.1901 14.2739 18.6548 14.1411 19.0531C14.0083 19.3851 14.1411 19.717 14.1411 20.0489C14.1411 20.5137 14.0083 20.9784 14.0083 21.4431C14.0083 21.9078 14.0083 22.4389 14.0083 22.9036C14.0083 23.8994 13.8755 24.8289 13.8755 25.7583C13.8755 26.3558 14.0083 27.0197 14.1411 27.5508C14.2075 28.0155 14.4066 28.4138 14.473 28.8785C14.473 29.2104 14.5394 29.6088 14.805 29.8079C14.9378 29.8743 15.1369 29.9407 15.2697 30.0071C15.4025 30.0735 15.5353 30.1399 15.668 30.1399C15.7344 30.1399 15.8008 30.2063 15.9336 30.2063C16 30.2063 16.0664 30.3391 16.0664 30.3391C16.1991 30.4054 16.4647 30.3391 16.5975 30.3391C16.9958 30.2727 17.3941 30.2063 17.7261 30.0735C18.7219 29.9407 19.6514 29.9407 20.5808 29.6088C21.643 29.2105 22.6389 28.613 23.6347 28.2146C25.1617 27.5508 26.8877 27.086 28.3483 26.2894C29.0122 25.9575 29.7425 25.5591 30.4064 25.2936C32.0661 24.5633 33.7922 23.9658 35.1864 22.8372C35.7175 22.4389 36.1822 21.9078 36.6469 21.4431C36.9125 21.1775 37.178 20.912 37.4436 20.58C38.1739 19.6506 38.8377 18.6548 39.3689 17.659C39.6344 17.2606 39.7672 16.7295 39.9664 16.3312C40.3647 15.6673 40.763 15.0699 41.1614 14.406C41.4933 13.7421 41.6925 13.0782 41.8916 12.3479C42.0244 11.8832 42.1572 11.5513 42.0908 11.0866C42.0908 10.1572 42.1572 9.3605 42.5555 8.49746C42.7547 8.03275 43.0866 7.36887 42.8875 6.83777C42.8211 6.57222 42.4228 6.50582 42.2236 6.43944C41.6925 6.24027 41.1614 6.10748 40.6302 5.90832C40.1655 5.70916 39.8336 5.44361 39.3025 5.37723C39.1033 5.31084 38.9041 5.31083 38.705 5.31083C38.1739 5.31083 37.7755 5.70916 37.2444 5.64277C37.1116 5.64277 36.9789 5.57638 36.7797 5.57638C36.5141 5.50999 36.2486 5.57638 35.983 5.57638C35.3855 5.57638 34.8544 5.44362 34.2569 5.44362C33.593 5.44362 32.9291 5.50999 32.2653 5.57638C31.6014 5.64277 31.0039 5.57638 30.34 5.57638C29.9416 5.57638 29.6761 5.77555 29.3441 5.90832C29.0122 6.0411 28.6802 6.10748 28.3483 6.24026C28.0164 6.37304 27.7508 6.43944 27.4189 6.50583C26.9541 6.50583 26.5558 6.43942 26.0911 6.5722C25.56 6.70498 25.0289 6.90415 24.4978 7.10331C23.1036 7.7008 21.7094 8.49745 20.2489 8.96216C19.5186 9.16133 18.7883 9.2941 18.1244 9.55965C17.8589 9.69243 17.6597 9.82521 17.3941 10.0244C16.9294 10.3563 16.4647 10.6219 16 10.8874C14.9378 11.5513 13.9419 12.2816 12.8797 13.0782C11.6847 13.9413 10.5561 14.8707 9.56026 15.9993C7.83415 17.9909 6.04165 19.9825 4.51471 22.1733C3.78443 23.1692 2.98776 24.2978 2.52304 25.4264V25.4927C2.25749 26.1566 2.12471 26.8205 2.1911 27.5508C2.1911 27.5508 2.1911 27.5508 2.1911 27.6171C2.25749 28.2146 2.52305 28.8785 2.72222 29.4096C2.98778 29.9407 3.12054 30.4718 3.45248 31.0029C3.78443 31.534 4.24915 31.9987 4.44831 32.5962C4.71387 33.3265 4.97943 34.1232 5.24499 34.9198C5.51054 35.8492 5.7761 36.8451 5.90888 37.8409C6.04165 38.4384 6.10804 39.1022 6.43998 39.6333C6.83831 40.43 7.70137 40.6955 8.43164 41.1603C8.82998 41.4258 9.02915 41.4922 9.49387 41.4922C10.0914 41.5586 10.7553 41.6914 11.3528 41.8905C12.6142 42.2889 13.9419 42.5544 15.2697 42.5544C16.0664 42.5544 16.863 42.3552 17.5933 42.2225C18.3236 42.1561 19.0539 42.0897 19.7841 41.9569C20.448 41.8241 21.1119 41.6914 21.7758 41.6914C22.4397 41.6914 23.17 41.8241 23.7675 41.9569C24.8961 42.2889 25.9583 42.488 27.0869 42.488C27.8172 42.488 28.4811 42.2889 29.2114 42.2889C29.8753 42.2225 30.4728 42.3552 31.1366 42.4216C32.2653 42.488 33.3939 42.2225 34.4561 41.8241C35.1864 41.5586 35.7839 41.2266 36.4478 40.8283C36.9789 40.4964 37.51 40.43 38.0411 40.2972C39.1697 39.9653 40.2983 39.567 41.3605 38.9695C42.6883 38.1728 43.8169 37.0442 45.1447 36.2476C45.875 35.7828 46.738 35.4509 47.4683 34.9862C48.0658 34.5879 48.6633 34.1232 49.128 33.592C49.7255 32.9946 50.2566 32.3971 50.8541 31.7996C51.3189 31.3349 51.518 30.7374 51.7172 30.2063C52.1155 29.3432 52.2483 28.4802 52.3811 27.5508C52.5139 26.6213 52.9122 25.8247 53.3105 25.028C53.8416 23.9658 54.24 22.97 54.3063 21.775C54.3727 20.8456 54.5055 19.9826 54.5055 19.0531C54.5055 18.4556 54.4391 17.9245 54.3063 17.327C54.24 16.7959 54.1072 16.2648 54.0408 15.7337C53.908 15.0699 53.908 14.406 53.7752 13.7421C53.6425 13.211 53.5097 12.6135 53.3769 12.016C53.2441 11.6177 53.1113 11.2194 52.9786 10.821C52.713 10.1572 52.3147 9.49326 51.85 8.89577C51.6508 8.63022 51.3852 8.56385 51.1861 8.43107C50.9869 8.2983 50.9869 8.16552 50.7877 8.09913C50.5222 7.96636 50.2566 7.83358 49.9911 7.7008C49.5263 7.43525 49.0616 7.36887 48.5969 7.10331C48.1986 6.90415 47.8002 6.5722 47.4019 6.30665C46.9372 6.0411 46.4725 5.84195 46.0741 5.44362C45.6758 5.04529 45.4102 4.58057 45.0783 4.24864C44.68 3.85031 44.1489 3.58476 43.7505 3.25282C43.0202 2.65533 42.0908 2.58894 41.2941 2.257C40.8958 2.05784 40.4311 2.05784 40.0327 1.92506C39.5016 1.79229 39.1697 1.52674 38.6386 1.46035C38.1739 1.39396 37.7091 1.39396 37.178 1.26118C36.9125 1.1948 36.6469 1.12841 36.315 1.12841C35.7839 1.06202 35.1864 1.1284 34.6552 1.19479C34.1905 1.26118 33.6594 1.19479 33.1947 1.19479C32.7964 1.19479 32.3316 1.26118 31.9333 1.19479C30.7383 0.995628 29.4769 1.06202 28.2819 1.12841C27.1533 1.1948 26.0247 1.26118 24.9625 1.6595C24.033 1.99144 23.17 2.257 22.2405 2.58894C21.643 2.85449 21.1119 3.18643 20.5144 3.51837C19.1203 4.31502 17.8589 5.24445 16.5975 6.1075C15.1369 7.10331 13.7428 8.16551 12.3486 9.22771C11.4192 9.89159 10.4897 10.6219 9.62666 11.2857C9.22832 11.6177 8.82998 11.9496 8.49804 12.2816C9.36109 11.153 10.3569 10.0908 11.3528 9.09495C16.9958 3.58476 24.7633 0.198975 33.2611 0.198975C33.593 0.198975 33.925 0.198975 34.2569 0.198975C34.5889 0.198975 34.9872 0.198979 35.3191 0.265366C36.315 0.331754 37.2444 0.46453 38.2403 0.597306C38.2403 0.597306 38.2402 0.597306 38.3066 0.597306C39.3689 0.862857 40.4311 1.19479 41.5597 1.52673C42.4891 1.79228 43.3522 2.05783 44.2153 2.32338C44.8128 2.52255 45.3438 2.7881 45.9413 2.98726C46.4725 3.18642 47.0036 3.38559 47.4683 3.65114C48.265 4.11585 48.9952 4.64697 49.6591 5.17807C50.1238 5.51001 50.5886 5.97472 50.9869 6.37304C51.5844 6.97053 52.1155 7.63441 52.5802 8.29829C53.6425 9.95798 54.5055 11.8169 54.9038 13.8085C55.2358 15.4682 55.2358 17.1943 55.1694 18.8539C55.103 19.717 54.9702 20.7128 54.7711 21.5759C54.5719 22.5717 54.24 23.4347 54.1072 24.4305C54.0408 24.8953 54.1072 25.4263 54.0408 25.8911C53.9744 26.2894 53.8416 26.6877 53.7752 27.0861C53.6425 27.8827 53.3769 28.7457 52.9786 29.476C52.4475 30.5382 51.7836 31.4013 50.9869 32.2643C50.1238 33.2601 49.2608 34.2559 48.3313 35.1854C47.4683 36.1812 46.4061 36.9778 45.2775 37.6417C44.4144 38.1728 43.485 38.8367 42.5555 39.1686C41.6261 39.5006 40.6302 40.0317 39.6344 40.1644C38.9041 40.2308 38.3066 40.4964 37.7091 40.9611C37.3772 41.2267 37.0452 41.5586 36.7133 41.8905C36.3814 42.1561 36.0494 42.2225 35.6511 42.3553C34.788 42.6208 33.925 42.5544 32.9955 42.5544C31.6677 42.5544 30.4064 42.6872 29.145 42.82C28.4811 42.8863 27.8172 42.9527 27.2197 42.8863C26.6222 42.82 26.0247 42.6872 25.4936 42.6208C24.8297 42.5544 24.2322 42.5544 23.5683 42.4216C23.0372 42.3552 22.6389 42.3552 22.1741 42.4216C21.7758 42.488 21.3775 42.4216 20.9128 42.4216C20.5144 42.488 20.0497 42.5544 19.6514 42.6208C18.058 43.0191 16.2655 43.8822 14.2739 43.4174Z" fill="#00C4FF"/>
<path fill-rule="evenodd" clip-rule="evenodd" d="M12.7468 57.8238C12.7468 57.8238 20.116 59.0852 23.4354 59.0188C28.481 58.886 34.3232 59.4835 38.8377 59.6163C43.3521 59.7491 51.2524 56.0313 52.7129 55.3674C54.1735 54.7036 57.6257 52.7119 60.6796 49.3262C63.7335 45.9404 64.9285 40.4302 64.9285 40.4302H63.6671C63.6671 40.4302 63.2024 42.8201 61.3435 45.4757C60.2149 47.069 58.6215 48.4631 56.4307 50.3883C53.244 53.1103 49.1279 55.2347 44.9454 56.2969C39.3688 57.691 34.456 57.2927 31.0038 57.8238C26.091 58.5541 15.0704 56.828 15.0704 56.828L12.7468 57.8238Z" fill="url(#paint10_radial_47_6217)"/>
<path fill-rule="evenodd" clip-rule="evenodd" d="M10.8219 54.1724C10.8219 54.1724 12.0169 57.2262 12.7472 57.8237C12.7472 57.8237 14.3405 57.8901 15.1372 57.0934L12.88 55.301L10.8219 54.1724Z" fill="url(#paint11_radial_47_6217)"/>
<path fill-rule="evenodd" clip-rule="evenodd" d="M65.0611 34.7207C65.0611 34.7207 65.8577 38.1729 65.9241 40.0317C65.9241 40.0317 64.6627 40.8284 63.7333 40.43C63.7333 40.43 64.8619 36.1812 65.0611 34.7207Z" fill="url(#paint12_radial_47_6217)"/>
<path fill-rule="evenodd" clip-rule="evenodd" d="M43.7505 1.85889C43.7505 1.85889 50.323 2.52277 51.8499 3.58497C51.8499 3.58497 50.7877 4.77995 49.5263 4.97911C49.5927 4.91272 44.2816 1.99166 43.7505 1.85889Z" fill="#EE8CFF"/>
<path fill-rule="evenodd" clip-rule="evenodd" d="M4.97925 14.0741L7.7012 13.6758L8.7634 12.2817C8.7634 12.2153 6.83814 13.0783 4.97925 14.0741Z" fill="#FF61C7"/>
<path opacity="0.5" fill-rule="evenodd" clip-rule="evenodd" d="M7.17053 52.2471C7.17053 52.2471 19.9172 55.9648 29.8091 56.164C39.7675 56.3631 43.4852 54.1723 47.8005 52.4462C52.1158 50.7865 59.153 47.0024 61.2775 44.1478C63.4019 41.3595 65.0616 34.7207 65.0616 34.7207C65.0616 34.7207 63.0036 44.6789 61.2775 46.4049C59.485 48.131 51.6511 53.5084 50.2569 54.1723C48.8627 54.8362 45.145 57.6909 38.3069 56.8942C38.3069 56.8942 33.7261 57.5581 32.0664 57.4253C30.4066 57.2926 27.8175 58.9522 23.1039 57.4253C23.1039 57.4253 16.5314 57.0934 15.1372 56.7614C13.6766 56.4959 7.17053 52.2471 7.17053 52.2471Z" fill="#54469B"/>
<path fill-rule="evenodd" clip-rule="evenodd" d="M10.2903 38.8369C10.2903 38.8369 20.8461 40.6958 28.4808 39.8991C36.1155 39.1025 40.2317 37.1772 42.4225 35.7831C44.6133 34.3889 48.8622 29.8082 50.4555 27.6838C52.0489 25.6257 52.8455 20.3811 52.8455 20.3811C52.8455 20.3811 53.1111 25.4266 51.8497 27.6838C50.5219 29.8746 46.0739 34.057 44.215 35.252C42.3561 36.447 37.1114 39.368 34.3894 39.8327C31.6675 40.2974 27.153 41.6916 23.8336 41.0941C20.6469 40.563 12.6803 40.6958 10.2903 38.8369Z" fill="#B04FE2"/>
<path fill-rule="evenodd" clip-rule="evenodd" d="M24.8959 55.7657C24.8959 55.7657 35.85 55.0354 39.6342 54.1724C43.4184 53.3094 48.3975 51.3177 51.8498 49.99C55.302 48.7286 57.9575 46.2059 59.8828 44.8117C61.8081 43.4176 64.2645 37.5754 64.2645 37.5754C64.2645 37.5754 62.6711 43.3512 60.2811 45.21C57.8911 47.0689 51.717 50.5211 44.8125 53.6413C37.045 57.0935 31.07 56.0976 24.8959 55.7657Z" fill="#8B40E0"/>
<path fill-rule="evenodd" clip-rule="evenodd" d="M63.2025 41.9571C63.4017 41.426 63.5345 40.8949 63.7336 40.4302C63.1361 42.5546 62.2731 44.5462 61.2772 46.4051C61.0117 46.6706 60.6133 46.9362 60.3478 47.2017C60.0822 47.5337 59.8167 47.7992 59.5511 48.1312C58.0906 49.5253 56.4972 50.7867 54.7711 51.8489C53.045 52.9775 51.3189 54.0397 49.3936 54.9027C47.9331 55.5666 46.4061 56.0977 44.8792 56.496C43.6178 56.828 42.29 56.9607 41.0286 57.0271C40.3647 57.0935 39.7672 57.1599 39.1034 57.2263C38.3067 57.2927 37.4436 57.2927 36.7134 57.4255C35.3192 57.691 33.925 57.8902 32.5309 57.9566C31.3359 58.023 30.1409 58.2221 28.9459 58.2221C27.4189 58.2221 25.892 57.9566 24.365 57.9566C22.9045 57.9566 21.3775 57.8902 19.917 57.7574C19.0539 57.691 18.1909 57.4919 17.3278 57.4255C16.5975 57.3591 15.8673 57.1599 15.137 57.0935C14.5395 56.6288 13.942 56.1641 13.3445 55.6994C13.2117 55.5666 13.0125 55.4338 12.8798 55.3011C13.7428 55.5666 14.5395 55.8322 15.4025 56.0977C16.5975 56.496 17.9253 56.6952 19.1203 56.828C20.1161 56.9608 21.3775 57.0271 22.3734 56.7616C23.4356 56.496 24.1659 56.828 25.0953 57.2263C25.56 57.4255 25.9584 57.4919 26.4231 57.6246C27.087 57.8238 27.5517 57.7574 28.2156 57.691C28.8131 57.6246 29.4106 57.4919 29.9417 57.4255C30.4064 57.2927 30.9375 57.0935 31.4022 57.0271C32.2653 56.8944 33.1947 56.7616 34.0578 56.9608C35.0536 57.1599 36.0495 57.2263 37.0453 57.0935C38.1075 56.8944 39.037 56.828 40.0992 56.828C40.4311 56.828 40.7631 56.8944 41.095 56.8944C41.4934 56.9608 41.8253 56.828 42.2236 56.828C42.8875 56.7616 43.5514 56.6288 44.2153 56.4296C44.8128 56.2305 45.4103 55.9649 46.0078 55.7658C47.2028 55.3011 48.1986 54.9027 49.2608 54.1725C50.1239 53.575 51.1197 53.1767 51.9828 52.5792C52.8458 52.0481 53.5761 51.3178 54.4392 50.8531C55.3686 50.322 56.1653 49.5917 57.0284 48.9942C57.5595 48.5959 58.0906 48.1312 58.6217 47.7328C59.0864 47.4009 59.6175 47.1353 60.0822 46.737C60.8125 46.0731 61.5428 45.4093 62.0739 44.4798C62.5386 43.6832 62.937 42.8202 63.2025 41.9571Z" fill="#00C4FF"/>
<path fill-rule="evenodd" clip-rule="evenodd" d="M29.4769 24.4968C29.4769 24.4968 37.0453 18.2564 40.2319 12.2151C40.2983 12.2151 31.4022 21.3102 29.4769 24.4968Z" fill="#FF77F4"/>
<path fill-rule="evenodd" clip-rule="evenodd" d="M21.5103 31.8662C21.5103 31.8662 26.2903 31.8662 31.6014 29.6754C36.9125 27.4846 39.568 22.9038 39.568 22.9038C39.568 22.9038 35.983 26.356 32.0661 28.2812C28.1491 30.2065 25.228 30.6712 21.5103 31.8662Z" fill="#F9C6FF"/>
<path fill-rule="evenodd" clip-rule="evenodd" d="M40.431 21.8414C40.431 21.8414 40.9621 20.4473 41.958 18.0573C42.9538 15.6674 43.7505 14.3396 43.7505 14.3396C43.7505 14.3396 43.4849 18.0573 40.431 21.8414Z" fill="#EA9CF4"/>
<path fill-rule="evenodd" clip-rule="evenodd" d="M19.8505 44.5461C19.8505 44.5461 26.4894 46.1394 35.1863 44.5461C43.8832 42.9528 44.2152 42.4217 46.6052 40.4965C48.9952 38.6376 50.7213 36.2476 51.6507 35.3182C52.5802 34.3888 53.7752 31.2686 53.7752 31.2686C53.7752 31.2686 51.3188 35.6502 47.8002 38.6376C44.2816 41.5587 41.3605 43.0192 35.4518 43.9486C29.6096 44.8117 22.838 44.6789 19.8505 44.5461Z" fill="#D374F4"/>
<path fill-rule="evenodd" clip-rule="evenodd" d="M25.6926 59.0186C25.6926 59.0186 31.734 59.5497 34.1904 60.0144C36.6468 60.5455 41.3604 60.4791 44.0823 59.4833C46.8043 58.4875 52.1154 55.6328 52.1154 55.6328C52.1154 55.6328 47.1362 58.4211 41.1612 59.085C35.2526 59.6825 31.6012 58.6866 25.6926 59.0186Z" fill="#D374F4"/>
<path fill-rule="evenodd" clip-rule="evenodd" d="M53.908 54.7698C53.908 54.7698 57.7585 52.1806 59.6174 50.5209C59.6174 50.4546 57.6257 53.2428 53.908 54.7698Z" fill="#D374F4"/>
<path fill-rule="evenodd" clip-rule="evenodd" d="M24.7635 21.9742C24.7635 21.9742 29.1452 18.6548 30.5394 16.3312C31.9336 13.9413 32.0663 12.6135 32.0663 12.6135C32.0663 12.6135 32.6638 14.9371 30.0747 17.8582C27.4191 20.7792 24.7635 21.9742 24.7635 21.9742Z" fill="#F2C4F8"/>
<path fill-rule="evenodd" clip-rule="evenodd" d="M4.18286 39.3015C4.11647 40.762 4.91313 42.4217 7.5023 43.4175C10.0915 44.4134 12.0831 44.1478 12.0831 44.1478C12.0831 44.1478 9.09563 43.5503 7.43591 42.4217C5.77618 41.1604 4.18286 39.3015 4.18286 39.3015Z" fill="#F5CEFA"/>
<defs>
<radialGradient id="paint0_radial_47_6217" cx="0" cy="0" r="1" gradientUnits="userSpaceOnUse" gradientTransform="translate(12.5967 19.8402) scale(51.3973 51.3965)">
<stop offset="0.00558659" stop-color="#FF9AFF"/>
<stop offset="0.0930098" stop-color="#FB94FF"/>
<stop offset="0.2093" stop-color="#F183FF"/>
<stop offset="0.3418" stop-color="#E068FF"/>
<stop offset="0.4864" stop-color="#C841FF"/>
<stop offset="0.639" stop-color="#A910FF"/>
<stop offset="0.6844" stop-color="#9F00FF"/>
<stop offset="0.7432" stop-color="#9900F8"/>
<stop offset="0.8282" stop-color="#8700E5"/>
<stop offset="0.9287" stop-color="#6A00C6"/>
<stop offset="1" stop-color="#5200AB"/>
</radialGradient>
<radialGradient id="paint1_radial_47_6217" cx="0" cy="0" r="1" gradientUnits="userSpaceOnUse" gradientTransform="translate(12.5967 19.8402) scale(51.3973 51.3965)">
<stop offset="0.00558659" stop-color="#FF9AFF"/>
<stop offset="0.0930098" stop-color="#FB94FF"/>
<stop offset="0.2093" stop-color="#F183FF"/>
<stop offset="0.3418" stop-color="#E068FF"/>
<stop offset="0.4864" stop-color="#C841FF"/>
<stop offset="0.639" stop-color="#A910FF"/>
<stop offset="0.6844" stop-color="#9F00FF"/>
<stop offset="0.7432" stop-color="#9900F8"/>
<stop offset="0.8282" stop-color="#8700E5"/>
<stop offset="0.9287" stop-color="#6A00C6"/>
<stop offset="1" stop-color="#5200AB"/>
</radialGradient>
<radialGradient id="paint2_radial_47_6217" cx="0" cy="0" r="1" gradientUnits="userSpaceOnUse" gradientTransform="translate(14.0544 16.8664) scale(50.5229 50.5221)">
<stop offset="0.00558659" stop-color="#FF9AFF"/>
<stop offset="0.0930098" stop-color="#FB94FF"/>
<stop offset="0.2093" stop-color="#F183FF"/>
<stop offset="0.3418" stop-color="#E068FF"/>
<stop offset="0.4864" stop-color="#C841FF"/>
<stop offset="0.639" stop-color="#A910FF"/>
<stop offset="0.6844" stop-color="#9F00FF"/>
<stop offset="0.7432" stop-color="#9900F8"/>
<stop offset="0.8282" stop-color="#8700E5"/>
<stop offset="0.9287" stop-color="#6A00C6"/>
<stop offset="1" stop-color="#5200AB"/>
</radialGradient>
<radialGradient id="paint3_radial_47_6217" cx="0" cy="0" r="1" gradientUnits="userSpaceOnUse" gradientTransform="translate(20.6981 11.523) scale(11.2971 11.297)">
<stop offset="0.630208" stop-color="white"/>
<stop offset="1" stop-color="#EF9AFF"/>
</radialGradient>
<radialGradient id="paint4_radial_47_6217" cx="0" cy="0" r="1" gradientUnits="userSpaceOnUse" gradientTransform="translate(22.4955 15.6068) scale(3.93009 3.93002)">
<stop stop-color="white"/>
<stop offset="1" stop-color="#F7ABFF"/>
</radialGradient>
<radialGradient id="paint5_radial_47_6217" cx="0" cy="0" r="1" gradientUnits="userSpaceOnUse" gradientTransform="translate(20.0788 15.2431) scale(4.14134 4.14127)">
<stop stop-color="white"/>
<stop offset="1" stop-color="#F9D0FD"/>
</radialGradient>
<radialGradient id="paint6_radial_47_6217" cx="0" cy="0" r="1" gradientUnits="userSpaceOnUse" gradientTransform="translate(17.1495 11.2544) scale(9.56631 9.56615)">
<stop stop-color="white"/>
<stop offset="1" stop-color="#F7C2FC"/>
</radialGradient>
<radialGradient id="paint7_radial_47_6217" cx="0" cy="0" r="1" gradientUnits="userSpaceOnUse" gradientTransform="translate(13.0609 7.5362) scale(16.2193 16.219)">
<stop stop-color="white"/>
<stop offset="1" stop-color="#F5AEFE"/>
</radialGradient>
<radialGradient id="paint8_radial_47_6217" cx="0" cy="0" r="1" gradientUnits="userSpaceOnUse" gradientTransform="translate(19.0719 10.1053) scale(22.5995 22.5992)">
<stop offset="0.744792" stop-color="white"/>
<stop offset="0.9998" stop-color="#E886FF"/>
<stop offset="0.9999" stop-color="#ED8CFF"/>
</radialGradient>
<radialGradient id="paint9_radial_47_6217" cx="0" cy="0" r="1" gradientUnits="userSpaceOnUse" gradientTransform="translate(12.0251 10.2714) scale(38.1808 38.1802)">
<stop offset="0.84375" stop-color="#EEADFE"/>
<stop offset="1" stop-color="#B439EE"/>
</radialGradient>
<radialGradient id="paint10_radial_47_6217" cx="0" cy="0" r="1" gradientUnits="userSpaceOnUse" gradientTransform="translate(23.4699 43.5235) scale(30.0921 30.0916)">
<stop offset="0.572917" stop-color="#EEB9FF"/>
<stop offset="1" stop-color="#7801BD"/>
</radialGradient>
<radialGradient id="paint11_radial_47_6217" cx="0" cy="0" r="1" gradientUnits="userSpaceOnUse" gradientTransform="translate(11.6204 55.1332) scale(3.24774 3.24769)">
<stop stop-color="#6D00C2"/>
<stop offset="0.3995" stop-color="#6600BC"/>
<stop offset="0.976" stop-color="#5300AC"/>
<stop offset="1" stop-color="#5200AB"/>
</radialGradient>
<radialGradient id="paint12_radial_47_6217" cx="0" cy="0" r="1" gradientUnits="userSpaceOnUse" gradientTransform="translate(64.1461 36.2496) scale(3.39226 3.39221)">
<stop stop-color="#1F0081"/>
<stop offset="0.73" stop-color="#260087"/>
<stop offset="1" stop-color="#2A008B"/>
</radialGradient>
</defs>
</svg>
