<svg width="30" height="30" viewBox="0 0 30 30" fill="none" xmlns="http://www.w3.org/2000/svg">
<g clip-path="url(#clip0_47_6905)">
<path d="M9.99724 0.6C8.91164 0.879369 7.89206 1.37081 6.99724 2.046C5.95324 2.952 1.42925 8.334 0.193254 11.088C0.0488501 11.3925 -0.016925 11.7283 0.00194173 12.0648C0.0208085 12.4012 0.123715 12.7276 0.301253 13.014L0.391253 13.134C0.643253 13.434 0.391253 15.102 0.391253 16.494C0.395519 17.165 0.345355 17.8352 0.241253 18.498C0.238324 18.5279 0.238324 18.5581 0.241253 18.588C0.169254 19.11 -0.112746 21.306 0.967252 22.074C2.04725 22.842 3.27725 23.562 3.78125 24.414C4.20125 25.134 4.70525 26.748 8.88724 28.8C10.4395 29.5726 12.158 29.9517 13.8912 29.904C14.5212 29.904 15.2592 29.904 16.0572 29.904C17.0112 29.952 17.8572 29.958 18.5292 29.946C19.9168 29.9316 21.2661 29.4895 22.3932 28.68C24.2477 27.3099 25.8017 25.5741 26.9592 23.58C29.9592 18.576 29.6232 19.926 29.9592 17.022C30.0923 15.6756 29.941 14.3162 29.5152 13.032C29.133 11.798 28.858 10.5333 28.6932 9.252C28.5968 8.39231 28.4323 7.54163 28.2012 6.708C27.7032 5.34 21.0012 0.078 19.4952 0C18.1995 0.012773 16.9078 0.147366 15.6372 0.402C15.6372 0.402 10.4292 0.486 9.99724 0.6Z" fill="#19A6B8"/>
<path d="M0.19362 11.088C0.0492164 11.3925 -0.0165588 11.7283 0.00230795 12.0648C0.0211747 12.4013 0.124082 12.7276 0.30162 13.014L0.39162 13.134C0.64362 13.434 0.39162 15.102 0.39162 16.494C0.395886 17.165 0.345722 17.8352 0.24162 18.498C0.238691 18.528 0.238691 18.5581 0.24162 18.588C0.16962 19.11 -0.11238 21.306 0.96762 22.074C2.04762 22.842 3.27762 23.562 3.78162 24.414C4.20162 25.134 4.70562 26.748 8.88762 28.8C10.4399 29.5726 12.1583 29.9517 13.8916 29.904C14.5216 29.904 15.2596 29.904 16.0576 29.904C17.0116 29.952 17.8576 29.958 18.5296 29.946C19.9172 29.9316 21.2665 29.4895 22.3936 28.68C24.2481 27.3099 25.8021 25.5742 26.9596 23.58C28.2256 21.462 28.8916 20.484 29.2696 19.842C29.2036 19.998 4.34562 5.05204 4.33362 5.04004C2.72562 7.02004 0.90762 9.49204 0.19362 11.088Z" fill="#2EA5B1"/>
<path d="M29.2028 16.4039C29.0048 15.4079 29.1188 15.3419 28.9448 14.7179C28.7786 14.221 28.6444 13.7139 28.5428 13.1999C28.3748 12.2939 28.6028 12.1079 28.0868 10.4459C27.5708 8.78389 28.0028 9.76189 27.8888 8.81989C27.7748 7.87789 27.8888 7.97389 27.6608 7.45789C27.4328 6.94189 24.3008 4.30789 21.5648 2.39989C20.8028 1.87789 21.0848 1.25989 19.3388 0.821889C17.5928 0.383889 17.1488 1.27189 15.6908 0.995889C14.2328 0.719889 14.4488 1.18789 13.1168 1.21789C11.7848 1.24789 10.1168 1.49389 9.19881 2.29189C8.28081 3.08989 6.44481 5.13589 6.42081 5.16589C6.42081 5.16589 4.65681 8.39989 4.44081 10.0379C4.307 11.0876 4.307 12.1501 4.44081 13.1999C4.48281 14.1899 4.30881 14.0459 4.71681 15.2699C5.12481 16.4939 4.95681 16.6919 5.37681 18.0839C5.79681 19.4759 6.60081 19.3319 7.09881 20.8799C7.59681 22.4279 9.00081 20.7419 9.00081 21.9179C9.00081 23.0939 10.7468 23.0219 11.1308 23.3219C11.5148 23.6219 9.25881 25.8899 10.2788 26.3999C11.2988 26.9099 14.8208 26.8919 16.7708 27.3959C18.7208 27.8999 22.1708 27.2399 22.8728 27.1979C23.5748 27.1559 24.7688 25.2779 25.3268 24.8519C25.8848 24.4259 29.2868 19.9619 29.2868 19.9619C29.4176 19.2436 29.4759 18.5139 29.4608 17.7839C29.4908 16.4699 29.4008 17.3999 29.2028 16.4039Z" fill="#1C6B77"/>
<path d="M23.4006 11.5739C21.2046 4.83588 15.2766 0.749883 10.2006 2.44788C5.1246 4.14588 2.7006 10.9799 4.8966 17.7239C5.25129 18.8035 5.71361 19.8447 6.2766 20.8319C7.3446 20.0399 7.2006 19.3619 7.2006 19.3619C7.2006 19.3619 8.1846 17.9999 8.5806 18.5099C8.9766 19.0199 8.9766 18.8399 9.0726 19.3619C9.1686 19.8839 10.1946 19.6199 9.0726 20.4359C7.9506 21.2519 9.7506 20.3159 7.9506 21.2459C7.58514 21.4336 7.20362 21.5882 6.8106 21.7079C9.6366 25.9619 14.1306 28.1819 18.1326 26.8499C23.2446 25.1519 25.6026 18.3119 23.4006 11.5739Z" fill="#138297"/>
<path d="M5.72487 21.186C4.41087 21.924 5.43687 22.116 6.81087 21.708C6.62487 21.426 6.45087 21.108 6.27687 20.832C6.10097 20.9622 5.91656 21.0805 5.72487 21.186Z" fill="#207A87"/>
<path d="M9.07284 20.436C10.1948 19.62 9.16284 19.878 9.07284 19.362C8.98284 18.846 8.56285 19.362 8.16685 18.84C7.77085 18.318 7.21285 19.362 7.21285 19.362C7.21285 19.362 7.34485 20.04 6.27686 20.832C6.45085 21.132 6.62485 21.432 6.81085 21.708C7.20387 21.5883 7.58539 21.4337 7.95085 21.246C9.75084 20.316 7.95085 21.246 9.07284 20.436Z" fill="#0A6977"/>
<path d="M20.191 19.5779C20.191 19.5779 22.903 20.6219 24.055 20.3699C25.207 20.1179 25.255 19.3019 25.987 18.3659C26.269 18.0119 26.143 17.4719 27.049 17.2079C27.955 16.9439 26.107 14.8679 26.107 14.8679L20.191 19.5779Z" fill="#144C54"/>
<path d="M20.7843 5.26807C20.7843 5.26807 16.6743 6.19207 16.5183 9.00007C16.4523 10.2601 15.6843 10.6261 15.4023 11.3581C15.232 11.9067 14.9725 12.4236 14.6343 12.8881C14.1903 13.5241 14.1903 15.3661 14.3223 16.0141C14.4572 16.6491 14.8174 17.2139 15.3363 17.6041C15.9363 18.2041 16.3923 18.2461 17.8683 18.6661C19.3443 19.0861 19.4223 19.4701 20.4003 19.6201C21.1615 19.764 21.9468 19.7112 22.6819 19.4665C23.4169 19.2219 24.0772 18.7935 24.6003 18.2221L20.7843 5.26807Z" fill="#3DAAB2"/>
<path d="M18.4027 26.6639C18.2089 26.9157 17.9963 27.1524 17.7667 27.3719C16.9699 28.2277 15.8882 28.7632 14.7247 28.8779C13.3687 28.8779 10.3327 28.7879 9.21065 28.1759C8.22 27.5193 7.37123 26.6706 6.71464 25.6799C6.67536 25.0966 6.67536 24.5112 6.71464 23.9279C6.71464 23.9279 7.11664 23.1539 8.73665 23.3279C8.93545 23.3557 9.13592 23.3697 9.33665 23.3699C11.1667 23.3699 12.1807 22.3079 13.0687 22.4819C14.0527 22.6679 16.9507 23.5199 17.4187 23.8979C17.8867 24.2759 19.2307 25.5779 18.4027 26.6639Z" fill="#59BBCE"/>
<path d="M18.1872 26.7361C17.4012 27.7621 15.9912 28.8001 14.8032 28.8001C12.8112 28.8001 10.3632 28.6261 9.4692 28.1401C8.56202 27.5239 7.77509 26.7471 7.1472 25.8481C7.12069 25.3484 7.12069 24.8477 7.1472 24.3481C7.30426 24.2167 7.48609 24.1183 7.68191 24.0585C7.87773 23.9987 8.08356 23.9788 8.2872 24.0001C8.44571 23.9988 8.60411 24.0088 8.7612 24.0301C8.982 24.059 9.2045 24.073 9.4272 24.0721C10.2959 24.049 11.1502 23.8447 11.9352 23.4721C12.2557 23.3138 12.6005 23.2103 12.9552 23.1661C12.999 23.1598 13.0434 23.1598 13.0872 23.1661C13.8229 23.3288 14.5499 23.5291 15.2652 23.7661C15.9582 23.9459 16.63 24.1993 17.2692 24.5221C17.4492 24.6541 18.8712 25.8421 18.1872 26.7361Z" fill="#15424D"/>
<path d="M15.5525 25.5841C15.3962 26.0355 15.1398 26.4458 14.8025 26.7841C14.6034 26.9422 14.3738 27.0574 14.128 27.1225C13.8823 27.1876 13.6257 27.201 13.3745 27.1621C12.6944 26.9406 11.9923 26.7937 11.2805 26.7241C10.6805 26.7241 9.48048 27.0361 8.91648 26.7241C8.35248 26.4121 8.60448 26.1241 8.31648 25.7101C8.02848 25.2961 8.31648 24.0301 8.31648 24.0301C8.47499 24.0288 8.63339 24.0389 8.79048 24.0601C9.01128 24.089 9.23379 24.103 9.45648 24.1021C10.3252 24.0791 11.1794 23.8747 11.9645 23.5021C12.285 23.3438 12.6298 23.2404 12.9845 23.1961C13.0283 23.1898 13.0727 23.1898 13.1165 23.1961C13.8522 23.3588 14.5792 23.5591 15.2945 23.7961L15.5705 24.2701C15.6412 24.7058 15.6352 25.1505 15.5525 25.5841Z" fill="#002931"/>
<path d="M2.40029 22.1039H2.27429C2.04629 22.0319 0.960293 21.4319 0.834293 21.1079C0.810769 21.046 0.810769 20.9777 0.834293 20.9159C0.85769 20.7005 0.85769 20.4832 0.834293 20.2679V20.1839L0.876294 20.1179C0.885559 20.0361 0.885559 19.9536 0.876294 19.8719C0.830228 19.6305 0.868349 19.3806 0.984293 19.1639C1.03597 19.0965 1.10365 19.0431 1.18118 19.0086C1.25872 18.974 1.34365 18.9593 1.42829 18.9659C1.55598 18.969 1.68285 18.9871 1.80629 19.0199C2.13508 19.0965 2.46749 19.1566 2.80229 19.1999C3.51029 19.3199 4.00229 19.3979 4.00229 19.8719C4.01327 19.9838 4.03538 20.0943 4.06829 20.2019C4.15582 20.3884 4.1743 20.5999 4.12047 20.7988C4.06663 20.9977 3.94396 21.171 3.77429 21.2879L3.54629 21.4679C3.2283 21.7789 2.83245 21.9986 2.40029 22.1039Z" fill="#299781"/>
<path d="M0.966492 20.2259C1.14649 19.9559 0.606492 18.8879 1.75849 19.1879C2.91049 19.4879 3.83449 19.4219 3.85849 19.8899C3.88249 20.3579 4.24249 20.7299 3.70249 21.1319C3.16249 21.5339 2.62849 22.0079 2.32249 21.9059C2.01649 21.8039 0.918492 21.1319 0.966492 20.9639C0.994289 20.7187 0.994289 20.4711 0.966492 20.2259Z" fill="#167280"/>
<path d="M6.98402 10.884L6.60002 11.208H6.52802H6.45002C6.25411 11.2599 6.05267 11.2881 5.85002 11.292C5.57523 11.3113 5.3027 11.2309 5.08232 11.0656C4.86195 10.9003 4.70848 10.6612 4.65002 10.392C4.65002 10.392 4.66802 12.6 7.80002 12.6C9.03426 12.5917 10.266 12.4874 11.484 12.288C11.4238 10.9386 11.1775 9.604 10.752 8.32202C9.44412 9.09708 8.1857 9.95273 6.98402 10.884Z" fill="#358891"/>
<path d="M10.627 7.96207C10.4314 7.43049 10.1947 6.91494 9.91904 6.42007C9.79304 6.20407 9.67304 5.99407 9.54704 5.82007C8.76704 5.93407 7.50704 7.24207 6.76304 8.42407C6.63594 8.63055 6.54086 8.8551 6.48104 9.09007C6.42216 9.35189 6.41678 9.62291 6.46524 9.88685C6.5137 10.1508 6.61499 10.4022 6.76304 10.6261C6.76304 10.6261 7.77704 9.82807 9.00704 8.99407C9.60704 8.59807 10.171 8.26807 10.639 8.00407L10.627 7.96207Z" fill="#0F363F"/>
<path d="M9.60022 3.31207C10.9203 3.29397 12.24 3.3742 13.5482 3.55207C14.4902 3.78607 15.2222 3.55207 15.5222 4.38007C15.6182 4.63207 15.5882 4.72807 15.7262 5.26807C15.909 5.80075 15.9443 6.37298 15.8282 6.92407C15.6542 7.63807 14.8262 10.7461 12.7382 11.7601" fill="#1C6B77"/>
<path d="M14.089 7.00195C13.945 4.37395 13.009 4.00195 13.009 4.00195C13.2019 4.14579 13.3531 4.33838 13.447 4.55995C13.5089 4.71647 13.5395 4.88364 13.537 5.05195C13.537 7.16995 12.103 7.64395 12.037 7.66195C11.5893 7.84512 11.1561 8.06173 10.741 8.30995C11.1665 9.59193 11.4128 10.9265 11.473 12.276C12.1198 12.1719 12.7184 11.8695 13.186 11.4106C13.6535 10.9516 13.967 10.3588 14.083 9.71395C14.1771 8.81251 14.1791 7.90381 14.089 7.00195Z" fill="#247275"/>
<path d="M13.513 4.66192C13.4223 4.43848 13.2705 4.2451 13.075 4.10392C12.343 3.53992 10.951 3.42592 9.66101 3.42592C9.06686 3.39949 8.47292 3.48288 7.90901 3.67192C7.85501 3.67192 7.72901 3.77392 7.72901 3.77392C7.43501 3.88792 6.41501 4.31992 5.51502 6.05392C4.85291 7.22644 4.55426 8.5693 4.65702 9.91192C4.65926 10.1305 4.68746 10.348 4.74102 10.5599C4.79762 10.8243 4.94636 11.06 5.16068 11.2249C5.375 11.3897 5.64094 11.473 5.91102 11.4599C6.1142 11.4576 6.31609 11.4273 6.51102 11.3699H6.58901H6.66702L7.04501 11.0459C8.24332 10.0901 9.49755 9.2065 10.801 8.39992C11.2161 8.15344 11.6494 7.93882 12.097 7.75792C12.163 7.75792 13.591 7.25992 13.591 5.14192C13.5966 4.97836 13.5701 4.8153 13.513 4.66192ZM12.001 7.40392C12.001 7.40392 11.491 7.63792 10.699 8.08192C10.237 8.33992 9.67901 8.68192 9.07301 9.07192C7.87301 9.90592 6.82902 10.7039 6.82902 10.7039L6.49302 10.9859C5.54502 11.2739 5.09502 10.8539 4.90302 10.4459C4.83222 10.3009 4.78754 10.1445 4.77102 9.98392C4.671 8.63183 4.9516 7.27875 5.58102 6.07792C6.54102 4.19992 7.72901 3.84592 7.72901 3.84592C8.27501 3.37792 11.611 3.31192 12.799 4.32592C12.9284 4.42375 13.0339 4.5496 13.1077 4.69404C13.1815 4.83849 13.2216 4.99776 13.225 5.15992C13.231 7.01392 12.001 7.40392 12.001 7.40392Z" fill="#1298B3"/>
<path d="M13.4472 4.54198C13.3533 4.32041 13.2022 4.12782 13.0092 3.98398C12.2712 3.42598 10.8792 3.31198 9.58922 3.31198C8.99753 3.28637 8.40606 3.36767 7.84322 3.55198L7.66322 3.65398C7.34522 3.77998 6.31922 4.19998 5.40122 5.94598C4.74758 7.12345 4.45542 8.46742 4.56122 9.80998C4.57999 10.0127 4.61612 10.2134 4.66922 10.41C4.72768 10.6792 4.88115 10.9183 5.10152 11.0836C5.3219 11.2489 5.59443 11.3292 5.86922 11.31C6.07186 11.3061 6.27331 11.2779 6.46922 11.226H6.54722H6.61922L7.00322 10.902C8.20019 9.96083 9.45462 9.09516 10.7592 8.30998C11.1743 8.06176 11.6076 7.84515 12.0552 7.66198C12.1212 7.66198 13.5552 7.16998 13.5552 5.05198C13.5545 4.87638 13.5177 4.70281 13.4472 4.54198ZM11.9292 7.28398C11.9292 7.28398 11.4132 7.52398 10.6272 7.96198C10.1592 8.22598 9.60122 8.56198 8.99522 8.95198C7.76522 9.78598 6.75122 10.584 6.75122 10.584L6.42122 10.872C5.46722 11.154 5.01722 10.734 4.82522 10.326C4.75577 10.1804 4.71115 10.0243 4.69322 9.86398C4.59305 8.51381 4.87369 7.1626 5.50322 5.96398C6.46922 4.10398 7.65722 3.72598 7.65722 3.72598C8.19722 3.26398 11.5332 3.19798 12.7212 4.20598C12.8506 4.30381 12.9561 4.42966 13.0299 4.5741C13.1037 4.71855 13.1438 4.87782 13.1472 5.03998C13.1592 6.89998 11.9292 7.28398 11.9292 7.28398Z" fill="#59BBCE"/>
<path d="M12.7325 4.20014C11.5325 3.19213 8.20846 3.25813 7.66846 3.72013C8.41918 4.27616 9.05664 4.97063 9.54646 5.76614C9.93336 5.72493 10.3236 5.72493 10.7105 5.76614H10.8845C11.0518 5.79711 11.2113 5.86087 11.3539 5.95376C11.4964 6.04665 11.6192 6.16682 11.7151 6.30736C11.8111 6.4479 11.8782 6.60602 11.9128 6.77263C11.9473 6.93924 11.9486 7.11104 11.9165 7.27814C11.9165 7.27814 13.1465 6.89414 13.1465 5.02814C13.1436 4.86798 13.1049 4.71051 13.0332 4.56724C12.9616 4.42397 12.8588 4.29854 12.7325 4.20014Z" fill="#115965"/>
<path d="M9.53469 5.77793C9.04487 4.98243 8.40742 4.28795 7.65669 3.73193C7.65669 3.73193 6.45669 4.10993 5.50269 5.96993C4.87315 7.16856 4.59252 8.51976 4.69269 9.86993C4.71061 10.0302 4.75523 10.1864 4.82469 10.3319C5.01669 10.7399 5.46669 11.1599 6.42069 10.8779L6.75069 10.5899C6.60264 10.3661 6.50135 10.1147 6.45289 9.85072C6.40443 9.58677 6.40981 9.31575 6.46869 9.05393C6.52964 8.82312 6.62469 8.6027 6.75069 8.39993C7.49469 7.19993 8.75469 5.90993 9.53469 5.79593V5.77793Z" fill="#196C7B"/>
<path d="M10.8961 5.77211H10.7221C10.3352 5.73091 9.94501 5.73091 9.55811 5.77211C9.68411 5.95811 9.8041 6.16811 9.9301 6.37211C10.2057 6.86698 10.4424 7.38254 10.6381 7.91411C11.4241 7.47611 11.9401 7.23611 11.9401 7.23611C11.9908 6.90421 11.9102 6.56561 11.7152 6.29224C11.5203 6.01888 11.2264 5.83229 10.8961 5.77211Z" fill="#0F363F"/>
<path d="M26.2631 15.1199C25.2551 13.4999 24.0851 12.6479 24.0851 11.8919C24.0851 11.1359 24.6431 9.90593 24.0851 8.24393C23.5271 6.58193 23.7191 5.66993 22.1351 5.29193C21.6619 5.18672 21.1715 5.18589 20.6979 5.28951C20.2244 5.39313 19.7791 5.59871 19.3931 5.89193C19.2135 6.05433 19.0451 6.22873 18.8891 6.41393L18.8351 6.48593C18.8951 6.55193 18.9611 6.63593 19.0451 6.71993C19.2266 6.47262 19.4272 6.23991 19.6451 6.02393C20.2114 5.63491 20.8783 5.41819 21.5651 5.39993C21.7672 5.40099 21.9685 5.42515 22.1651 5.47193C23.2211 5.72393 23.3651 6.26993 23.6831 7.36793C23.7671 7.65593 23.8571 7.96793 23.9651 8.30393C24.2415 9.18719 24.2706 10.1293 24.0491 11.0279C24.0122 11.2923 23.9962 11.5591 24.0011 11.8259C24.0011 12.4259 24.4211 12.9059 24.9971 13.5959C25.431 14.1058 25.8318 14.6429 26.1971 15.2039C26.7131 16.0199 26.4251 16.2719 25.7291 16.8779C25.3309 17.2018 24.9795 17.5794 24.6851 17.9999C24.5877 18.1463 24.4611 18.271 24.3131 18.3659C24.317 18.4038 24.317 18.442 24.3131 18.4799C24.4935 18.3495 24.6481 18.1867 24.7691 17.9999C25.6151 16.6739 27.1691 16.5659 26.2631 15.1199Z" fill="#59BBCE"/>
<path d="M19.8008 7.68598L19.9448 7.63198C20.276 7.55206 20.6221 7.55865 20.9499 7.65112C21.2777 7.74359 21.5763 7.91882 21.8168 8.15998C22.1186 8.73984 22.2751 9.38429 22.2728 10.038C22.1715 10.7243 22.1715 11.4217 22.2728 12.108C22.7889 12.4713 23.2223 12.9395 23.5449 13.482C23.5862 14.195 23.5132 14.91 23.3289 15.6C23.3889 15.714 23.4729 15.846 23.5869 16.02C24.0549 16.746 23.8989 16.992 24.1209 17.544C24.2276 17.8146 24.2923 18.0998 24.3129 18.39C24.4608 18.295 24.5875 18.1704 24.6849 18.024C24.9756 17.6043 25.3229 17.2267 25.7169 16.902C26.4129 16.302 26.7009 16.044 26.1849 15.228C25.8196 14.6669 25.4187 14.1298 24.9849 13.62C24.3849 12.93 23.9889 12.42 23.9889 11.85C24.0005 11.5737 24.0346 11.2988 24.0909 11.028C24.3149 10.1212 24.2837 9.17015 24.0009 8.27998C23.8929 7.94398 23.8029 7.63198 23.7189 7.34398C23.4009 6.24598 23.2449 5.69998 22.2008 5.44798C22.0042 5.40119 21.8029 5.37704 21.6008 5.37598C20.8976 5.3849 20.2128 5.60204 19.6328 5.99998C19.415 6.21595 19.2144 6.44866 19.0328 6.69598C19.2728 6.98998 19.5488 7.33198 19.8008 7.68598Z" fill="#196C7B"/>
<path d="M20.5025 11.7839C20.8466 12.2204 21.2325 12.6223 21.6545 12.9839C22.1225 13.4579 22.4045 13.5839 22.5905 14.0399C22.6813 14.3221 22.8063 14.5921 22.9625 14.8439C23.1545 15.1559 23.1425 15.2219 23.3285 15.5519C23.5124 14.87 23.5873 14.1633 23.5505 13.4579C23.228 12.9155 22.7945 12.4473 22.2785 12.0839C22.1772 11.3976 22.1772 10.7002 22.2785 10.0139C22.2808 9.36024 22.1243 8.71579 21.8225 8.13592C21.582 7.89476 21.2834 7.71953 20.9556 7.62707C20.6277 7.5346 20.2816 7.52801 19.9505 7.60792L19.8065 7.66192C20.1308 8.06252 20.3679 8.52642 20.5025 9.02392C20.6225 9.98992 20.0045 11.1239 20.5025 11.7839Z" fill="#0F363F"/>
<path d="M24.2229 18.3659C23.6079 18.7136 22.9063 18.8781 22.2009 18.8399C21.586 18.8591 20.9735 18.7529 20.4009 18.5279C19.9569 18.3079 19.4669 17.5779 18.9309 16.3379L18.8709 16.1939C18.6549 15.6779 18.4269 15.0779 18.1929 14.3939C17.9626 13.4072 17.9626 12.3807 18.1929 11.3939C18.3003 10.7878 18.3545 10.1735 18.3549 9.55794C18.3512 9.32094 18.3189 9.08525 18.2589 8.85594C18.2555 8.804 18.2555 8.75189 18.2589 8.69994C18.2557 7.97167 18.5108 7.26586 18.9789 6.70794C18.9009 6.62394 18.9009 6.55794 18.8409 6.49194C18.3549 7.09194 17.6889 8.00994 17.9229 8.94594C18.2829 10.4579 17.2569 12.7139 17.8629 14.5019C18.0669 15.1019 18.2889 15.7019 18.5349 16.3019C19.0389 17.5019 19.6269 18.5399 20.2569 18.8579C20.9086 19.0951 21.605 19.1837 22.2954 19.1173C22.9857 19.0509 23.6524 18.8311 24.2469 18.4739C24.2469 18.4739 24.2289 18.4379 24.2229 18.3659Z" fill="#1298B3"/>
<path d="M24.3127 18.3661C23.7027 18.7099 23.008 18.8742 22.3087 18.8401C21.6938 18.8576 21.0817 18.7515 20.5087 18.5281C20.0707 18.3061 19.5787 17.5741 19.0447 16.3381L18.9847 16.1941C18.7687 15.6781 18.5407 15.0781 18.3067 14.3941C18.0764 13.4074 18.0764 12.3809 18.3067 11.3941C18.4111 10.7876 18.4653 10.1735 18.4687 9.55812C18.459 9.32161 18.4268 9.08655 18.3727 8.85612C18.3664 8.80431 18.3664 8.75194 18.3727 8.70012C18.3663 7.97131 18.6218 7.26443 19.0927 6.70812C19.0087 6.62412 18.9427 6.54012 18.8827 6.47412C18.3967 7.07412 17.8027 8.01012 18.0367 8.94612C18.4027 10.4581 17.3707 12.7141 17.9827 14.5021C18.1867 15.1021 18.4087 15.7021 18.6547 16.3021C19.1587 17.5021 19.7467 18.5401 20.3707 18.8581C21.0224 19.0953 21.7188 19.1839 22.4091 19.1175C23.0994 19.051 23.7662 18.8312 24.3607 18.4741C24.3485 18.4365 24.3324 18.4003 24.3127 18.3661Z" fill="#59BBCE"/>
<path d="M23.5861 15.9959C23.4721 15.8219 23.3881 15.6899 23.3281 15.5759C23.3281 15.7079 23.2861 15.8339 23.2681 15.9359C23.1781 16.5959 20.7421 17.5139 19.5241 16.5359C19.3506 16.3992 19.1637 16.2806 18.9661 16.1819L19.0261 16.3259C19.5601 17.5619 20.0521 18.2939 20.4901 18.5159C21.0631 18.7393 21.6752 18.8454 22.2901 18.8279C22.9894 18.862 23.6841 18.6977 24.2941 18.3539C24.2735 18.0638 24.2088 17.7785 24.1021 17.5079C23.8981 16.9679 24.0541 16.7219 23.5861 15.9959Z" fill="#0E5A65"/>
<path d="M18.3252 8.70611C18.319 8.75793 18.319 8.8103 18.3252 8.86211C18.3794 9.09254 18.4115 9.3276 18.4212 9.56411C18.4212 9.47411 18.8832 8.10011 19.7833 7.68611C19.5252 7.33211 19.2492 6.99011 19.0212 6.71411C18.559 7.2738 18.3121 7.98034 18.3252 8.70611Z" fill="#0E5A65"/>
<path d="M23.2687 15.936C23.2687 15.834 23.3047 15.708 23.3287 15.576C23.1427 15.246 23.1547 15.18 22.9627 14.868C22.8065 14.6162 22.6815 14.3462 22.5907 14.064C22.4047 13.608 22.1227 13.464 21.6547 13.008C21.2327 12.6464 20.8468 12.2445 20.5027 11.808C20.0047 11.148 20.6227 10.008 20.5027 9.07203C20.3694 8.56558 20.1301 8.09318 19.8007 7.68604C18.9007 8.10003 18.4627 9.48603 18.4387 9.56403C18.4373 10.1793 18.3851 10.7934 18.2827 11.4C18.0524 12.3868 18.0524 13.4133 18.2827 14.4C18.5167 15.084 18.7447 15.684 18.9607 16.2C19.1583 16.2987 19.3453 16.4173 19.5187 16.554C20.7427 17.514 23.1787 16.596 23.2687 15.936Z" fill="#032C35"/>
<path d="M29.5023 13.08C29.1201 11.846 28.8451 10.5813 28.6803 9.3C28.5904 8.42448 28.4299 7.55766 28.2003 6.708C27.7023 5.34 21.0003 0.078 19.4943 0C18.1985 0.012773 16.9068 0.147366 15.6363 0.402C15.6363 0.402 10.4283 0.48 9.99628 0.606C8.91068 0.885369 7.89109 1.37681 6.99628 2.052C6.04281 2.99189 5.15285 3.9941 4.33228 5.052C4.33228 5.052 6.35428 3.012 7.33228 2.184C8.31028 1.356 10.2003 1.128 11.6403 1.092C13.0803 1.056 13.0443 1.194 14.6403 1.476C16.2363 1.758 16.4403 0.582 18.3183 1.02C20.1963 1.458 20.0283 1.758 20.8563 2.28C23.8563 4.182 27.2523 6.804 27.4983 7.326C27.7443 7.848 27.6243 7.758 27.7503 8.7C27.8763 9.642 27.4083 8.67 27.9663 10.338C28.5243 12.006 28.2783 12.192 28.4703 13.104C28.5769 13.6278 28.7212 14.1431 28.9023 14.646C29.0883 15.276 28.9683 15.336 29.1843 16.344C29.4003 17.352 28.8483 16.536 29.1123 17.802C29.3069 18.4799 29.3621 19.1902 29.2743 19.89C29.7963 19.008 29.7663 18.744 29.9523 17.07C30.0834 15.7232 29.9301 14.3638 29.5023 13.08Z" fill="#41D6E1"/>
<path d="M6.18029 14.928C6.61438 14.928 6.96629 14.5734 6.96629 14.136C6.96629 13.6986 6.61438 13.344 6.18029 13.344C5.74619 13.344 5.39429 13.6986 5.39429 14.136C5.39429 14.5734 5.74619 14.928 6.18029 14.928Z" fill="#136470"/>
<path d="M11.8387 13.7101C11.7367 13.1101 11.1607 12.5101 11.8387 12.6061C12.5167 12.7021 12.8587 12.0721 13.3867 12.4501C13.9147 12.8281 13.7887 12.5101 13.9867 13.3921C14.1847 14.2741 13.8787 14.7001 13.5067 14.9281C13.1347 15.1561 13.0687 14.8681 12.5407 15.1681C12.0127 15.4681 11.7187 15.9421 11.5327 15.3421C11.4728 15.131 11.4718 14.9076 11.53 14.696C11.5882 14.4844 11.7033 14.2928 11.8627 14.1421C11.9527 14.0521 11.8387 13.7101 11.8387 13.7101Z" fill="#1E4E57"/>
<path d="M10.5067 22.4039C10.5067 22.4039 11.7907 19.1039 13.8307 19.1459C15.8707 19.1879 15.6007 21.2459 16.2007 21.7079C16.8007 22.1699 17.0767 22.9079 15.8887 22.9079C14.7007 22.9079 14.1427 21.9899 13.3447 21.9779C12.5467 21.9659 12.0787 21.8699 11.4727 22.2479C10.8667 22.6259 10.8427 22.4819 10.6267 22.4819C10.4107 22.4819 10.5067 22.4039 10.5067 22.4039Z" fill="#084F59"/>
<path d="M26.0163 20.058C26.0163 20.058 26.0163 19.698 26.3283 19.68C26.6403 19.662 26.9283 19.68 27.0243 19.872C27.0714 20.2723 26.9916 20.6774 26.7963 21.03C26.6103 21.282 26.1183 21.63 25.8603 21.918C25.6023 22.206 25.2603 22.794 25.1403 22.302C25.0203 21.81 25.0323 21.516 25.3443 21.258C25.5764 21.0223 25.7348 20.7242 25.8003 20.4C25.8499 20.2733 25.9232 20.1572 26.0163 20.058Z" fill="#14869A"/>
<path d="M27.3249 19.1461C27.4276 19.1461 27.5109 18.9957 27.5109 18.8101C27.5109 18.6246 27.4276 18.4741 27.3249 18.4741C27.2222 18.4741 27.1389 18.6246 27.1389 18.8101C27.1389 18.9957 27.2222 19.1461 27.3249 19.1461Z" fill="#14869A"/>
</g>
<defs>
<clipPath id="clip0_47_6905">
<rect width="30" height="30" fill="white"/>
</clipPath>
</defs>
</svg>
