<svg width="32" height="32" viewBox="0 0 32 32" fill="none" xmlns="http://www.w3.org/2000/svg">
<mask id="mask0_5_6677" style="mask-type:alpha" maskUnits="userSpaceOnUse" x="1" y="1" width="30" height="30">
<rect x="1" y="1" width="30" height="30" fill="#D9D9D9"/>
</mask>
<g mask="url(#mask0_5_6677)">
<path d="M16.0126 29.2812C14.1611 29.2812 12.4307 28.9366 10.8212 28.2474C9.21176 27.5581 7.8036 26.6101 6.59675 25.4032C5.3899 24.1964 4.44185 22.7889 3.75262 21.1808C3.06337 19.5726 2.71875 17.8419 2.71875 15.9887C2.71875 14.1354 3.06337 12.4033 3.75262 10.7923C4.44185 9.18128 5.38826 7.77702 6.59184 6.5795C7.79543 5.38196 9.20205 4.43391 10.8117 3.73534C12.4214 3.03678 14.1537 2.6875 16.0087 2.6875C17.8637 2.6875 19.5979 3.03598 21.2114 3.73294C22.8249 4.42987 24.2296 5.37573 25.4256 6.5705C26.6215 7.76527 27.5684 9.17024 28.266 10.7854C28.9637 12.4006 29.3125 14.136 29.3125 15.9917C29.3125 17.8461 28.9632 19.5778 28.2647 21.1869C27.5661 22.796 26.618 24.2008 25.4205 25.4013C24.223 26.6018 22.8185 27.5485 21.207 28.2416C19.5956 28.9347 17.8641 29.2812 16.0126 29.2812ZM16 26.3438C18.612 26.3438 20.8639 25.5104 22.7559 23.8438C24.6478 22.1771 25.7812 20.1146 26.1562 17.6562C26.1562 17.6979 26.1615 17.7422 26.1719 17.7891C26.1823 17.8359 26.1875 17.8646 26.1875 17.875C25.9375 18.1667 25.6365 18.3958 25.2846 18.5625C24.9327 18.7292 24.5462 18.8125 24.125 18.8125H21.7812C21.0164 18.8125 20.3616 18.5391 19.817 17.9924C19.2723 17.4458 19 16.7886 19 16.0208V14.625H13.4375V12.0443C13.4375 11.2572 13.7109 10.5947 14.2576 10.0568C14.8043 9.51895 15.4614 9.25 16.2292 9.25H17.625V8.5625C17.625 8.11781 17.7812 7.61081 18.0938 7.0415C18.4062 6.47217 18.7708 6.17708 19.1875 6.15625C18.6872 6.0199 18.1708 5.90247 17.6383 5.80397C17.1059 5.70549 16.5635 5.65625 16.0112 5.65625C13.1287 5.65625 10.6823 6.6595 8.67188 8.666C6.66146 10.6725 5.65625 13.1172 5.65625 16C5.65625 16.0833 5.66146 16.1615 5.67188 16.2344C5.68229 16.3073 5.6875 16.3854 5.6875 16.4688H8.9375C10.4792 16.4688 11.7917 17.0104 12.875 18.0938C13.9583 19.1771 14.5 20.4841 14.5 22.0147V23.4062H10.3438V24.9062C11.1771 25.3438 12.0711 25.6927 13.0258 25.9531C13.9805 26.2135 14.9719 26.3438 16 26.3438Z" fill="white"/>
</g>
</svg>
