<svg width="32" height="32" viewBox="0 0 32 32" fill="none" xmlns="http://www.w3.org/2000/svg">
<mask id="mask0_5_6687" style="mask-type:alpha" maskUnits="userSpaceOnUse" x="1" y="1" width="30" height="30">
<rect x="1" y="1" width="30" height="30" fill="#D9D9D9"/>
</mask>
<g mask="url(#mask0_5_6687)">
<path d="M16.0125 27.25C14.4463 27.25 12.9849 26.9548 11.6283 26.3644C10.2717 25.774 9.08159 24.9675 8.05809 23.945C7.03461 22.9224 6.2274 21.7327 5.63644 20.3758C5.04548 19.0189 4.75 17.5565 4.75 15.9886C4.75 14.4367 5.0452 12.9776 5.63559 11.6114C6.22601 10.2452 7.03249 9.05555 8.05503 8.04247C9.07757 7.02941 10.2673 6.2274 11.6242 5.63644C12.9811 5.04548 14.4435 4.75 16.0114 4.75C17.5633 4.75 19.0224 5.0452 20.3886 5.63559C21.7548 6.22601 22.9444 7.02728 23.9575 8.03941C24.9706 9.05153 25.7726 10.2417 26.3636 11.6099C26.9545 12.9782 27.25 14.4374 27.25 15.9875C27.25 17.5537 26.9548 19.0151 26.3644 20.3717C25.774 21.7283 24.9727 22.9165 23.9606 23.9361C22.9485 24.9558 21.7583 25.763 20.3901 26.3578C19.0218 26.9526 17.5626 27.25 16.0125 27.25ZM16 26.2885C18.87 26.2885 21.3022 25.2881 23.2967 23.2873C25.2912 21.2865 26.2885 18.8574 26.2885 16V15.6731C26.2885 15.5705 26.2805 15.4559 26.2644 15.3293C26.2035 15.855 25.9822 16.2921 25.6003 16.6406C25.2185 16.9892 24.7556 17.1635 24.2115 17.1635H21.0385C20.4407 17.1635 19.9387 16.9607 19.5325 16.5551C19.1262 16.1495 18.9231 15.6482 18.9231 15.0514V13.9953H14.6923V11.8832C14.6923 11.3024 14.8954 10.8033 15.3017 10.3858C15.7079 9.96833 16.2099 9.75959 16.8077 9.75959H17.8654V8.49519C17.8654 7.95352 18.0661 7.47676 18.4676 7.06491C18.869 6.65305 19.3429 6.45113 19.8894 6.45913C19.2884 6.21233 18.6646 6.02604 18.018 5.90025C17.3713 5.77444 16.6987 5.71153 16 5.71153C13.1426 5.71153 10.7135 6.70878 8.71275 8.70328C6.71194 10.6978 5.71153 13.13 5.71153 16V16.3606C5.71153 16.4728 5.71954 16.5929 5.73556 16.7212H10.6154C11.7981 16.7212 12.7989 17.1306 13.6178 17.9495C14.4367 18.7684 14.8462 19.7656 14.8462 20.941V22.0096H11.6731V25.3389C12.3333 25.645 13.0281 25.8798 13.7574 26.0433C14.4868 26.2067 15.2343 26.2885 16 26.2885Z" fill="white"/>
</g>
</svg>
