<svg width="108" height="123" viewBox="0 0 108 123" fill="none" xmlns="http://www.w3.org/2000/svg">
<path fill-rule="evenodd" clip-rule="evenodd" d="M7.75867 41.1155C7.75867 41.1155 8.39631 35.802 8.8214 32.9326C8.8214 32.9326 12.4347 27.8316 18.1734 23.687L25.8251 24.1121C25.8251 24.1121 10.3092 36.5459 7.75867 41.1155Z" fill="url(#paint0_linear_47_6265)"/>
<path fill-rule="evenodd" clip-rule="evenodd" d="M18.1739 23.687C18.1739 23.687 18.1739 27.9379 14.2418 31.3386C10.3097 34.7392 8.60928 33.5703 8.60928 33.5703L7.65283 40.3716L25.7193 24.1121L18.1739 23.687Z" fill="url(#paint1_linear_47_6265)"/>
<path fill-rule="evenodd" clip-rule="evenodd" d="M100.641 68.2146C100.641 72.9969 100.003 77.7791 98.7277 82.1362C96.1772 91.063 91.1823 98.9271 84.5934 105.091C79.9174 109.448 74.2849 112.955 68.121 115.293C62.5948 117.418 56.5373 118.587 50.2672 118.587C49.417 118.587 48.4605 118.587 47.6103 118.481C46.3351 118.375 44.9535 118.269 43.6782 118.162C34.0074 116.887 25.0804 112.849 17.9601 106.791C15.3033 104.559 12.859 102.009 10.6273 99.2459C9.03321 97.1205 7.54538 94.9951 6.27011 92.6571C5.95129 92.1257 5.63247 91.4881 5.31366 90.9567C5.31366 90.9567 5.31366 90.9567 5.31366 90.8505C4.99484 90.2128 4.676 89.6815 4.46345 89.0439C3.61327 87.131 2.86935 85.1118 2.23171 83.0927C1.80662 81.6048 1.38155 80.1171 1.06273 78.6292C0.850185 77.5665 0.637639 76.5038 0.531366 75.3348C0.212546 72.9969 0 70.6589 0 68.2146C0 66.8331 -1.94624e-05 65.4516 0.212527 64.0701C0.3188 63.2199 0.425092 62.3697 0.531366 61.5195C1.169 56.5248 2.55054 51.8488 4.56973 47.4917C5.52619 45.3663 6.69521 43.2409 7.97048 41.328C10.0959 38.0336 12.5402 34.9517 15.4096 32.1886C24.4428 23.3681 36.8768 17.9482 50.4797 17.9482C51.0111 17.9482 51.5425 17.9482 52.0738 17.9482C52.6052 17.9482 53.2428 17.9482 53.7742 18.0545C56.6435 18.2671 59.5129 18.6921 62.276 19.3298C63.8701 19.7549 65.4642 20.1799 66.9521 20.7113C68.0148 21.0301 68.9712 21.4552 70.034 21.8803C70.7779 22.1991 71.5218 22.5179 72.2657 22.8367C72.372 22.943 72.4783 22.943 72.6908 23.0493C77.5794 25.3872 82.0428 28.5754 85.8687 32.4012C86.4 32.9325 86.9314 33.4639 87.4628 34.1015C87.7816 34.5266 88.2067 34.8454 88.5255 35.2705C89.1631 35.9081 89.6945 36.652 90.2259 37.2896C92.2451 39.8402 93.9454 42.6032 95.4332 45.4726C97.1336 48.8732 98.5152 52.4865 99.4716 56.206C100.109 59.9255 100.641 63.9638 100.641 68.2146Z" fill="url(#paint2_radial_47_6265)"/>
<path fill-rule="evenodd" clip-rule="evenodd" d="M72.372 22.943C72.1594 22.943 72.0531 22.943 71.8406 23.0492C71.3092 23.1555 70.7779 23.0492 70.2465 22.943C69.8214 22.8367 69.6089 22.6241 69.0775 22.6241C68.4399 22.5179 67.9085 22.3053 67.2709 22.1991C66.6332 22.0928 66.1019 21.8803 65.4642 21.6677C64.9328 21.4552 64.7203 21.5614 64.2952 21.6677C63.8701 21.774 63.5513 21.5614 63.1262 21.4552C62.7011 21.2426 62.1697 21.2426 61.7447 21.1364C60.4694 20.9238 59.1941 20.4987 57.9188 20.1799C57.1749 19.9674 56.431 19.9674 55.5808 19.9674C54.9432 19.9674 54.4118 20.1799 53.7742 20.1799C53.3491 20.1799 53.0303 20.0736 52.6052 20.0736C52.1801 19.9674 51.755 20.0736 51.3299 20.0736C50.6923 19.9674 50.3734 19.8611 49.7358 20.0736C49.2044 20.1799 48.8856 20.1799 48.3543 20.2862C47.8229 20.2862 47.1853 20.4987 46.6539 20.605C45.6974 20.8175 44.6347 21.0301 43.6782 21.0301C43.0406 21.0301 42.1904 20.8175 41.659 21.0301C41.3402 21.1363 41.1277 21.5614 40.8089 21.774C40.2775 22.3053 39.7461 22.7304 39.3211 23.2618C38.896 23.7931 38.4708 24.4308 38.4708 25.1747C38.4708 25.8123 38.7897 26.5562 39.1085 27.0876C39.4273 27.7252 39.5336 28.2565 38.8959 28.6816C38.152 29.213 37.1956 29.6381 36.3454 29.9569C35.7077 30.1694 35.1764 30.2757 34.7513 29.8506C34.5387 29.7443 34.4325 29.4255 34.2199 29.213C34.0074 29.1067 33.6886 29.213 33.476 29.3193C32.8384 29.5318 32.2007 29.7443 31.5631 29.8506C31.138 29.9569 30.8192 30.1694 30.3941 30.1694C29.969 30.2757 29.6502 29.9569 29.1188 30.0632C28.4812 30.1694 27.7373 30.4882 27.0996 30.4882C26.5683 30.4882 25.9306 30.2757 25.5055 30.0632C25.293 29.9569 25.1867 29.7443 24.8679 29.8506C24.6554 29.8506 24.3365 30.1694 24.2303 30.382C24.0177 30.5945 24.0177 30.9133 23.8052 31.1259C23.5926 31.4447 23.4864 31.6572 23.2738 31.976C22.955 32.5074 22.6362 33.0388 22.3174 33.5701C22.1048 33.8889 21.8922 34.4203 21.5734 34.7391C21.4672 34.9516 21.1483 35.0579 20.9358 35.1642C20.4044 35.483 19.8731 35.9081 19.3417 36.2269C18.3852 36.9708 17.4288 37.821 16.4723 38.5649C15.7284 39.0962 14.6657 39.415 13.8155 39.8401C13.2841 40.0527 12.7528 40.2652 12.2214 40.4778C12.0089 40.584 11.69 40.584 11.5838 40.7966C11.3712 41.0091 11.2649 41.2217 11.1587 41.5405C10.7336 42.0718 10.2022 42.7095 9.88339 43.3471C9.67084 43.7722 9.56457 44.091 9.35202 44.5161C9.13947 45.0474 8.82065 45.5788 8.71438 46.2164C8.28928 47.3854 8.28929 48.6607 7.75792 49.8296C7.54538 50.4673 7.12029 51.1049 6.80147 51.7425C6.27011 52.8052 6.16382 54.0805 6.05755 55.2495C5.95127 55.8871 6.05755 56.7373 6.16383 57.3749C6.2701 58.1188 6.27011 58.8627 6.27011 59.6066C6.27011 60.3505 5.73875 61.2007 5.31366 61.732C4.88856 62.2634 4.14465 62.476 3.61328 63.0073C3.18819 63.4324 2.65681 63.8575 2.44427 64.4951C2.338 64.7076 2.44427 65.0265 2.44427 65.3453C2.338 65.9829 2.12546 66.5143 2.12546 67.1519C2.01919 67.8958 2.01918 68.6397 2.01918 69.4899C2.01918 69.915 2.01918 70.2338 2.01918 70.6589C2.01918 71.0839 2.12544 71.4028 2.23171 71.7216C2.23171 71.9341 2.23171 72.2529 2.23171 72.4655C2.23171 72.7843 2.44427 73.1031 2.44427 73.3156C2.65681 74.0595 2.76308 74.6972 2.86935 75.4411C2.97563 76.0787 3.29445 76.7163 3.40072 77.354C3.71954 78.2041 3.82582 79.0543 4.03837 80.0107C4.14464 80.6484 4.14465 81.3923 4.25092 82.0299C4.3572 82.5613 4.46345 83.0926 4.46345 83.624C4.46345 84.4741 4.25092 85.218 4.25092 86.0682C4.25092 87.4497 4.78228 88.8313 5.1011 90.2128C5.20737 90.6379 5.31363 90.9567 5.4199 91.3818C1.91289 84.5804 0 76.8226 0 68.6397C0 58.6502 2.86937 49.4046 7.8642 41.6467C9.98967 38.3523 12.4339 35.2705 15.3033 32.6137C24.3365 23.7931 36.7705 18.3733 50.3735 18.3733C51.4362 18.3733 52.6052 18.3733 53.6679 18.4796C60.2569 18.3733 66.6332 20.0736 72.372 22.943Z" fill="url(#paint3_linear_47_6265)"/>
<path opacity="0.1" fill-rule="evenodd" clip-rule="evenodd" d="M53.4562 91.807C53.4562 91.807 58.1322 98.7147 64.4023 104.347C70.6724 109.979 71.5226 113.805 71.5226 113.805C71.5226 113.805 83.3189 108.917 91.7145 97.2269C100.11 85.6433 53.4562 91.807 53.4562 91.807Z" fill="black"/>
<path opacity="0.4" fill-rule="evenodd" clip-rule="evenodd" d="M61.9585 19.2236C59.1954 18.5859 56.4323 18.1609 53.4567 17.9483C52.9253 17.9483 52.2877 17.842 51.7563 17.842C52.9253 18.4797 54.0943 19.6487 54.3069 20.9239C54.732 23.0493 55.4759 24.9622 55.7947 26.9814C56.2198 29.0005 56.1135 31.5511 55.1571 33.3577C54.6257 34.5267 53.8818 35.4831 52.9253 36.4396C52.2877 37.0772 51.65 37.5023 51.225 38.3524C50.7999 39.2026 50.2685 39.9465 49.7371 40.6904C48.9932 41.8594 48.1431 43.0284 47.1866 44.0911C46.8678 44.5162 46.549 44.7287 46.2301 45.1538C45.9113 45.6852 45.6987 46.2165 45.2737 46.6416C44.3172 47.5981 42.9357 48.2357 41.7667 48.6608C40.1726 49.2984 38.791 49.936 37.3032 50.7862C35.1777 51.9552 33.3711 53.3367 30.9268 53.443C30.0766 53.443 29.2264 53.3367 28.3762 53.443C27.3135 53.5493 26.3571 53.9743 25.4006 54.1869C24.5504 54.3994 23.594 54.5057 22.7438 54.7182C21.256 54.9308 20.0869 55.4621 18.7054 55.781C16.8987 56.206 14.9858 56.0998 13.0729 56.4186C11.3725 56.6311 9.991 56.8437 8.29063 56.4186C5.74008 55.781 4.35851 54.612 4.88988 51.8489C5.2087 50.0423 5.10245 48.6608 4.25226 47.3855C2.23308 51.7426 0.851506 56.5249 0.213867 61.4133C1.38287 61.9447 2.76442 62.1572 3.93343 62.2635C7.65298 62.6886 11.6914 60.9883 15.0921 59.713C16.7925 59.0754 18.5991 58.1189 20.512 57.9064C22.5312 57.6938 24.2316 57.9064 26.2508 57.4813C33.0523 55.781 39.7475 53.443 45.9113 49.8298C48.4619 48.342 49.5246 46.2165 51.3312 44.0911C52.8191 42.1782 54.6257 40.6904 56.4323 39.0963C58.239 37.5023 59.8331 36.0145 60.8958 33.889C62.0648 31.6573 63.0213 29.1068 63.5526 26.6626C64.084 23.8995 63.3401 21.349 61.9585 19.2236ZM61.6397 26.0249C61.5335 26.5563 61.4272 27.1939 61.3209 27.7253C60.8958 29.1068 60.0456 30.4883 58.7704 31.126C58.239 31.4448 57.3888 31.2322 57.07 30.7009C56.8574 30.3821 56.8574 29.957 56.8574 29.6382C56.7512 28.8943 56.6449 28.2566 56.6449 27.5127C56.6449 25.8124 56.6449 24.1121 56.4323 22.4117C56.6449 23.3682 56.4324 20.9239 57.9202 20.2863C58.6641 19.9675 59.7268 20.2863 60.2582 20.8176C60.8958 21.5615 61.1084 22.7305 61.3209 23.5807C61.5334 24.5371 61.746 25.1748 61.6397 26.0249Z" fill="url(#paint4_linear_47_6265)"/>
<path opacity="0.4" fill-rule="evenodd" clip-rule="evenodd" d="M54.3055 106.472C54.1993 106.472 53.9867 106.579 53.8805 106.579L54.8369 106.685C54.8369 106.579 54.6244 106.472 54.3055 106.472ZM54.3055 106.472C54.1993 106.472 53.9867 106.579 53.8805 106.579L54.8369 106.685C54.8369 106.579 54.6244 106.472 54.3055 106.472ZM99.1528 55.9934C99.1528 57.2687 98.7277 58.6502 98.7277 59.9255C98.7277 61.7321 98.4089 63.1136 97.9838 64.8139C97.665 65.9829 97.0274 66.8331 96.7085 68.0021C96.2834 69.2773 95.6458 70.4463 95.0082 71.6153C93.7329 73.9533 92.3513 76.3975 91.82 79.0543C91.2886 81.4986 91.1823 83.5177 90.0133 85.7494C88.8443 87.8748 87.144 89.6815 85.8687 91.8069C85.3373 92.7633 84.9122 92.7633 83.9558 93.401C82.9993 94.1449 82.0428 95.2076 81.0864 95.9515C79.0672 97.5456 77.1543 98.7145 74.6037 99.671C73.0096 100.309 71.5218 100.734 69.8214 100.946C68.7587 101.159 67.696 100.946 66.6332 101.159C64.9329 101.478 63.3388 101.903 61.6384 102.434C58.9816 103.284 56.2185 103.816 53.5616 104.666C51.6487 105.197 49.8421 105.622 47.9292 105.941C46.7602 106.154 45.8037 106.791 44.6347 106.579C43.4657 106.366 42.2967 105.941 41.1277 105.516C39.6399 105.091 38.3646 104.985 36.7705 104.985C34.645 104.985 32.0945 105.303 29.8627 104.878C27.4184 104.453 25.0805 103.709 22.6362 103.284C21.1483 102.965 20.0856 102.328 18.7041 101.796C17.4288 101.159 16.1535 101.053 14.772 100.627C13.3904 100.202 12.0089 99.5647 10.6273 99.2459C12.7528 102.009 15.1971 104.559 17.9602 106.791C25.0805 112.849 33.9011 116.887 43.6782 118.162C44.9535 118.268 46.2288 118.481 47.6104 118.481C50.4797 117.843 53.2428 116.993 56.1122 116.143C60.8945 114.655 65.0391 111.786 69.8214 110.404C71.6281 109.873 73.2222 109.342 74.8163 108.492C76.0916 107.854 77.3668 107.748 78.5358 107.216C82.9993 105.303 86.2938 101.053 88.3129 96.8017C89.1631 94.8888 90.0133 92.7633 91.7137 91.2755C92.3513 90.6379 93.2015 90.2128 93.7329 89.4689C94.3705 88.725 94.7956 87.8749 95.4333 87.0247C96.496 85.6432 97.4524 84.1554 98.4089 82.7738C98.5152 82.5613 98.6215 82.455 98.7277 82.2425C100.003 77.7791 100.641 73.1031 100.641 68.3209C100.641 63.9638 100.109 59.9255 99.1528 55.9934ZM52.924 106.791C53.1366 106.685 53.3491 106.472 53.5616 106.366C53.7742 106.26 54.093 106.366 54.3055 106.472C54.7306 106.366 55.0495 106.366 55.3683 106.579C55.5808 106.685 55.8996 106.897 56.0059 107.11C56.1122 107.323 56.0059 107.429 55.7934 107.641C55.5808 107.854 55.4746 107.854 55.1557 107.854C54.6244 107.96 54.093 108.066 53.4554 107.96C53.1366 107.96 52.6052 107.854 52.3926 107.641C52.3926 107.216 52.7115 107.004 52.924 106.791ZM56.2185 113.38C55.8997 113.805 55.5808 114.23 55.1557 114.443C54.7307 114.762 54.3056 114.868 53.9867 115.187C52.924 115.718 51.8613 116.356 50.7985 116.674C50.3735 116.781 49.8421 116.781 49.417 116.781C48.8856 116.887 48.248 116.887 47.7166 116.887C47.079 116.887 46.3351 116.993 45.6974 117.1C45.0598 117.1 44.3159 117.206 43.6782 117.206C42.5092 117.312 41.5528 117.1 40.49 116.674C39.5336 116.356 38.5771 115.824 37.727 115.293C37.0893 114.868 36.558 114.336 36.1329 113.805C35.6015 113.38 35.2827 112.849 34.9639 112.211C34.8576 111.998 34.7513 111.786 34.8576 111.467C34.8576 111.361 34.9639 111.255 34.9639 111.255C35.1764 111.148 35.3889 110.936 35.4952 110.936C35.814 110.723 36.2391 110.723 36.6642 110.617C37.6207 110.511 38.5771 110.617 39.5336 110.723C40.065 110.723 40.5963 110.829 41.1277 110.723C41.8716 110.617 42.6155 110.404 43.2531 110.192C44.9535 109.767 46.6539 109.342 48.3543 109.235C50.0546 109.023 51.9676 108.81 53.6679 109.129C54.3056 109.235 55.1557 109.448 55.6871 109.767C56.1122 110.086 56.431 110.511 56.6436 110.936C56.9624 111.786 56.7498 112.636 56.2185 113.38ZM69.6089 109.023C69.2901 109.342 68.865 109.554 68.4399 109.873C67.9085 110.298 67.3772 110.511 66.8458 110.829C66.4207 111.148 65.8893 111.361 65.4642 111.573C64.9329 111.786 64.5078 111.998 63.9764 112.317C63.445 112.53 62.9137 112.742 62.3823 112.955C61.9572 113.061 61.5321 113.274 61.107 113.167C60.7882 113.061 60.3631 112.955 60.1506 112.742C59.7255 112.317 59.8318 111.892 59.938 111.68C59.938 111.361 59.8318 110.829 59.938 110.404C60.0443 110.192 60.2569 109.873 60.3631 109.66C60.7882 108.81 61.4259 108.279 62.0635 107.641C62.5949 107.11 63.2325 106.685 63.9764 106.366C64.8266 106.047 65.8893 105.941 66.7395 105.835C67.696 105.728 69.3963 105.622 69.9277 106.791C70.2465 107.535 70.1403 108.279 69.6089 109.023ZM54.9432 106.579C54.8369 106.579 54.6244 106.472 54.4118 106.366C54.3055 106.366 54.093 106.472 53.9867 106.472L54.9432 106.579Z" fill="url(#paint5_linear_47_6265)"/>
<path opacity="0.4" fill-rule="evenodd" clip-rule="evenodd" d="M95.1149 45.2602V45.4727C95.0087 46.8542 94.4773 47.8107 93.9459 49.0859C93.5208 50.1486 93.0957 50.9988 92.5644 51.9553C91.7142 53.5493 91.2891 55.0371 90.6515 56.8438C89.5887 59.5005 89.1636 62.3699 87.5695 64.8141C86.188 67.0458 85.7629 69.7026 84.7002 72.0406C83.4249 74.6974 81.4057 76.504 79.2802 78.4169C78.3238 79.267 77.4736 80.3297 76.6234 81.2862C75.6669 82.2426 75.0293 83.5179 73.8603 84.3681C71.5223 86.0684 68.8655 87.5562 66.5275 89.3628C65.1459 90.4255 64.1895 91.9133 62.5954 92.7635C61.1075 93.72 59.4072 94.3576 57.9194 95.2078C56.5378 96.0579 55.1563 96.9081 53.6684 97.5457C51.9681 98.1834 50.5865 97.9708 48.7799 98.0771C46.8669 98.1834 44.8478 98.7147 43.0411 99.3523C41.5533 99.8837 40.278 100.415 38.6839 99.8837C37.6212 99.5649 36.771 98.821 35.7083 98.6084C33.1577 98.0771 30.3946 98.6084 27.844 98.5022C25.8249 98.3959 23.6994 97.9708 21.6802 97.5457C19.7673 97.2269 18.1732 95.8454 16.3666 95.314C14.0286 94.6764 11.3717 95.2078 9.24625 94.3576C8.28979 94.0388 7.43961 93.2949 6.6957 92.7635C6.48316 92.6572 6.37688 92.551 6.16434 92.4447C5.84552 91.9133 5.52671 91.2757 5.20789 90.7444C5.73925 90.9569 6.27062 91.1694 6.80198 91.4883C9.67136 92.8698 13.2846 92.6572 16.3666 93.1886C19.8736 93.8262 23.3806 94.6764 26.8876 95.1015C28.3754 95.314 29.757 95.2078 31.2448 95.1015C33.264 94.8889 35.2832 94.8889 37.3023 94.5701C40.7031 93.9325 44.1038 92.3384 47.6109 92.7635C48.2485 92.8698 48.9924 93.1886 49.63 93.1886C50.5865 93.1886 51.3304 92.3384 52.0743 91.8071C53.4559 90.9569 54.9437 91.0632 56.219 89.8942C57.388 88.7252 58.7695 87.9813 60.2573 87.2374C64.0832 85.3245 67.1651 82.1364 70.247 79.0545C72.7976 76.504 75.2419 73.8472 76.9422 70.7653C78.6426 67.6834 78.3238 63.9639 79.5991 60.7758C80.5555 58.4378 81.2994 56.3124 82.7873 54.2932C83.5312 53.3368 84.3813 52.4866 85.1253 51.5302C85.9754 50.5737 86.4005 49.511 87.0382 48.342C87.6758 47.0668 88.6323 46.0041 89.1636 44.6225C89.695 43.3473 89.5887 42.2846 89.5887 40.903C89.5887 39.5215 89.5887 38.0337 89.5887 36.5459C91.8205 39.6278 93.6271 42.3908 95.1149 45.2602Z" fill="url(#paint6_linear_47_6265)"/>
<path opacity="0.4" fill-rule="evenodd" clip-rule="evenodd" d="M87.144 33.8892C86.6126 33.3579 86.0812 32.7202 85.5499 32.1889C81.724 28.3631 77.2605 25.2812 72.372 22.837C72.2657 22.7307 72.1594 22.7307 71.9469 22.6245C71.203 22.3056 70.459 21.9868 69.7151 21.668C68.6524 21.2429 67.696 20.8178 66.6332 20.499C66.952 20.7116 67.3772 20.9241 67.4834 20.9241C68.1211 21.2429 68.6524 21.4555 69.0775 21.9868C69.5026 22.5182 69.7151 22.9433 69.7151 23.6872C69.7151 24.3248 69.8214 25.0687 69.9277 25.7063C70.034 26.344 70.3528 26.8753 70.4591 27.5129C70.5653 27.8318 70.5653 28.1506 70.6716 28.5757C70.8842 29.4258 71.203 30.276 71.4155 31.1262C71.7343 32.7202 70.8841 33.9955 70.3528 35.377C69.5026 37.6087 68.9712 39.8404 68.2273 42.1784C67.696 43.985 66.7395 45.7916 65.358 47.1732C63.9764 48.4484 61.9572 48.7672 60.7882 50.1488C59.7255 51.424 58.4502 52.593 56.9624 53.2306C55.262 54.0808 53.3491 54.7184 51.5425 55.2498C50.2672 55.6749 48.8856 55.6749 47.5041 55.9937C45.8037 56.4188 44.3159 57.269 42.8281 57.9066C41.1277 58.6505 39.6399 59.5006 37.9395 60.2445C36.2391 60.9884 34.7513 61.9449 33.0509 62.5825C32.2007 62.9013 31.3506 63.1139 30.6066 63.3264C28.9063 63.9641 27.3122 65.0268 25.5055 65.2393C24.8679 65.3456 24.2303 65.4519 23.5926 65.4519C23.0612 65.4519 22.6362 65.5581 22.2111 65.6644C20.617 66.302 19.6605 68.0024 17.8539 68.1086C16.1535 68.1086 14.5594 68.0024 12.9653 68.2149C12.1151 68.3212 11.3712 68.2149 10.6273 68.3212C10.4148 68.3212 10.0959 68.4275 9.88339 68.3212C9.67084 68.2149 9.35203 68.0024 9.03321 67.7898C8.39558 67.471 7.8642 67.0459 7.33284 66.6208C6.27011 65.7707 4.88856 66.302 3.71956 65.9832C3.40074 65.8769 2.86937 65.9832 2.55055 65.7707C1.80664 65.3456 0.850165 64.3891 0.212527 63.8578C0.106254 65.2393 0 66.6208 0 68.0024C0 70.4466 0.212546 72.7846 0.531366 75.1226C0.637639 76.1853 0.850185 77.248 1.06273 78.417C1.38155 79.9048 1.80662 81.4988 2.23171 82.8804C2.86935 84.8995 3.61327 86.9187 4.46345 88.8316C5.845 89.0441 7.22655 89.2567 8.6081 89.0441C10.6273 88.7253 12.5402 88.4065 14.5594 88.5128C16.4723 88.619 18.1727 89.2567 19.9793 89.5755C21.9985 89.8943 24.124 90.2131 26.2494 90.3194C28.1624 90.4256 30.0753 90.6382 31.8819 90.8507C33.2635 91.0633 34.7513 91.2758 36.1329 91.3821C39.8524 91.5946 43.4657 90.6382 47.079 90.3194C48.8856 90.1068 50.6923 89.6817 52.4989 89.2567C53.5616 89.0441 54.6244 88.7253 55.5808 88.0877C56.8561 87.2375 57.7063 86.0685 58.769 85.1121C60.0443 84.0494 61.3196 82.9866 62.5949 82.0302C63.6576 81.18 64.7203 80.2236 65.8893 79.4797C66.7395 78.9483 67.696 78.3107 68.5462 77.6731C70.1403 76.3978 71.5218 74.91 72.9033 73.3159C74.8162 71.0842 75.5602 68.0024 76.3041 65.2393C77.048 62.6888 77.4731 60.2446 78.8546 57.9066C79.4923 56.8439 80.0236 55.5686 80.3424 54.2934C80.555 53.5494 80.6613 52.593 80.9801 51.8491C81.5115 50.6801 82.6805 49.7237 83.3181 48.661C83.8495 47.8108 84.4871 46.9606 84.8059 45.8979C85.5498 43.985 86.0812 42.0721 86.4 39.9467C86.6126 38.4589 87.1439 36.9711 87.569 35.4833C87.6753 35.2708 87.6753 34.9519 87.7816 34.7394C87.7816 34.6331 87.4628 34.208 87.144 33.8892ZM21.5734 68.3212C21.6797 68.1086 23.5926 67.3647 23.8052 67.2585C23.8052 67.2585 23.8052 67.2585 23.6989 67.2585L22.4236 67.7898C23.8052 67.3647 26.2494 68.7463 25.0804 70.2341C24.7616 70.6592 23.8052 70.8717 23.2738 70.978C22.7424 71.0842 22.4236 70.8717 22.1048 70.4466C21.786 70.0215 21.5734 69.3839 21.5734 68.8525C21.5734 68.7463 21.5734 68.4275 21.5734 68.3212ZM6.58891 81.8177C5.10109 81.3926 4.14463 80.8612 3.29444 79.586C2.6568 78.7358 2.23173 77.9919 2.01918 77.0354C1.91291 76.1853 1.59408 75.5476 1.80662 74.6975C1.9129 74.0598 2.23173 73.3159 2.55055 72.7846C2.86937 72.147 3.40072 71.4031 3.40072 71.1905C4.88854 71.0842 6.27009 70.978 7.65164 70.978C9.24574 70.978 10.9461 71.1905 12.5402 71.1905C13.2841 71.1905 14.028 71.1905 14.772 71.0842C15.5159 70.978 16.1535 70.7654 16.8974 70.6592C18.1727 70.4466 19.3417 70.3403 20.5107 70.8717C21.3609 71.2968 21.786 72.3595 22.2111 73.2097C22.4236 73.741 22.6362 74.0598 22.6362 74.6975C22.6362 75.4414 22.6362 76.079 22.5299 76.7166C22.5299 76.9292 22.4236 77.248 22.4236 77.4605C21.3609 79.6922 18.5978 80.4361 16.4723 81.2863C13.2841 82.5616 9.77711 82.6678 6.58891 81.8177ZM29.2251 86.7061C28.5875 88.4065 25.8244 88.9379 24.2303 89.0441C23.4863 89.0441 22.5299 88.9379 21.786 88.5128C21.3609 88.3002 21.0421 87.8751 20.7233 87.4501C20.5107 87.1312 20.1919 86.5999 19.3417 86.8124C19.5542 85.856 19.7668 85.0058 20.1919 84.1556C20.5107 83.7305 20.9358 83.4117 21.3609 82.9866C22.1048 82.349 22.955 81.7114 23.8052 81.2863C25.1867 80.5424 26.6745 81.0738 27.9498 81.7114C28.9063 82.1365 29.5439 82.7741 29.7565 83.7306C30.0753 84.8995 29.6502 85.6434 29.2251 86.7061ZM47.9291 86.3873C47.3978 87.5563 46.6539 87.8751 45.5912 88.5128C44.3159 89.1504 42.6155 89.6818 41.234 89.6818C40.49 89.6818 39.7461 89.3629 39.1085 89.0441C38.6834 88.8316 38.152 88.7253 37.8332 88.4065C36.8767 87.4501 36.6642 86.1748 37.3018 86.3873C36.8767 85.5372 36.6642 84.687 36.5579 83.8368C36.7705 83.7305 36.8768 83.518 36.8768 83.3055C37.4081 82.349 38.3646 81.4988 39.4273 80.9675C41.1277 80.011 43.3594 79.7985 45.2723 80.6487C46.1225 80.9675 46.6539 81.3926 47.1853 82.0302C47.5041 82.349 47.8229 82.5616 48.1417 82.9866C48.4605 83.8368 48.248 85.4309 47.9291 86.3873ZM53.5616 86.1748C53.2428 86.3873 52.7115 86.8124 52.3926 86.8124C52.0738 86.7061 51.5425 86.1748 51.5425 85.7497L51.3299 85.5372C51.755 84.7933 52.1801 84.1556 52.6052 83.4117C53.2428 83.7305 53.8804 83.6243 54.3055 84.3682C54.8369 85.1121 54.093 85.7497 53.5616 86.1748ZM67.9085 52.6993C67.3772 53.4432 66.6332 54.1871 65.7831 54.5059C64.7203 54.931 63.2325 55.3561 63.1262 53.6557C63.1262 52.6993 63.2325 51.9554 63.6576 51.1052C64.2952 49.8299 64.8266 49.5111 66.1019 48.8735C66.5269 48.8735 67.0583 49.0861 67.3772 49.1923C68.0148 49.4049 68.6524 50.0425 68.7587 50.7864C68.865 51.5303 68.3336 52.1679 67.9085 52.6993ZM81.1926 45.5791C80.6613 47.2794 79.9174 48.8735 79.1735 50.3613C78.3233 52.2742 78.217 54.2934 77.6856 56.3125C77.4731 57.4815 76.8354 58.7567 75.7727 59.1818C75.2414 59.3944 74.8163 59.2881 74.2849 59.2881C73.7535 59.2881 72.9033 59.5007 72.9033 59.9257C72.5845 59.0756 72.1594 58.0129 71.9469 57.1627C71.7343 56.2062 71.6281 55.1435 71.5218 54.0808C71.3092 53.0181 71.3093 51.9554 71.203 50.8927C71.0967 49.9362 70.8841 48.8735 70.8841 47.9171C70.8841 44.6226 72.7971 40.4781 75.879 38.9903C76.8355 38.5652 77.7919 38.3526 78.8546 38.4589C80.0236 38.6714 80.7676 38.9903 81.2989 40.1593C81.9366 41.7533 81.6177 43.8787 81.1926 45.5791Z" fill="url(#paint7_linear_47_6265)"/>
<path opacity="0.4" fill-rule="evenodd" clip-rule="evenodd" d="M66.7074 49.9475C66.6012 50.0538 66.3886 50.0538 66.2823 50.16C65.9635 50.16 65.751 50.0538 65.5385 50.16L66.7074 49.9475Z" fill="url(#paint8_linear_47_6265)"/>
<path fill-rule="evenodd" clip-rule="evenodd" d="M52.1493 74.3902C50.0238 73.3275 52.4681 63.8693 54.5936 61.7439C56.719 59.6185 62.3515 64.5069 62.9891 68.439C63.7331 72.4773 57.1441 76.7282 52.1493 74.3902Z" fill="url(#paint9_linear_47_6265)"/>
<path opacity="0.4" fill-rule="evenodd" clip-rule="evenodd" d="M3.29492 71.1905C3.18865 71.1905 3.0824 71.1905 3.0824 71.1905C3.29494 71.0843 3.29492 71.0843 3.29492 71.1905Z" fill="url(#paint10_linear_47_6265)"/>
<path fill-rule="evenodd" clip-rule="evenodd" d="M59.9385 18.7985L68.7591 15.2915C68.7591 15.2915 82.7872 20.7114 91.7141 32.72L92.2455 40.3716C92.2455 40.3716 75.4543 33.889 59.9385 18.7985Z" fill="url(#paint11_linear_47_6265)"/>
<path fill-rule="evenodd" clip-rule="evenodd" d="M92.0331 96.4829C92.0331 96.4829 84.594 104.559 79.0678 106.26L74.498 107.641C74.498 107.641 53.5622 100.096 52.3932 87.0247C51.4368 75.9725 70.2471 59.0753 75.3482 57.0561C80.4493 55.037 86.4006 56.206 86.4006 56.206L92.0331 96.4829Z" fill="url(#paint12_linear_47_6265)"/>
<path fill-rule="evenodd" clip-rule="evenodd" d="M86.4011 56.206C81.9376 54.8245 62.9147 63.645 57.7073 83.3053C56.6446 87.3436 66.3155 102.54 77.8992 106.26C81.7251 107.535 99.3664 92.1258 100.11 81.7112C100.854 71.2966 92.99 58.3315 86.4011 56.206Z" fill="url(#paint13_linear_47_6265)"/>
<path fill-rule="evenodd" clip-rule="evenodd" d="M58.9821 85.6435C61.7452 63.3265 82.0433 55.9938 86.5068 57.3753C89.695 58.438 94.371 63.114 97.1341 67.6837C94.371 61.945 90.2263 57.2691 86.5068 56.1001C82.0433 54.7185 63.0204 63.5391 57.813 83.1993C57.4942 84.5808 58.3444 87.3439 60.2573 90.532C59.0883 88.5129 58.7695 86.7062 58.9821 85.6435Z" fill="url(#paint14_linear_47_6265)"/>
<path opacity="0.3" fill-rule="evenodd" clip-rule="evenodd" d="M21.5742 109.661C21.5742 109.661 26.144 111.361 29.4385 110.405C29.4385 110.405 30.7137 99.6713 26.6753 92.7637C22.637 85.856 15.7292 96.2706 15.7292 96.2706L14.1351 102.859C14.1351 102.859 17.961 107.429 21.5742 109.661Z" fill="black"/>
<path fill-rule="evenodd" clip-rule="evenodd" d="M25.5063 107.96L28.3757 107.217C28.3757 107.217 29.7572 101.265 27.3129 94.464C24.5498 86.8125 14.3476 81.0738 12.8598 80.9675C11.372 80.8613 9.88416 84.2619 9.88416 84.2619L25.5063 107.96Z" fill="url(#paint15_linear_47_6265)"/>
<path fill-rule="evenodd" clip-rule="evenodd" d="M71.5218 113.805L66.6333 120.075C66.6333 120.075 58.2377 124.114 49.7358 122.201L43.572 118.056L71.5218 113.805Z" fill="url(#paint16_linear_47_6265)"/>
<path fill-rule="evenodd" clip-rule="evenodd" d="M7.75892 88.9376C8.29029 86.5996 10.3095 82.7738 12.1161 82.3487C13.9228 81.9236 22.6372 90.2128 24.6563 95.5264C26.6755 100.84 25.6128 106.685 25.5065 107.854C25.4003 109.023 15.6231 105.728 10.6283 101.69C5.73975 97.6518 7.75892 88.9376 7.75892 88.9376Z" fill="url(#paint17_linear_47_6265)"/>
<path fill-rule="evenodd" clip-rule="evenodd" d="M24.6558 95.5263C22.6366 90.2127 14.0285 82.0298 12.1156 82.3486C11.3717 82.4549 10.6278 83.1988 9.99011 84.049C10.4152 83.6239 10.8403 83.4114 11.2654 83.3051C13.072 82.88 21.8927 89.4688 23.9119 94.7824C26.3562 101.265 24.9746 105.941 24.7621 108.066C25.1872 108.066 25.506 108.066 25.506 107.854C25.6123 106.685 26.675 100.84 24.6558 95.5263Z" fill="url(#paint18_linear_47_6265)"/>
<path fill-rule="evenodd" clip-rule="evenodd" d="M54.094 72.3593C52.3936 71.5091 54.3065 63.645 56.0069 61.8384C57.7073 60.1381 62.1707 64.1764 62.8084 67.4708C63.446 70.7652 58.1324 74.2722 54.094 72.3593Z" fill="url(#paint19_linear_47_6265)"/>
<path fill-rule="evenodd" clip-rule="evenodd" d="M68.7591 15.2915C68.7591 15.2915 69.1842 20.6051 75.2418 27.1939C81.2994 33.7827 91.7141 32.72 91.7141 32.72L92.2455 40.3716C92.2455 40.3716 70.1407 30.5946 59.9385 18.7985L68.7591 15.2915Z" fill="url(#paint20_linear_47_6265)"/>
<path fill-rule="evenodd" clip-rule="evenodd" d="M86.0825 62.795C85.8699 63.0076 85.2323 63.4327 85.7636 63.7515C85.8699 63.8578 85.9762 63.7515 86.0825 63.8578C86.1888 63.8578 86.1887 63.964 86.295 63.964C86.6138 63.7515 86.5076 62.6888 86.0825 62.795Z" fill="#0EDBFF"/>
<path fill-rule="evenodd" clip-rule="evenodd" d="M106.912 53.8683C106.699 54.0808 106.062 54.5059 106.593 54.8247C106.699 54.931 106.806 54.8247 106.912 54.931C107.018 54.931 107.018 55.0373 107.124 55.0373C107.55 54.7185 107.337 53.762 106.912 53.8683Z" fill="#0EDBFF"/>
<path fill-rule="evenodd" clip-rule="evenodd" d="M97.7725 90.851C97.56 91.0635 96.9223 91.4886 97.4537 91.8074C97.56 91.9137 97.6663 91.8074 97.7725 91.9137C97.8788 91.9137 97.8788 92.0199 97.9851 92.0199C98.4102 91.8074 98.1976 90.7447 97.7725 90.851Z" fill="#0EDBFF"/>
<path fill-rule="evenodd" clip-rule="evenodd" d="M87.889 66.5147C88.1016 66.4084 88.2079 66.4084 88.4204 66.4084C88.4204 66.621 88.6329 67.0461 88.3141 67.2586C88.1016 67.3649 88.1016 66.9398 87.9953 66.8335L87.889 66.5147Z" fill="#0EDBFF"/>
<path fill-rule="evenodd" clip-rule="evenodd" d="M54.8381 68.7464C55.157 68.8527 55.4758 69.0652 55.7946 69.1715C55.9009 69.0652 56.0072 69.0652 56.2197 69.0652C56.4323 68.9589 56.5385 68.7464 56.5385 68.5338C56.6448 68.215 56.5385 68.0025 56.326 67.7899C56.2197 67.6837 56.1134 67.4711 56.0071 67.3649C55.9009 67.2586 55.582 67.2586 55.3695 67.3649C55.157 67.4711 55.0507 67.6837 54.9444 67.8962C54.8381 68.1088 54.6256 68.3213 54.6256 68.5338C54.6256 68.7464 54.8381 68.9589 54.9444 69.1715L54.8381 68.7464Z" fill="#0EDBFF"/>
<path fill-rule="evenodd" clip-rule="evenodd" d="M7.86551 93.8262C8.18433 93.9325 8.50315 94.145 8.82196 94.2513C8.92824 94.145 9.0345 94.145 9.24705 94.145C9.4596 94.0388 9.56589 93.8262 9.56589 93.6137C9.67216 93.2949 9.56588 93.0823 9.35333 92.8698C9.24706 92.7635 9.1408 92.551 9.03452 92.4447C8.92825 92.3384 8.60943 92.3384 8.39688 92.4447C8.18433 92.551 8.07807 92.7635 7.97179 92.9761C7.86552 93.1886 7.65295 93.4011 7.65295 93.6137C7.65295 93.8262 7.86552 94.0388 7.97179 94.2513L7.86551 93.8262Z" fill="#0EDBFF"/>
<path fill-rule="evenodd" clip-rule="evenodd" d="M99.3666 106.898C99.6854 107.004 100.004 107.217 100.323 107.323C100.429 107.217 100.536 107.217 100.748 107.217C100.961 107.11 101.067 106.898 101.067 106.685C101.173 106.366 101.067 106.154 100.854 105.941C100.748 105.835 100.642 105.622 100.536 105.516C100.429 105.41 100.111 105.41 99.898 105.516C99.6854 105.622 99.5791 105.835 99.4729 106.048C99.3666 106.26 99.1541 106.473 99.1541 106.685C99.1541 106.898 99.3666 107.11 99.4729 107.323L99.3666 106.898Z" fill="#0EDBFF"/>
<path fill-rule="evenodd" clip-rule="evenodd" d="M92.7776 97.7586C93.0964 97.8649 93.4153 98.0774 93.7341 98.1837C93.8403 98.0774 93.9466 98.0774 94.1592 98.0774C94.3717 97.9711 94.478 97.7586 94.478 97.5461C94.5843 97.2272 94.478 97.0147 94.2654 96.8022C94.1592 96.6959 94.0529 96.4833 93.9466 96.3771C93.8404 96.2708 93.5215 96.2708 93.309 96.3771C93.0964 96.4833 92.9902 96.6959 92.8839 96.9084C92.7776 97.121 92.5651 97.3335 92.5651 97.5461C92.5651 97.7586 92.7776 97.9711 92.8839 98.1837L92.7776 97.7586Z" fill="#0EDBFF"/>
<path fill-rule="evenodd" clip-rule="evenodd" d="M1.48905 34.4206C2.33923 34.7395 3.18941 35.0583 4.0396 35.4834C4.35842 35.2708 4.67723 35.2708 4.99605 35.0583C5.42114 34.7395 5.73995 34.2081 5.9525 33.783C6.16505 33.0391 5.84623 32.5078 5.52741 31.9764C5.31487 31.6576 5.10234 31.1262 4.78352 30.8074C4.35843 30.4886 3.61452 30.5949 3.18942 30.8074C2.65806 31.02 2.33923 31.5513 2.02041 31.9764C1.70159 32.4015 1.38276 33.1454 1.27649 33.6767C1.27649 34.2081 1.7016 34.8457 2.12669 35.1645L1.48905 34.4206Z" fill="#0EDBFF"/>
<path fill-rule="evenodd" clip-rule="evenodd" d="M56.9635 3.81444C57.8137 4.13326 58.6639 4.45207 59.5141 4.87716C59.8329 4.66461 60.1517 4.66462 60.4705 4.45207C60.8956 4.13326 61.2144 3.6019 61.427 3.17681C61.6395 2.43291 61.3207 1.90156 61.0019 1.3702C60.7894 1.05138 60.5768 0.520028 60.258 0.201213C59.8329 -0.117601 59.089 -0.0113295 58.6639 0.201213C58.1325 0.413756 57.8137 0.945112 57.4949 1.3702C57.176 1.79528 56.8572 2.53919 56.751 3.07054C56.751 3.6019 57.1761 4.23953 57.6011 4.55834L56.9635 3.81444Z" fill="#0EDBFF"/>
<path fill-rule="evenodd" clip-rule="evenodd" d="M64.2965 77.0355C64.1902 77.1418 64.0839 77.2481 63.9777 77.4606C64.0839 77.6732 64.1902 77.7794 64.4027 77.8857C64.509 77.8857 64.6153 77.8857 64.7216 77.8857C64.8279 77.7794 64.7216 77.6732 64.8279 77.5669C64.9341 77.3544 64.9341 77.2481 64.8279 77.0355C64.7216 76.9293 64.7216 76.823 64.6153 76.823C64.509 76.823 64.2965 76.823 64.2965 76.9293V77.0355Z" fill="#0EDBFF"/>
<path fill-rule="evenodd" clip-rule="evenodd" d="M65.0404 82.3491C65.0404 82.4554 64.7216 83.093 65.0404 82.8805C65.2529 82.7742 65.2529 82.4554 65.0404 82.3491C65.1467 82.3491 65.1467 82.3491 65.0404 82.3491Z" fill="#0EDBFF"/>
<path fill-rule="evenodd" clip-rule="evenodd" d="M81.7253 91.9138C81.5128 92.2326 81.5128 92.3388 81.4065 92.6577C81.5128 92.7639 81.7253 92.7639 81.8316 92.7639C82.0442 92.7639 82.0441 92.6577 82.0441 92.5514C82.0441 92.4451 82.1504 92.2326 82.0441 92.1263C81.9379 91.9138 81.8316 91.8075 81.7253 91.9138Z" fill="#0EDBFF"/>
<path fill-rule="evenodd" clip-rule="evenodd" d="M67.6971 77.6732C67.8034 77.7795 67.9097 77.8858 67.9097 78.0983C67.6972 78.0983 67.6971 77.992 67.6971 77.7795C67.6971 77.567 67.8034 77.6732 67.9097 77.4607C67.9097 77.4607 67.9097 77.4607 68.016 77.4607L67.6971 77.6732Z" fill="#0EDBFF"/>
<path fill-rule="evenodd" clip-rule="evenodd" d="M83.6381 63.4328C83.5319 63.5391 83.4256 63.6453 83.3193 63.7516C83.4256 63.8579 83.3193 64.0704 83.5319 64.0704C83.6381 64.0704 83.7444 63.9641 83.8507 63.7516C83.957 63.6453 83.957 63.5391 83.957 63.3265C83.957 63.2202 83.957 62.9014 83.8507 63.114L83.6381 63.4328Z" fill="#0EDBFF"/>
<path fill-rule="evenodd" clip-rule="evenodd" d="M81.4065 26.3441C81.619 26.3441 81.7253 26.2378 81.9379 26.2378C81.9379 26.2378 82.0441 26.2378 82.1504 26.2378C82.363 26.2378 82.363 26.2378 82.363 26.3441C82.4693 26.4503 82.4692 26.6629 82.4692 26.7692C82.363 27.4068 81.5128 26.4503 81.8316 26.2378L81.4065 26.3441Z" fill="#0EDBFF"/>
<path fill-rule="evenodd" clip-rule="evenodd" d="M13.8167 27.5127C13.4979 27.6189 13.0728 27.6189 13.0728 27.9377C13.0728 28.2566 13.4979 28.4691 13.7104 28.5754C14.1355 28.6816 14.7731 28.7879 14.9857 28.2566C15.0919 27.9377 14.9857 27.4064 14.8794 27.1938C14.5606 26.6625 13.8167 26.875 13.2853 27.0876L13.8167 27.5127Z" fill="#0EDBFF"/>
<path fill-rule="evenodd" clip-rule="evenodd" d="M85.551 92.551C85.4448 91.5946 85.2322 90.6381 86.0824 90.1068C86.5075 89.788 87.3576 89.788 87.889 90.1068C88.2078 90.3193 88.5267 90.7444 88.6329 91.0632C88.9518 91.5946 88.8455 91.5946 88.7392 92.0197C88.4204 93.0824 88.1016 93.72 87.1451 93.72C85.7636 93.72 85.551 92.6573 85.551 91.382V92.551Z" fill="#0EDBFF"/>
<path fill-rule="evenodd" clip-rule="evenodd" d="M86.1886 65.4519C86.6137 65.3456 86.9325 65.133 87.1451 64.8142C86.8263 64.6017 86.2949 64.2829 86.1886 64.8142V65.4519Z" fill="#0EDBFF"/>
<path fill-rule="evenodd" clip-rule="evenodd" d="M9.99084 90.0007C10.4159 89.8944 10.7347 89.6819 10.9473 89.3631C10.6285 89.1505 10.0971 88.8317 9.99084 89.3631V90.0007Z" fill="#0EDBFF"/>
<path fill-rule="evenodd" clip-rule="evenodd" d="M9.99084 98.0773C10.4159 97.9711 10.7347 97.7585 10.9473 97.4397C10.6285 97.2272 10.0971 96.9084 9.99084 97.4397V98.0773Z" fill="#0EDBFF"/>
<path fill-rule="evenodd" clip-rule="evenodd" d="M66.9533 69.1713C67.3784 68.7463 67.9097 67.8961 68.5474 68.3212C68.9725 68.64 69.0787 69.2776 68.6536 69.5964C68.3348 69.809 68.016 69.9152 67.5909 70.0215C67.2721 70.1278 66.847 69.9152 66.9533 69.4902V69.1713Z" fill="#0EDBFF"/>
<path fill-rule="evenodd" clip-rule="evenodd" d="M79.5998 90.0007C80.0249 89.5756 80.5562 88.7254 81.1939 89.1505C81.619 89.4693 81.7252 90.107 81.3002 90.4258C80.9813 90.6383 80.6625 90.7446 80.2374 90.8509C79.9186 90.9571 79.4935 90.7446 79.5998 90.3195V90.0007Z" fill="#0EDBFF"/>
<path fill-rule="evenodd" clip-rule="evenodd" d="M77.6868 20.9241C78.2182 21.0303 79.2809 21.0303 79.1747 21.8805C79.1747 22.3056 78.537 22.837 78.1119 22.6244C77.6869 22.4119 77.4743 22.1993 77.1555 21.8805C76.9429 21.668 76.8367 21.1366 77.368 21.0303L77.6868 20.9241Z" fill="#0EDBFF"/>
<path fill-rule="evenodd" clip-rule="evenodd" d="M75.5613 95.4204C75.9864 94.9953 76.5178 94.1451 77.1554 94.5702C77.5805 94.889 77.6868 95.5266 77.2617 95.8455C76.9429 96.058 76.6241 96.1643 76.199 96.2705C75.8801 96.3768 75.455 96.1643 75.5613 95.7392V95.4204Z" fill="#0EDBFF"/>
<path fill-rule="evenodd" clip-rule="evenodd" d="M58.3451 68.4276C57.92 68.7464 57.0698 69.0652 56.9635 69.8091C56.9635 70.2342 57.0698 70.4468 57.4949 70.6593C57.8137 70.7656 58.2388 70.7656 58.5576 70.6593C58.9827 70.4468 59.5141 70.0217 59.7266 69.5966C59.8329 69.2778 59.8329 69.0652 59.7266 68.7464C59.6203 68.5339 59.5141 68.3213 59.3015 68.3213C58.6639 68.1088 58.3451 68.7464 57.92 68.959L58.3451 68.4276Z" fill="#0EDBFF"/>
<path fill-rule="evenodd" clip-rule="evenodd" d="M59.9393 66.727C60.1518 66.8333 60.4706 66.9396 60.5769 67.1521C60.3644 67.2584 60.0455 67.4709 59.7267 67.3647C59.4079 67.2584 59.3016 66.9396 59.4079 66.6207C59.4079 66.4082 59.7267 66.0894 59.9393 66.1957C60.0455 66.1957 60.0455 66.4082 60.0455 66.4082C60.1518 66.6208 60.1518 66.5145 60.0455 66.727H59.9393Z" fill="#0EDBFF"/>
<path fill-rule="evenodd" clip-rule="evenodd" d="M73.1171 63.8578C71.8418 64.9205 70.6728 66.302 70.0352 67.8961C69.7164 68.7463 70.2477 68.7463 70.9916 68.64C72.3732 68.3212 73.861 68.0024 75.2426 67.5773C76.0927 67.3648 77.2617 66.9397 77.7931 66.1958C78.2182 65.6644 78.4307 64.708 78.3245 64.0703C78.2182 63.1139 77.4743 62.7951 76.6241 62.4763C74.6049 61.9449 71.8418 64.0703 71.0979 65.877L73.1171 63.8578Z" fill="#0EDBFF"/>
<path fill-rule="evenodd" clip-rule="evenodd" d="M66.1031 71.0842C66.5282 71.0842 66.847 71.1905 67.2721 71.403C67.1659 71.5093 67.1658 71.7219 67.1658 71.8281C67.0596 72.0407 66.847 72.2532 66.7408 72.3595C66.4219 72.572 65.8906 72.6783 65.5718 72.4658C64.509 72.0407 66.1031 70.7654 66.5282 71.2968L66.1031 71.0842Z" fill="#0EDBFF"/>
<path fill-rule="evenodd" clip-rule="evenodd" d="M7.01522 111.361C6.90894 111.467 6.80268 111.574 6.69641 111.786C6.80268 111.999 6.90895 112.105 7.1215 112.211C7.22777 112.211 7.33406 112.211 7.44034 112.211C7.54661 112.105 7.44031 111.999 7.54658 111.893C7.65286 111.68 7.65286 111.574 7.54658 111.361C7.44031 111.255 7.44033 111.149 7.33406 111.149C7.22778 111.149 7.01522 111.149 7.01522 111.255V111.361Z" fill="#0EDBFF"/>
<path fill-rule="evenodd" clip-rule="evenodd" d="M7.86557 116.675C7.86557 116.781 7.54676 117.418 7.86557 117.206C8.07812 117.1 7.97185 116.781 7.86557 116.675C7.86557 116.781 7.86557 116.675 7.86557 116.675Z" fill="#0EDBFF"/>
<path fill-rule="evenodd" clip-rule="evenodd" d="M10.4159 111.999C10.5222 112.105 10.6285 112.211 10.6285 112.424C10.4159 112.424 10.4159 112.318 10.4159 112.105C10.4159 111.893 10.5222 111.999 10.6285 111.786C10.6285 111.786 10.6284 111.786 10.7347 111.786L10.4159 111.999Z" fill="#0EDBFF"/>
<path fill-rule="evenodd" clip-rule="evenodd" d="M8.82187 105.41C9.24696 105.41 9.56578 105.516 9.99088 105.728C9.8846 105.835 9.8846 106.047 9.8846 106.154C9.77832 106.366 9.56578 106.579 9.45951 106.685C9.14069 106.897 8.60932 107.004 8.2905 106.791C7.22777 106.366 8.82186 105.091 9.24695 105.622L8.82187 105.41Z" fill="#0EDBFF"/>
<path fill-rule="evenodd" clip-rule="evenodd" d="M75.5613 21.8806C75.8802 22.0931 76.3052 22.3057 76.6241 22.6245C76.9429 23.0496 77.2617 23.3684 77.4743 23.7935C77.5805 24.006 77.8994 24.5374 77.4743 24.5374C77.0492 24.6436 76.199 24.006 75.7739 23.6872C75.1363 23.2621 74.6049 22.9433 74.1798 22.3057C73.9672 21.9869 73.6484 21.4555 73.861 21.1367C74.0735 20.8179 74.2861 20.8179 74.6049 20.8179C74.9237 20.8179 75.1363 20.9241 75.4551 21.1367C75.5614 21.243 76.199 21.8806 75.9865 21.9869L75.5613 21.8806Z" fill="#0EDBFF"/>
<path fill-rule="evenodd" clip-rule="evenodd" d="M80.2374 62.0513C80.0249 62.1575 78.7496 62.9014 79.3872 63.2203C79.706 63.4328 80.45 63.3265 80.7688 63.2203C81.0876 63.114 81.4064 62.9014 81.1939 62.5826C80.7688 61.8387 79.8123 62.2638 79.2809 62.5826L80.2374 62.0513Z" fill="#0EDBFF"/>
<path fill-rule="evenodd" clip-rule="evenodd" d="M89.802 18.3733C89.3769 18.6921 85.9762 20.4987 87.5702 21.3489C88.4204 21.774 90.1208 21.6677 90.971 21.2426C91.7149 20.9238 92.5651 20.3925 92.0337 19.5423C91.0772 17.7357 88.633 18.7984 87.3577 19.5423L89.802 18.3733Z" fill="#0EDBFF"/>
<path fill-rule="evenodd" clip-rule="evenodd" d="M10.5222 94.3576C10.6285 95.1015 10.841 95.9517 11.4787 96.483C12.2226 97.0144 12.9665 96.8018 13.7104 96.3768C14.2418 96.0579 14.6669 95.7391 15.1982 95.4203C15.517 95.2078 15.7296 95.2078 15.7296 94.7827C15.7296 94.3576 15.3045 93.72 15.0919 93.4012C14.7731 92.9761 14.1355 92.551 13.7104 92.3384C12.6477 91.9134 10.6285 92.3384 10.6285 93.72L10.5222 94.3576Z" fill="#0EDBFF"/>
<path fill-rule="evenodd" clip-rule="evenodd" d="M80.875 95.9515C80.9813 96.4829 81.0876 97.1205 81.5126 97.4393C82.044 97.8644 82.5754 97.6519 83.1067 97.3331C83.4256 97.1205 83.8507 96.908 84.1695 96.6954C84.382 96.5892 84.5946 96.5892 84.5946 96.2703C84.5946 95.9515 84.2757 95.5264 84.1695 95.3139C83.9569 94.9951 83.5318 94.6763 83.213 94.57C82.4691 94.2512 81.0876 94.57 81.0876 95.5264L80.875 95.9515Z" fill="#0EDBFF"/>
<path fill-rule="evenodd" clip-rule="evenodd" d="M68.866 16.1416C68.866 16.1416 71.204 25.9186 77.6866 29.6381C85.8697 34.314 91.6084 32.72 91.6084 32.72C91.6084 32.72 84.2756 32.5074 77.4741 27.8315C71.8416 23.8994 68.866 16.1416 68.866 16.1416Z" fill="url(#paint21_linear_47_6265)"/>
<path opacity="0.2" fill-rule="evenodd" clip-rule="evenodd" d="M53.4562 91.8072L57.8134 85.4309C57.8134 85.4309 63.4458 101.372 77.899 106.366L74.7108 108.386C74.8171 108.386 59.9388 104.135 53.4562 91.8072Z" fill="black"/>
<path opacity="0.3" fill-rule="evenodd" clip-rule="evenodd" d="M61.7454 20.9238C61.7454 20.9238 82.6812 41.9656 97.772 51.3175C97.772 51.3175 96.2841 45.5788 92.2458 40.2652C92.2458 40.3715 79.5992 36.2269 61.7454 20.9238Z" fill="black"/>
<defs>
<linearGradient id="paint0_linear_47_6265" x1="16.8093" y1="41.1652" x2="16.8093" y2="23.729" gradientUnits="userSpaceOnUse">
<stop stop-color="#9A00B3"/>
<stop offset="1" stop-color="#7F72FF"/>
</linearGradient>
<linearGradient id="paint1_linear_47_6265" x1="12.9508" y1="42.0484" x2="19.5023" y2="22.0469" gradientUnits="userSpaceOnUse">
<stop stop-color="#5B008B"/>
<stop offset="1" stop-color="#8E00FF"/>
</linearGradient>
<radialGradient id="paint2_radial_47_6265" cx="0" cy="0" r="1" gradientUnits="userSpaceOnUse" gradientTransform="translate(19.0733 44.6288) scale(80.8754 80.8742)">
<stop offset="0.00558659" stop-color="#60DBFF"/>
<stop offset="0.0937306" stop-color="#60D5FF"/>
<stop offset="0.211" stop-color="#5FC4FF"/>
<stop offset="0.3446" stop-color="#5DA9FF"/>
<stop offset="0.4903" stop-color="#5A82FF"/>
<stop offset="0.6442" stop-color="#5751FF"/>
<stop offset="0.6844" stop-color="#5643FF"/>
<stop offset="0.7432" stop-color="#563DF8"/>
<stop offset="0.8282" stop-color="#552EE5"/>
<stop offset="0.9287" stop-color="#5315C6"/>
<stop offset="1" stop-color="#5200AB"/>
</radialGradient>
<linearGradient id="paint3_linear_47_6265" x1="-0.0937329" y1="54.3651" x2="72.3312" y2="54.3651" gradientUnits="userSpaceOnUse">
<stop offset="0.0111732" stop-color="#81E0FF"/>
<stop offset="0.3224" stop-color="#82DDFF"/>
<stop offset="0.5506" stop-color="#86D4FF"/>
<stop offset="0.7523" stop-color="#8BC4FF"/>
<stop offset="0.9375" stop-color="#94ADFF"/>
<stop offset="1" stop-color="#97A4FF"/>
</linearGradient>
<linearGradient id="paint4_linear_47_6265" x1="0.366794" y1="40.1145" x2="63.6852" y2="40.1145" gradientUnits="userSpaceOnUse">
<stop stop-color="#B8C2FF"/>
<stop offset="1" stop-color="#7D72B3"/>
</linearGradient>
<linearGradient id="paint5_linear_47_6265" x1="10.6421" y1="87.2445" x2="100.602" y2="87.2445" gradientUnits="userSpaceOnUse">
<stop stop-color="#B8C2FF"/>
<stop offset="1" stop-color="#7D72B3"/>
</linearGradient>
<linearGradient id="paint6_linear_47_6265" x1="5.32893" y1="68.6373" x2="95.1086" y2="68.6373" gradientUnits="userSpaceOnUse">
<stop stop-color="#B8C2FF"/>
<stop offset="1" stop-color="#7D72B3"/>
</linearGradient>
<linearGradient id="paint7_linear_47_6265" x1="-0.0915011" y1="56.0912" x2="88.1577" y2="56.0912" gradientUnits="userSpaceOnUse">
<stop stop-color="#B8C2FF"/>
<stop offset="1" stop-color="#7D72B3"/>
</linearGradient>
<linearGradient id="paint8_linear_47_6265" x1="65.4683" y1="50.1036" x2="66.6797" y2="50.1036" gradientUnits="userSpaceOnUse">
<stop stop-color="#E8DDFF"/>
<stop offset="1" stop-color="#AA8AD8"/>
</linearGradient>
<linearGradient id="paint9_linear_47_6265" x1="55.2551" y1="75.4615" x2="59.5625" y2="62.3117" gradientUnits="userSpaceOnUse">
<stop stop-color="#5B008B"/>
<stop offset="1" stop-color="#8E00FF"/>
</linearGradient>
<linearGradient id="paint10_linear_47_6265" x1="3.06529" y1="71.2018" x2="3.31681" y2="71.2018" gradientUnits="userSpaceOnUse">
<stop stop-color="#E8DDFF"/>
<stop offset="1" stop-color="#AA8AD8"/>
</linearGradient>
<linearGradient id="paint11_linear_47_6265" x1="59.9066" y1="27.8125" x2="92.2197" y2="27.8125" gradientUnits="userSpaceOnUse">
<stop stop-color="#7F72FF"/>
<stop offset="1" stop-color="#9A00B3"/>
</linearGradient>
<linearGradient id="paint12_linear_47_6265" x1="67.2464" y1="105.38" x2="83.637" y2="55.3409" gradientUnits="userSpaceOnUse">
<stop stop-color="#280077"/>
<stop offset="1" stop-color="#812CFF"/>
</linearGradient>
<linearGradient id="paint13_linear_47_6265" x1="71.9389" y1="104.362" x2="87.5747" y2="56.6303" gradientUnits="userSpaceOnUse">
<stop stop-color="#7A00B3"/>
<stop offset="1" stop-color="#B136FF"/>
</linearGradient>
<linearGradient id="paint14_linear_47_6265" x1="77.325" y1="90.6695" x2="77.325" y2="56.0954" gradientUnits="userSpaceOnUse">
<stop stop-color="#8E00B3"/>
<stop offset="1" stop-color="#E05CFF"/>
</linearGradient>
<linearGradient id="paint15_linear_47_6265" x1="16.1863" y1="104.852" x2="22.9567" y2="84.1818" gradientUnits="userSpaceOnUse">
<stop stop-color="#280077"/>
<stop offset="1" stop-color="#812CFF"/>
</linearGradient>
<linearGradient id="paint16_linear_47_6265" x1="57.5848" y1="122.77" x2="57.5848" y2="113.816" gradientUnits="userSpaceOnUse">
<stop stop-color="#7A00B3"/>
<stop offset="0.9162" stop-color="#7006FC"/>
<stop offset="1" stop-color="#7006F9"/>
</linearGradient>
<linearGradient id="paint17_linear_47_6265" x1="16.5927" y1="108.155" x2="16.5927" y2="82.418" gradientUnits="userSpaceOnUse">
<stop stop-color="#7A00B3"/>
<stop offset="1" stop-color="#B136FF"/>
</linearGradient>
<linearGradient id="paint18_linear_47_6265" x1="17.941" y1="108.144" x2="17.941" y2="82.4179" gradientUnits="userSpaceOnUse">
<stop stop-color="#8E00B3"/>
<stop offset="1" stop-color="#E05CFF"/>
</linearGradient>
<linearGradient id="paint19_linear_47_6265" x1="56.5753" y1="73.2248" x2="60.1379" y2="62.3483" gradientUnits="userSpaceOnUse">
<stop stop-color="#A400CA"/>
<stop offset="1" stop-color="#B136FF"/>
</linearGradient>
<linearGradient id="paint20_linear_47_6265" x1="74.4355" y1="34.5223" x2="79.5771" y2="18.8255" gradientUnits="userSpaceOnUse">
<stop stop-color="#5B008B"/>
<stop offset="1" stop-color="#8E00FF"/>
</linearGradient>
<linearGradient id="paint21_linear_47_6265" x1="80.2809" y1="32.986" x2="80.2809" y2="16.1529" gradientUnits="userSpaceOnUse">
<stop stop-color="#B000D9"/>
<stop offset="1" stop-color="#E05CFF"/>
</linearGradient>
</defs>
</svg>
