<svg width="87" height="87" viewBox="0 0 87 87" fill="none" xmlns="http://www.w3.org/2000/svg">
<path opacity="0.92" fill-rule="evenodd" clip-rule="evenodd" d="M86.6734 43.2934C86.6734 55.8212 81.3895 67.0707 72.867 74.9965C68.7763 78.7463 64.0037 81.8144 58.7197 83.7745C53.9472 85.5642 48.7485 86.5869 43.3793 86.5869C41.4192 86.5869 39.5442 86.4164 37.6693 86.246C35.9648 85.9903 34.2603 85.7346 32.641 85.3085C28.7207 84.2858 25.056 82.7518 21.647 80.7917C19.5164 79.5133 17.471 78.1497 15.5109 76.5305C10.994 72.7807 7.32932 68.0934 4.68735 62.8948C2.98286 59.5711 1.78972 56.0769 0.937469 52.3271C0.340897 49.4295 0 46.4467 0 43.3787C0 34.8563 2.47151 26.8453 6.73274 20.1127C8.52246 17.3003 10.6531 14.6584 13.1246 12.2721C20.9653 4.68728 31.6183 0 43.2941 0C44.2316 0 45.169 -7.8037e-06 46.1065 0.0852155C51.0495 0.426109 55.7369 1.53401 60.0833 3.3237C60.8504 3.6646 61.6174 4.00549 62.2992 4.34638C65.4525 5.8804 68.3501 7.75531 70.9921 10.0563C71.9296 10.8233 72.7818 11.5904 73.5488 12.3574C73.8897 12.613 74.1454 12.9539 74.4011 13.2948C82.0713 21.0502 86.6734 31.6178 86.6734 43.2934Z" fill="url(#paint0_radial_47_6250)"/>
<path fill-rule="evenodd" clip-rule="evenodd" d="M83.6905 43.2933C83.6905 54.9689 78.7475 65.4514 70.8216 72.8658C67.0717 76.3599 62.5548 79.1723 57.697 81.0472C53.2653 82.7517 48.4075 83.6891 43.3792 83.6891C41.5895 83.6891 39.7998 83.6039 38.0953 83.3482C36.4761 83.1778 34.942 82.8369 33.408 82.4108C29.7433 81.4733 26.3343 80.0245 23.181 78.2348C21.1356 77.0417 19.2607 75.7634 17.471 74.2294C13.295 70.7352 9.80075 66.3888 7.32924 61.5311C5.7952 58.463 4.60206 55.1394 3.83503 51.6452C3.23846 48.918 2.98279 46.1909 2.98279 43.2933C2.98279 35.2823 5.28385 27.8679 9.28941 21.6466C10.9939 19.0047 12.9541 16.5332 15.2551 14.3174C22.4992 7.24384 32.4705 2.89746 43.3792 2.89746C44.2315 2.89746 45.169 2.89747 46.0212 2.98269C50.6233 3.32358 54.9698 4.34625 58.9753 6.05072C59.6571 6.30639 60.3389 6.64729 61.0207 6.98818C63.9184 8.43698 66.6456 10.2267 69.2023 12.272C70.0545 12.9538 70.8216 13.7208 71.5886 14.4878C71.8443 14.7435 72.1852 14.9992 72.4408 15.3401C79.4293 22.584 83.6905 32.4699 83.6905 43.2933Z" fill="url(#paint1_radial_47_6250)"/>
<path opacity="0.4" fill-rule="evenodd" clip-rule="evenodd" d="M83.6907 43.2934C83.6907 54.969 78.7477 65.4515 70.8218 72.8659C67.0719 76.3601 62.555 79.1724 57.6972 81.0473C53.2655 82.7518 48.4077 83.6892 43.3795 83.6892C41.5898 83.6892 39.8001 83.604 38.0956 83.3484C32.7264 82.6666 27.6982 80.8769 23.1813 78.235C24.5449 77.8941 25.8232 77.468 27.1868 77.1271C30.4254 76.2748 33.4934 75.3374 36.732 74.9965C38.0103 74.826 40.141 74.3147 40.141 72.6954C40.141 72.2693 40.0557 72.0989 40.3114 71.8432C40.6523 71.5875 40.9932 71.6728 41.3341 71.5876C42.2716 71.4171 43.0386 70.3944 43.6352 69.7126C44.5726 68.6047 45.6806 67.4968 46.7885 66.5594C48.9191 64.6845 51.8167 63.747 53.1803 61.0199C53.5212 60.2529 53.6064 59.4858 53.7769 58.7188C53.9473 57.7814 54.6291 57.1848 55.4814 56.7587C56.4189 56.1621 57.5268 55.9917 58.379 55.2247C59.2313 54.5429 59.5722 53.435 59.9131 52.4123C60.4244 50.7931 60.3392 49.0886 60.5949 47.3842C60.6801 46.5319 60.9358 45.6797 61.021 44.8274C61.021 43.9752 60.7653 43.3787 60.4244 42.6116C59.9983 41.3333 59.3165 39.9697 58.8051 38.6914C58.6347 38.18 58.2938 37.8391 57.8677 37.4982C57.2711 36.9869 56.845 36.3903 56.2484 35.879C55.8223 35.5381 55.3109 35.2824 54.97 34.9415C54.6291 34.6859 54.3735 34.2598 54.1178 33.9189C53.6064 33.4075 53.0951 32.811 52.4133 32.3848C50.794 31.5326 49.8566 29.9134 47.9816 29.5725C45.6806 29.1463 43.8056 26.7601 41.4193 27.6123C39.8853 28.1237 38.3512 28.7202 36.6467 29.1463C35.6241 29.402 34.4309 29.402 33.4082 29.7429C32.8116 29.9986 32.1298 30.5099 31.7037 31.0213C31.0219 31.7883 30.7663 32.811 30.1697 33.578C29.7436 34.1745 29.4879 34.7711 29.0618 35.4529C28.38 36.7312 28.38 38.0096 28.38 39.4584C28.38 40.2254 28.2947 41.0776 28.38 41.8446C28.4652 42.7821 28.8913 43.4639 29.4879 44.2309C29.8288 44.657 30.0845 45.424 30.5106 45.7649C30.7663 45.9353 30.9367 45.8501 31.1924 46.0206C31.6185 46.191 31.7889 46.3615 32.1298 46.6171C33.1525 47.3841 34.2605 48.1511 35.5388 48.4068C36.2206 48.5773 36.8172 48.6625 37.4138 48.9182C37.9251 49.1738 38.5217 49.2591 39.1183 49.3443C40.4819 49.5147 41.675 49.0034 42.6977 48.1512C43.3795 47.6398 43.8056 47.2137 44.317 46.5319C44.5726 46.191 44.7431 45.9354 45.1692 45.6797C45.4249 45.5092 45.6806 45.3388 46.0215 45.424C46.2771 45.424 46.5328 45.7649 46.8737 45.5945C47.1294 45.424 47.2998 44.657 47.385 44.4865C47.5555 44.0604 47.6407 43.5491 47.8112 43.2082C48.1521 42.5264 48.6634 42.6969 49.3452 42.6969C49.7713 42.6969 50.3679 42.6116 50.7088 42.2708C50.9645 41.8446 50.8793 41.0776 50.7088 40.6515C50.3679 40.0549 49.6009 39.5436 49.1748 39.1175C48.8339 38.7766 48.5782 38.3505 48.2373 37.9244C47.7259 37.1574 47.4703 35.6233 46.3624 35.4529C45.9362 35.3677 45.3397 35.4529 44.9135 35.4529C44.4022 35.4529 44.0613 35.3677 43.5499 35.1972C42.7829 35.0268 42.1011 34.7711 41.2489 34.7711C40.2262 34.7711 39.3739 35.0268 38.4365 35.4529C38.0103 35.6233 37.7547 35.5381 37.3285 35.6233C36.9024 35.7938 36.2206 36.646 36.1354 37.1574C35.965 38.0948 36.3058 38.947 37.2433 39.3731C37.499 39.4584 38.1808 39.5436 38.4365 39.7993C38.6921 40.1402 38.5217 40.5663 38.3512 40.9072C38.0103 41.8446 38.1808 42.9525 39.2887 43.123C40.0557 43.2082 40.8228 42.7821 41.4193 42.4412C41.9307 42.1855 42.8681 42.1003 42.8681 41.4185C42.7829 41.7594 42.2716 41.589 42.0159 41.589C41.4193 41.589 41.0784 41.589 40.6523 41.2481C40.2262 40.9072 40.141 40.5663 39.9705 40.1402C39.8853 39.9697 39.8001 39.6288 39.6296 39.4584C39.5444 39.2879 39.2035 39.1175 39.2035 38.947C38.8626 38.18 41.4193 37.7539 41.8454 37.6687C42.8681 37.5835 43.6352 38.2652 44.2317 39.0323C44.4874 39.3731 44.9988 39.8845 44.9988 40.3106C44.9988 40.7367 44.6579 41.4185 44.4874 41.8446C44.317 42.2708 44.2317 42.6116 44.0613 43.0378C43.8908 43.5491 43.6352 43.6343 43.209 43.89C42.7829 44.1457 42.442 44.4866 42.1011 44.8274C41.675 45.1683 41.1637 45.2535 40.6523 45.3388C39.8853 45.5092 39.2035 45.0831 38.4365 45.1683C37.7547 45.1683 37.2433 45.5945 36.6467 45.5945C35.2832 45.6797 34.1752 45.5092 33.6639 44.0604C33.4934 43.4639 33.6639 43.2082 34.0048 42.7821C34.4309 42.356 34.2605 42.0151 34.09 41.5037C33.8343 40.9072 33.5787 40.3958 33.4934 39.7993C33.4082 39.2027 33.7491 38.5209 33.8343 37.8391C33.9196 37.3278 33.6639 36.5608 33.8343 36.1347C34.0048 35.7086 34.857 35.2824 35.2832 34.9415C35.7945 34.6007 36.3911 34.4302 36.9876 34.0893C37.6694 33.7484 38.1808 33.8337 38.8626 33.7484C39.4592 33.6632 39.7148 33.2371 40.2262 32.9814C40.8228 32.7257 41.5898 32.8962 42.1863 32.8962C42.8681 32.8962 43.209 33.1518 43.8056 33.4075C44.4022 33.6632 44.8283 34.0893 45.5101 34.1745C46.2771 34.2598 47.0441 34.0893 47.8112 34.1745C48.5782 34.2598 48.8339 34.6007 49.4304 35.0268C50.027 35.4529 50.4531 35.7085 50.9645 36.3903C51.2202 36.7312 51.3054 37.0721 51.5611 37.3278C51.8167 37.6687 51.9872 37.8391 52.1576 38.2652C52.3281 38.7766 52.669 39.2879 52.8394 39.8845C52.9246 40.2254 53.0099 40.4811 53.0099 40.8219C52.9246 41.2481 52.7542 41.6742 52.7542 42.1003C52.7542 43.123 52.3281 43.89 51.902 44.8274C51.4758 45.7649 51.0497 46.7024 50.6236 47.6398C50.3679 48.2364 50.2827 49.5147 49.4304 49.6852C49.0043 49.7704 48.5782 49.6852 48.1521 49.9408C47.7259 50.1965 47.6407 50.7078 47.2998 50.9635C46.9589 51.3044 46.5328 51.134 46.1067 51.134C45.4249 51.134 44.8283 51.2192 44.2317 51.4749C43.4647 51.8158 42.9534 52.4975 42.2716 52.9237C41.675 53.1793 40.9932 53.5202 40.3114 53.6054C39.8001 53.6907 39.3739 53.6054 38.8626 53.7759C37.7547 54.1168 36.9024 54.7986 35.7945 55.2247C34.9423 55.4803 33.9196 55.736 33.0673 55.6508C32.7264 55.6508 32.3855 55.4804 32.0446 55.3951C31.5333 55.2247 30.9367 55.2247 30.3401 55.0542C29.914 54.969 29.4879 54.7986 29.0618 54.6281C28.6356 54.4577 28.38 54.1168 27.9538 53.9463C27.0164 53.5202 26.0789 53.5202 25.2267 52.8384C24.1187 51.9862 23.1813 50.9635 21.9881 50.1965C21.4768 49.8556 21.2211 49.4295 20.8802 49.0034C20.6245 48.5773 20.2836 48.3216 19.9427 47.9807C19.4314 47.4694 19.1757 46.7876 18.92 46.191C18.4939 45.1683 17.9826 44.1457 17.5564 43.0378C17.0451 41.5037 16.3633 40.0549 16.0224 38.4357C15.7667 37.0721 16.1076 35.879 16.1076 34.6007C16.1076 34.2598 16.1928 33.9189 16.1076 33.578C16.0224 33.0666 15.5963 32.7257 15.2554 32.3848C14.2327 31.1917 13.2952 29.9986 12.6986 28.4646C12.1021 26.9306 11.8464 25.0556 12.2725 23.4364C12.6986 21.9876 13.6361 21.2206 14.8293 20.2831C15.9372 19.4309 17.3008 18.7491 18.5791 18.1525C19.1757 17.8117 19.6871 17.4708 20.2836 17.2151C20.8802 16.9594 21.6472 16.8742 22.329 16.7038C22.9256 16.5333 23.3517 16.5333 23.8631 16.1072C24.3744 15.7663 24.971 15.3402 25.3971 14.9141C25.9937 14.4027 26.4198 13.8062 27.272 13.6357C28.2947 13.3801 29.4879 13.0392 30.5106 12.7835C31.8742 12.5278 33.4934 12.8687 34.857 13.0392C36.2206 13.2096 37.499 13.2096 38.8626 13.2096C39.9705 13.2096 41.0784 13.0391 42.1863 12.9539C42.6125 12.9539 43.0386 13.0391 43.4647 12.9539C44.1465 12.9539 44.7431 12.6131 45.4249 12.4426C46.7033 12.1017 47.8112 11.5051 49.0895 11.079C50.027 10.7381 50.9645 10.8234 51.902 10.6529C52.9246 10.4825 53.9473 10.1416 55.0553 10.0563C55.9927 10.0563 56.9302 9.71545 57.7825 10.1416C59.3165 11.079 60.254 12.6983 61.788 13.6357C63.4073 14.5732 65.197 15.255 66.9015 15.9367C67.4981 16.1924 68.1799 15.8515 68.6912 16.1072C68.9469 16.1924 69.2878 16.6185 69.4582 16.8742C69.7139 16.7038 69.6287 16.3629 69.6287 16.1072C69.6287 15.6811 69.8843 15.3402 69.8843 14.9141C69.8843 14.4027 69.9696 13.8062 69.8843 13.2948C69.7991 13.0392 69.4582 12.4426 69.4582 12.0165C70.3105 12.6983 71.0775 13.4653 71.8445 14.2323C79.0886 21.8171 83.6907 32.0439 83.6907 43.2934Z" fill="url(#paint2_radial_47_6250)"/>
<path opacity="0.3" fill-rule="evenodd" clip-rule="evenodd" d="M16.4483 55.5656C16.1926 56.4178 16.1074 57.3553 16.0222 58.2927C16.2778 58.2075 16.6187 58.8041 16.8744 58.8893C17.3858 59.0597 17.8119 59.0597 18.238 59.3154C18.6641 59.5711 19.0902 60.1676 19.5164 60.2528C19.772 60.3381 20.1982 60.2528 20.5391 60.2528C21.2209 60.2528 21.8174 60.2528 22.414 60.4233C23.0958 60.5937 23.948 60.7642 24.6298 60.679C25.056 60.5937 25.823 60.4233 26.1639 60.0824C26.5048 59.7415 26.6752 58.8893 26.7605 58.3779C26.8457 56.9291 25.7378 55.4804 24.6298 54.6281C24.0333 54.202 23.4367 54.202 22.7549 53.8611C21.9879 53.435 21.3061 53.2645 20.4538 53.0089C19.9425 52.8384 19.2607 52.668 18.7493 52.668C18.238 52.668 17.6414 53.0089 17.2153 53.0941C16.7039 53.2645 16.2778 53.2645 15.9369 53.6907C15.596 54.2872 15.7665 54.969 16.4483 55.5656Z" fill="url(#paint3_linear_47_6250)"/>
<path opacity="0.3" fill-rule="evenodd" clip-rule="evenodd" d="M27.8684 60.679C27.6127 61.0198 25.2264 63.0652 26.4196 63.9175C26.5048 64.0027 27.0162 64.0879 27.1014 64.0879C27.4423 64.1731 27.5275 64.0879 27.8684 63.9175C28.465 63.5766 28.5502 62.98 28.3798 62.2982C28.3798 62.1278 28.2093 61.7869 28.1241 61.6164C28.0389 61.3607 27.7832 61.3608 27.698 61.0199L27.8684 60.679Z" fill="url(#paint4_linear_47_6250)"/>
<path opacity="0.3" fill-rule="evenodd" clip-rule="evenodd" d="M41.5896 8.35198C42.0158 8.09631 43.3794 7.32931 44.1464 7.24409C44.4021 7.24409 44.743 7.32931 44.9986 7.32931C45.5952 7.32931 46.1065 7.24409 46.5327 7.67021C46.8736 8.0111 47.044 8.35198 46.7883 8.7781C46.4474 9.37466 45.5952 9.80078 44.9986 10.0564C43.7203 10.8235 42.0158 11.5052 40.4817 11.3348C39.2886 11.2496 38.1807 10.3121 37.0727 9.71556C36.3057 9.28944 34.8569 8.52243 35.7944 7.58498C36.5614 6.81797 37.7545 6.39185 38.8625 6.30663C39.3738 6.30663 40.567 6.13619 40.9078 6.39186C41.334 6.73275 40.9078 8.09632 41.7601 8.0111L41.5896 8.35198Z" fill="url(#paint5_linear_47_6250)"/>
<path fill-rule="evenodd" clip-rule="evenodd" d="M2.38643 35.1119C2.983 43.3786 22.2438 29.9986 40.908 24.1182C62.8107 17.1298 79.4295 32.3848 81.8158 31.5326C85.6509 30.2542 70.0548 0.0851909 45.084 0.511307C16.9598 0.8522 1.36374 21.8171 2.38643 35.1119Z" fill="url(#paint6_linear_47_6250)"/>
<path opacity="0.5" fill-rule="evenodd" clip-rule="evenodd" d="M0.426147 49.3445L1.78974 55.651C1.78974 55.651 9.28951 60.0827 26.7606 58.4634C44.2316 56.8442 48.3224 48.3218 55.1403 43.3789C61.9583 38.4359 75.1681 34.5157 78.5771 30.5954C81.9861 26.7603 79.0885 19.005 79.0885 19.005L77.7249 17.1301C77.7249 17.1301 80.1964 23.7775 77.2135 28.6353C74.3159 33.493 61.2765 35.794 54.2029 42.0153C47.1292 48.2366 32.7263 53.0091 20.3687 53.0943C8.26681 53.1796 0.426147 49.3445 0.426147 49.3445Z" fill="#BDFFE8" fill-opacity="0.5"/>
<path opacity="0.5" fill-rule="evenodd" clip-rule="evenodd" d="M6.22168 65.7071L8.94887 69.7126C8.94887 69.7126 21.4769 73.3772 40.3115 69.7126C59.1462 66.048 73.3787 55.3951 79.941 49.3442C86.5885 43.2934 85.7362 34.8563 85.7362 34.8563L85.1396 32.2996C85.1396 32.2996 83.9465 41.0776 76.6172 49.3442C69.2879 57.6109 57.0155 65.1105 39.374 68.1786C21.8178 71.3318 6.22168 65.7071 6.22168 65.7071Z" fill="#BDFFE8" fill-opacity="0.5"/>
<path opacity="0.5" fill-rule="evenodd" clip-rule="evenodd" d="M2.98279 27.6122C2.98279 27.6122 27.6127 36.0493 46.6178 32.2995C65.6229 28.6349 70.7364 16.3627 71.0772 10.0562L67.583 7.41431C67.583 7.41431 67.6683 20.0274 55.6516 27.6975C43.6349 35.2823 12.7836 30.7655 4.51683 24.2033L2.98279 27.6122Z" fill="#BDFFE8" fill-opacity="0.5"/>
<path fill-rule="evenodd" clip-rule="evenodd" d="M5.62499 42.4412C5.88066 43.9752 9.28965 41.8447 11.9316 36.7313C14.4883 31.6179 14.9997 20.965 13.6361 20.1127C12.3577 19.09 3.75005 31.9587 5.62499 42.4412Z" fill="white"/>
<path fill-rule="evenodd" clip-rule="evenodd" d="M5.88062 44.6571C4.0909 44.9979 4.17612 48.4921 5.28404 49.9409C6.39196 51.3897 7.84078 50.7079 7.92601 47.6399C8.01123 45.8502 7.32944 44.4014 5.88062 44.6571Z" fill="white"/>
<path fill-rule="evenodd" clip-rule="evenodd" d="M57.0151 4.17578C57.0151 4.17578 58.7196 4.6019 59.231 6.90292C59.231 6.98815 57.5265 6.47681 57.0151 4.17578Z" fill="white"/>
<path fill-rule="evenodd" clip-rule="evenodd" d="M25.5673 4.94296C25.5673 4.94296 26.8456 3.40895 29.4024 2.72717C31.4478 2.21583 32.6409 2.30104 33.067 2.21582C33.067 2.21582 28.7206 5.19863 25.5673 4.94296Z" fill="white"/>
<defs>
<radialGradient id="paint0_radial_47_6250" cx="0" cy="0" r="1" gradientUnits="userSpaceOnUse" gradientTransform="translate(43.3399 43.3055) scale(43.3278 43.3271)">
<stop stop-color="#004858"/>
<stop offset="1" stop-color="#008BAB"/>
</radialGradient>
<radialGradient id="paint1_radial_47_6250" cx="0" cy="0" r="1" gradientUnits="userSpaceOnUse" gradientTransform="translate(31.8979 31.8514) scale(59.2251 59.2242)">
<stop offset="0.00558659" stop-color="#00CEC0"/>
<stop offset="0.2576" stop-color="#00CCC0"/>
<stop offset="0.3833" stop-color="#00C4C1"/>
<stop offset="0.4811" stop-color="#00B7C2"/>
<stop offset="0.5645" stop-color="#00A4C4"/>
<stop offset="0.6387" stop-color="#008CC6"/>
<stop offset="0.7054" stop-color="#006EC8"/>
<stop offset="0.7179" stop-color="#0068C9"/>
<stop offset="0.7438" stop-color="#0767CB"/>
<stop offset="0.7813" stop-color="#1A66CF"/>
<stop offset="0.8259" stop-color="#3A63D6"/>
<stop offset="0.8759" stop-color="#6660E0"/>
<stop offset="0.9304" stop-color="#9E5BEC"/>
<stop offset="0.9879" stop-color="#E255FC"/>
<stop offset="1" stop-color="#F154FF"/>
</radialGradient>
<radialGradient id="paint2_radial_47_6250" cx="0" cy="0" r="1" gradientUnits="userSpaceOnUse" gradientTransform="translate(47.8334 46.9156) scale(36.3261 36.3256)">
<stop stop-color="#1372B3"/>
<stop offset="1" stop-color="white"/>
</radialGradient>
<linearGradient id="paint3_linear_47_6250" x1="15.7894" y1="56.7156" x2="26.7733" y2="56.7156" gradientUnits="userSpaceOnUse">
<stop stop-color="#B8C2FF"/>
<stop offset="1" stop-color="#7D72B3"/>
</linearGradient>
<linearGradient id="paint4_linear_47_6250" x1="26.0472" y1="62.4121" x2="28.3102" y2="62.4121" gradientUnits="userSpaceOnUse">
<stop stop-color="#B8C2FF"/>
<stop offset="1" stop-color="#7D72B3"/>
</linearGradient>
<linearGradient id="paint5_linear_47_6250" x1="35.5603" y1="8.89554" x2="46.9344" y2="8.89554" gradientUnits="userSpaceOnUse">
<stop stop-color="#B8C2FF"/>
<stop offset="1" stop-color="#7D72B3"/>
</linearGradient>
<linearGradient id="paint6_linear_47_6250" x1="18.4941" y1="6.84215" x2="60.9348" y2="61.2761" gradientUnits="userSpaceOnUse">
<stop offset="0.0167598" stop-color="#B1FDF9"/>
<stop offset="1" stop-color="#37C7D1" stop-opacity="0"/>
</linearGradient>
</defs>
</svg>
