<svg width="14" height="15" viewBox="0 0 14 15" fill="none" xmlns="http://www.w3.org/2000/svg">
<g clip-path="url(#clip0_12_839)">
<path d="M13.2029 9.99891C13.0881 9.82413 12.9368 9.68507 12.7489 9.58173L13.2029 9.99891ZM13.2029 9.99891C13.3176 10.1737 13.375 10.3573 13.375 10.5496V14.4703L13.2029 9.99891ZM10.3903 8.75187L10.4403 8.42051C10.4476 8.37222 10.4488 8.32968 10.4458 8.29194C10.4458 8.2919 10.4458 8.29186 10.4458 8.29183L10.3903 8.75187ZM10.3903 8.75187L10.6778 8.92406M10.3903 8.75187L10.6778 8.92406M10.6778 8.92406L12.4919 10.0107L12.4998 10.0154M10.6778 8.92406L12.4998 10.0154M12.4998 10.0154L12.5079 10.0199M12.4998 10.0154L12.5079 10.0199M12.5079 10.0199C12.6262 10.0849 12.7161 10.1685 12.7849 10.2733L12.7849 10.2734M12.5079 10.0199L12.7849 10.2734M12.7849 10.2734C12.851 10.374 12.875 10.4633 12.875 10.5496V14.2956L12.7849 10.2734ZM1.21254 10.246C1.27375 10.1474 1.35722 10.0671 1.47317 10.0034L1.48024 9.99948L1.48719 9.99536L3.32025 8.90872L3.56529 8.76346V8.47861V8.02518C3.56529 6.52088 3.8617 5.15581 4.44765 3.92203C4.98295 2.79488 5.82787 1.70688 7 0.661631L1.21254 10.246Z" stroke="white"/>
<path d="M7.375 10.25H6.625V8.75H5.125V8H6.625V6.5H7.375V8H8.875V8.75H7.375V10.25Z" fill="white" stroke="white" stroke-width="0.2"/>
</g>
<defs>
<clipPath id="clip0_12_839">
<rect width="12.75" height="15" fill="white" transform="translate(0.625)"/>
</clipPath>
</defs>
</svg>
