<svg width="25" height="24" viewBox="0 0 25 24" fill="none" xmlns="http://www.w3.org/2000/svg">
<path fill-rule="evenodd" clip-rule="evenodd" d="M12.5817 21.7413C12.4442 21.7471 12.3059 21.75 12.167 21.75C10.7544 21.75 9.41204 21.4496 8.20019 20.9092C7.9684 20.8059 7.74138 20.6937 7.51956 20.5732C4.48024 18.9222 2.41699 15.702 2.41699 12C2.41699 6.61522 6.78222 2.25 12.167 2.25C15.0569 2.25 17.6531 3.50727 19.4385 5.50466C20.4608 6.64833 21.2173 8.03465 21.6109 9.56655C21.6306 9.64337 21.6494 9.72055 21.6673 9.79809C21.8307 10.5057 21.917 11.2428 21.917 12C21.917 17.2458 17.7741 21.524 12.5817 21.7413ZM20.417 12C20.417 16.5563 16.7233 20.25 12.167 20.25C12.0782 20.25 11.9897 20.2486 11.9015 20.2458C11.6201 19.4148 11.4675 18.5243 11.4675 17.5983C11.4675 13.0419 15.1612 9.34827 19.7175 9.34827C19.8064 9.34827 19.8949 9.34967 19.983 9.35246C20.2644 10.1835 20.417 11.0739 20.417 12ZM9.10767 19.6642C9.4835 19.8143 9.87296 19.9376 10.2737 20.0317C10.0738 19.2539 9.96754 18.4385 9.96754 17.5983C9.96754 12.3524 14.1104 8.07422 19.3028 7.85693C19.0756 7.46637 18.8172 7.09617 18.531 6.74973C17.585 6.37176 16.5526 6.16388 15.4717 6.16388C10.9153 6.16388 7.22169 9.85753 7.22169 14.4139C7.22169 16.4085 7.92952 18.2377 9.10767 19.6642ZM6.34122 17.8415C5.94074 16.7752 5.72169 15.6201 5.72169 14.4139C5.72169 9.0291 10.0869 4.66388 15.4717 4.66388C15.6384 4.66388 15.8042 4.66807 15.9689 4.67634C14.8312 4.0845 13.5381 3.75 12.167 3.75C7.61064 3.75 3.91699 7.44365 3.91699 12C3.91699 14.2822 4.84365 16.3479 6.34122 17.8415Z" fill="#F2F2F2"/>
</svg>
