<svg width="23" height="27" viewBox="0 0 23 27" fill="none" xmlns="http://www.w3.org/2000/svg">
<path d="M3.28496 17.717C3.00978 16.516 2.8714 15.2878 2.87246 14.0557C2.87246 7.69575 6.50121 2.26075 11.6225 0.0782471C16.7437 2.26075 20.3725 7.69575 20.3725 14.0557C20.3725 15.3182 20.23 16.5445 19.96 17.717L22.485 19.962C22.5936 20.0586 22.6652 20.1902 22.6873 20.3339C22.7095 20.4777 22.6808 20.6246 22.6062 20.7495L19.5337 25.8695C19.4848 25.9508 19.418 26.02 19.3384 26.0717C19.2588 26.1234 19.1684 26.1562 19.0742 26.1678C18.98 26.1794 18.8844 26.1693 18.7946 26.1384C18.7049 26.1075 18.6233 26.0566 18.5562 25.9895L15.7387 23.172C15.5043 22.9376 15.1865 22.8058 14.855 22.8057H8.38996C8.05846 22.8058 7.74057 22.9376 7.50621 23.172L4.68871 25.9895C4.62157 26.0566 4.54004 26.1075 4.45028 26.1384C4.36053 26.1693 4.26492 26.1794 4.1707 26.1678C4.07649 26.1562 3.98614 26.1234 3.90653 26.0717C3.82691 26.02 3.76012 25.9508 3.71121 25.8695L0.638707 20.7507C0.563802 20.6258 0.534922 20.4785 0.557062 20.3345C0.579202 20.1905 0.650969 20.0587 0.759957 19.962L3.28496 17.717V17.717ZM11.6225 14.0557C12.2855 14.0557 12.9214 13.7924 13.3902 13.3235C13.8591 12.8547 14.1225 12.2188 14.1225 11.5557C14.1225 10.8927 13.8591 10.2568 13.3902 9.78798C12.9214 9.31914 12.2855 9.05575 11.6225 9.05575C10.9594 9.05575 10.3235 9.31914 9.85469 9.78798C9.38585 10.2568 9.12246 10.8927 9.12246 11.5557C9.12246 12.2188 9.38585 12.8547 9.85469 13.3235C10.3235 13.7924 10.9594 14.0557 11.6225 14.0557Z" fill="white"/>
</svg>
